<?xml version="1.0" encoding="utf-8"?>
<!-- Generator: Adobe Illustrator 19.2.1, SVG Export Plug-In . SVG Version: 6.00 Build 0)  -->
<svg version="1.1" id="Layer_1" xmlns="http://www.w3.org/2000/svg" xmlns:xlink="http://www.w3.org/1999/xlink" x="0px" y="0px"
	 viewBox="0 0 300 174.5" style="enable-background:new 0 0 300 174.5;" xml:space="preserve">
<style type="text/css">
	.st0{fill:#FFFFFF;}
	.st1{fill:none;}
</style>
<g id="XMLID_1_">
	<g id="XMLID_69_">
		<path id="XMLID_91_" class="st0" d="M56,54.1h-6.9v17.8h-2.6V54.1h-6.9v-2.3H56V54.1z"/>
		<path id="XMLID_89_" class="st0" d="M71.7,69.6v2.3H58V51.8h13.4v2.3H60.6v6.5H70v2.1h-9.4v6.9L71.7,69.6L71.7,69.6z"/>
		<path id="XMLID_87_" class="st0" d="M76.9,56.5v15.3h-2.6V51.8h2l12.4,15.6V51.8h2.6v20.1h-2.1L76.9,56.5z"/>
		<path id="XMLID_84_" class="st0" d="M95.3,71.9V51.8h7c6.4,0,9.7,4.5,9.7,10c0,6.1-3.8,10.1-9.7,10.1H95.3z M102.2,54.1h-4.4v15.5
			h4.4c4.6,0,7.1-3.4,7.1-7.8C109.3,57.3,106.8,54.1,102.2,54.1z"/>
		<path id="XMLID_81_" class="st0" d="M128.3,69.6v2.3h-13.6V51.8H128v2.3h-10.8v6.5h9.4v2.1h-9.4v6.9L128.3,69.6L128.3,69.6z
			 M117.9,48.5l2.9-2.6h1.8l2.9,2.6l-1.3,0.7l-2.4-1.8l-2.4,1.8L117.9,48.5z"/>
		<path id="XMLID_79_" class="st0" d="M133.5,56.5v15.3H131V51.8h2l12.4,15.6V51.8h2.6v20.1h-2.1L133.5,56.5z"/>
		<path id="XMLID_77_" class="st0" d="M160.2,51.7c3.6,0,6.2,1.8,7.5,4.4l-2,1.3c-1.2-2.6-3.5-3.4-5.6-3.4c-4.5,0-6.9,4-6.9,7.8
			c0,4.2,3,7.9,7,7.9c2.1,0,4.6-1.1,5.8-3.5l2.1,1.2c-1.3,3-4.9,4.7-8,4.7c-5.5,0-9.4-5.3-9.4-10.3
			C150.6,56.8,154.1,51.7,160.2,51.7z"/>
		<path id="XMLID_75_" class="st0" d="M170.3,71.9v-20h2.6v20H170.3z"/>
		<path id="XMLID_72_" class="st0" d="M174.6,71.9l8.3-20.1h2.1l8.2,20.1h-2.7l-2.4-5.9h-8.4l-2.4,5.9H174.6z M183.9,54.7l-3.7,9.3
			h7.4L183.9,54.7z"/>
		<path id="XMLID_70_" class="st0" d="M206.5,56c-0.9-1.1-3.1-2.1-5.5-2.1c-3.1,0-4.5,1.3-4.5,3.3c0,2.1,1.7,2.7,5.3,3.5
			c4.2,0.9,6.8,2.1,6.8,5.8c0,3.9-3.2,5.6-7.3,5.6c-3.1,0-5.9-1-8.2-2.8l1.2-2.1c1.2,1.3,3.9,2.7,7,2.7c2.9,0,4.5-1.1,4.5-3.1
			c0-2.3-2.1-2.9-5.8-3.9c-4.1-1-6.2-2.1-6.2-5.3c0-3.9,3.1-5.9,7.2-5.9c2.7,0,4.9,0.9,6.6,2.3L206.5,56z"/>
	</g>
	<g id="XMLID_62_">
		<path id="XMLID_66_" class="st0" d="M213.8,72V60.9h3.8c3.6,0,5.3,2.5,5.3,5.5c0,3.4-2.1,5.5-5.3,5.5L213.8,72L213.8,72z
			 M217.6,62.2h-2.4v8.6h2.4c2.6,0,3.9-1.8,3.9-4.3C221.6,63.9,220.2,62.2,217.6,62.2z"/>
		<path id="XMLID_63_" class="st0" d="M223.8,66.5c0-2.9,2.2-5.6,5.3-5.6c3.1,0,5.2,2.9,5.2,5.6c0,2.9-2.2,5.6-5.2,5.6
			C225.9,72,223.8,69.3,223.8,66.5z M229.1,70.8c2.4,0,3.8-2.2,3.8-4.4c0-2.3-1.6-4.3-3.8-4.3c-2.4,0-3.8,2.2-3.8,4.3
			C225.2,68.7,226.8,70.8,229.1,70.8z"/>
	</g>
	<g id="XMLID_56_">
		<path id="XMLID_59_" class="st0" d="M77.6,118.5v-11.2h3.9c3.6,0,5.4,2.5,5.4,5.6c0,3.4-2.1,5.6-5.4,5.6H77.6z M81.5,108.5H79v8.7
			h2.5c2.6,0,4-1.9,4-4.4C85.5,110.3,84,108.5,81.5,108.5z"/>
		<path id="XMLID_57_" class="st0" d="M96.1,117.2v1.3h-7.6v-11.2h7.5v1.3h-6v3.7h5.3v1.2h-5.3v3.9H96.1z"/>
	</g>
	<g id="XMLID_36_">
		<path id="XMLID_54_" class="st0" d="M112.6,107.3c3.7,0,6.5,1.9,7.8,4.6l-2.1,1.3c-1.2-2.6-3.7-3.5-5.8-3.5
			c-4.7,0-7.1,4.2-7.1,8.2c0,4.4,3.1,8.3,7.2,8.3c2.2,0,4.7-1.1,6-3.7l2.2,1.2c-1.3,3.1-5,4.9-8.3,4.9c-5.8,0-9.8-5.5-9.8-10.8
			C102.6,112.6,106.3,107.3,112.6,107.3z"/>
		<path id="XMLID_51_" class="st0" d="M121.6,117.8c0-5.5,4.2-10.6,9.9-10.6c5.8,0,9.8,5.4,9.8,10.6c0,5.5-4.2,10.5-9.9,10.5
			C125.5,128.4,121.6,123.2,121.6,117.8z M131.4,126c4.5,0,7.1-4.2,7.1-8.2c0-4.3-2.9-8.2-7.1-8.2c-4.5,0-7.2,4.1-7.2,8.2
			C124.2,122.1,127.1,126,131.4,126z"/>
		<path id="XMLID_49_" class="st0" d="M146.7,112.3v16H144v-20.9h2.1l12.9,16.3v-16.3h2.6v20.9h-2.2L146.7,112.3z"/>
		<path id="XMLID_47_" class="st0" d="M180.8,109.7h-7.2v18.5H171v-18.5h-7.2v-2.4h17.1L180.8,109.7L180.8,109.7z"/>
		<path id="XMLID_45_" class="st0" d="M197.1,125.9v2.4h-14.2v-20.9h13.9v2.4h-11.3v6.8h9.8v2.2h-9.8v7.2L197.1,125.9L197.1,125.9z"
			/>
		<path id="XMLID_44_" class="st0" d="M214.7,117.9v-10.5h2.6v10.5c0,5.6-2.5,10.5-8.9,10.5c-6.6,0-8.9-5.1-8.9-10.5v-10.5h2.6v10.5
			c0,4.1,1.5,8.1,6.2,8.1C213.4,126,214.7,122,214.7,117.9z"/>
		<polygon id="XMLID_43_" class="st0" points="208.9,107.4 207.3,106.8 208.9,103.8 211.5,103.8 		"/>
		<path id="XMLID_40_" class="st0" d="M221.1,128.3v-20.9h7.2c6.7,0,10.1,4.7,10.1,10.4c0,6.3-3.9,10.5-10.1,10.5H221.1z
			 M228.4,109.7h-4.6v16.2h4.6c4.8,0,7.4-3.5,7.4-8.1C235.8,113.1,233.1,109.7,228.4,109.7z"/>
		<path id="XMLID_37_" class="st0" d="M240,117.8c0-5.5,4.2-10.6,9.9-10.6c5.8,0,9.8,5.4,9.8,10.6c0,5.5-4.2,10.5-9.9,10.5
			C244,128.4,240,123.2,240,117.8z M249.9,126c4.5,0,7.1-4.2,7.1-8.2c0-4.3-2.9-8.2-7.1-8.2c-4.5,0-7.2,4.1-7.2,8.2
			C242.7,122.1,245.6,126,249.9,126z"/>
	</g>
	<g id="XMLID_15_">
		<path id="XMLID_34_" class="st0" d="M61.6,102.5V82.9l-8.4,15h-1.8l-8.5-15v19.6h-3.2V77.1H43l9.2,16.5l9.2-16.5h3.4v25.4H61.6z"
			/>
		<path id="XMLID_31_" class="st0" d="M67.1,102.5l10.5-25.4h2.6l10.4,25.4h-3.4l-3-7.4H73.5l-3,7.4H67.1z M78.8,80.8l-4.7,11.7h9.3
			L78.8,80.8z"/>
		<path id="XMLID_28_" class="st0" d="M92.8,102.5V77.1h10.9c4.5,0,7.7,4.1,7.7,8.1c0,3.5-2.1,6.7-5.3,7.6l6.1,9.7h-3.7l-5.8-9.1H96
			v9.1L92.8,102.5L92.8,102.5z M96.1,90.5h7.7c2.6,0,4.4-2.5,4.4-5.3c0-2.9-2.1-5.3-4.6-5.3h-7.5V90.5z"/>
		<path id="XMLID_26_" class="st0" d="M115.4,102.5V77.2h3.2v14l13.1-14h3.5L125,88.3l10.8,14.2h-3.5L123,90.2l-4.4,4.6v7.8
			L115.4,102.5L115.4,102.5z"/>
		<path id="XMLID_24_" class="st0" d="M154.7,99.6v2.9h-17.2V77.1h16.9V80h-13.7v8.2h11.9v2.7h-11.9v8.8L154.7,99.6L154.7,99.6z"/>
		<path id="XMLID_22_" class="st0" d="M176.5,79.9h-8.8v22.5h-3.2V79.9h-8.8v-2.9h20.8V79.9z"/>
		<path id="XMLID_20_" class="st0" d="M179,102.5V77.2h3.2v25.3H179z"/>
		<path id="XMLID_18_" class="st0" d="M190.4,83.1v19.4h-3.2V77.1h2.5l15.7,19.8V77.1h3.2v25.3h-2.7L190.4,83.1z"/>
		<path id="XMLID_16_" class="st0" d="M231.5,99.1c-2.3,2.4-4.8,3.6-7.7,3.6c-6.7,0-11.8-6.4-11.8-12.9c0-6.8,5-12.8,11.8-12.8
			c4.9,0,8,2.3,9.7,5.5l-2.5,1.7c-1.5-2.9-4.2-4.4-7.3-4.4c-5.2,0-8.5,4.8-8.5,10c0,5.4,3.8,10,8.8,10c2.7,0,5.2-1.3,7.5-4v-3.5H226
			v-2.4h8.2v12.6h-2.7L231.5,99.1L231.5,99.1z"/>
	</g>
	<g id="XMLID_5_">
		<path id="XMLID_13_" class="st0" d="M182.5,156.6c0-4.2,1.1-7.3,6.4-10.3c3.1-1.7,6.9-3.1,6.9-5.9c0-1.8-1.6-3.7-4.7-3.7
			c-3.2,0-5.1,2-6,3.2l-2.2-2.5c0.9-0.9,4.1-3.7,8.9-3.7c4.8,0,7.9,2.9,7.9,6.3c0,4.1-4,6-6.3,7.2c-2.3,1.1-6.1,3.2-6.7,6.2H200v3.2
			L182.5,156.6L182.5,156.6z"/>
		<path id="XMLID_10_" class="st0" d="M212.9,157c-5.8,0-10-5-10-11.9s4.2-12,10-12c5.7,0,10,5,10,12C222.8,152,218.6,157,212.9,157
			z M212.9,136.3c-3.9,0-6.5,3.5-6.5,8.7s2.6,8.7,6.5,8.7c3.8,0,6.5-3.5,6.5-8.7C219.4,139.9,216.7,136.3,212.9,136.3z"/>
		<path id="XMLID_8_" class="st0" d="M240.5,153.5v3.2h-14.2v-3.2h5.6v-15.4c-0.9,1.2-4.4,3.1-6.4,3.1v-3.3c2.3,0,6.1-3.2,6.4-3.7
			h3.5v19.4H240.5z"/>
		<path id="XMLID_6_" class="st0" d="M260.4,153.2c0,5.5-4.4,9.3-9.9,9.3c-4,0-7.4-2.1-9-5.2l2.2-1.9c1.5,2.4,4.1,4,6.9,4
			c3.6,0,6.3-2.5,6.3-6.2c0-3.5-2.6-6-6-6c-2.2,0-4.3,1-5.6,2.9h-3.1c0.3-1.1,3.2-16,3.2-16h13.6v3.2h-11l-1.7,8.9
			c1.1-1.2,2.9-2,5.1-2C256.4,144.3,260.4,147.9,260.4,153.2z"/>
	</g>
	<path id="XMLID_2_" class="st0" d="M282,174.5H18V34h264L282,174.5L282,174.5z M20.4,172.1h259.3V36.3H20.4V172.1z"/>
</g>
<rect class="st1" width="300" height="174.5"/>
</svg>
