<?xml version="1.0" encoding="utf-8"?>
<!-- Generator: Adobe Illustrator 19.2.1, SVG Export Plug-In . SVG Version: 6.00 Build 0)  -->
<svg version="1.1" id="Layer_1" xmlns="http://www.w3.org/2000/svg" xmlns:xlink="http://www.w3.org/1999/xlink" x="0px" y="0px"
	 viewBox="0 0 150 150" style="enable-background:new 0 0 150 150;" xml:space="preserve">
<style type="text/css">
	.st0{fill:none;}
	.st1{fill:none;stroke:#C64291;stroke-width:4;stroke-miterlimit:10;}
	.st2{fill:#FFFFFF;}
	.st3{fill:#35424B;}
	.st4{fill:none;stroke:#3F3F3F;stroke-width:2;stroke-miterlimit:10;}
</style>
<title>Untitled-6</title>
<rect class="st0" width="150" height="150"/>
<g>
	<line class="st1" x1="70.4" y1="37.9" x2="70.4" y2="95.9"/>
	<line class="st1" x1="58.1" y1="43.9" x2="58.1" y2="95.9"/>
	<line class="st1" x1="45.8" y1="49.9" x2="45.8" y2="95.9"/>
</g>
<g>
	<path class="st2" d="M86.6,65v-4.5c0,0,0,0,0,0c0,0,0,0,0-0.1c0-3.8-7.9-5.9-15.3-5.9c-7.4,0-15.3,2-15.3,5.9c0,0,0,0,0,0.1
		c0,0,0,0,0,0v3.4c-3.5,1.4-4.2,3-4.2,4.2c0,0,0,0,0,0.1c0,0,0,0,0,0v5.6c0,1.8,1.7,3.2,4.3,4.1c0,0.1-0.1,0.2-0.1,0.4v4.9
		c0,0.3,0.1,0.5,0.3,0.7c1.5,3,8.7,4.7,15.7,4.7c0,0,0.1,0,0.1,0c2.7,4.2,7.5,6.9,12.8,6.9c8.4,0,15.3-6.8,15.3-15.3
		C100.2,72.4,94.2,65.9,86.6,65z"/>
</g>
<g>
	<g>
		<path class="st3" d="M71.3,66.3c-7.4,0-15.3-2.1-15.3-5.9c0-3.9,7.9-5.9,15.3-5.9s15.3,2.1,15.3,5.9
			C86.6,64.2,78.7,66.3,71.3,66.3L71.3,66.3z M71.3,56.3c-8.4,0-13.5,2.4-13.5,4.1c0,1.7,5.1,4.1,13.5,4.1s13.5-2.4,13.5-4.1
			C84.8,58.7,79.7,56.3,71.3,56.3L71.3,56.3z M71.3,56.3 M71.3,56.3"/>
	</g>
	<g>
		<path class="st3" d="M71.3,66.3c-7.4,0-15.3-2.1-15.3-5.9c0-0.5,0.4-0.9,0.9-0.9s0.9,0.4,0.9,0.9c0,1.7,5.1,4.1,13.5,4.1
			s13.5-2.4,13.5-4.1c0-0.5,0.4-0.9,0.9-0.9s0.9,0.4,0.9,0.9C86.6,64.2,78.7,66.3,71.3,66.3L71.3,66.3z"/>
	</g>
	<g>
		<path class="st3" d="M71.3,72C63.9,72,56,69.9,56,66.1c0-0.5,0.4-0.9,0.9-0.9s0.9,0.4,0.9,0.9c0,1.7,5.1,4.1,13.5,4.1
			c0.8,0,1.7,0,2.5-0.1c0.5,0,0.9,0.4,1,0.9c0,0.5-0.4,0.9-0.9,1C73.1,72,72.2,72,71.3,72L71.3,72z"/>
	</g>
	<g>
		<path class="st3" d="M56.9,67c-0.5,0-0.9-0.4-0.9-0.9v-5.6c0-0.5,0.4-0.9,0.9-0.9s0.9,0.4,0.9,0.9v5.6C57.8,66.6,57.4,67,56.9,67
			L56.9,67z"/>
	</g>
	<g>
		<path class="st3" d="M85.7,66.4c-0.5,0-0.9-0.4-0.9-0.9v-5c0-0.5,0.4-0.9,0.9-0.9s0.9,0.4,0.9,0.9v5C86.6,66,86.2,66.4,85.7,66.4
			L85.7,66.4z"/>
	</g>
	<g>
		<path class="st3" d="M70.3,82.9L70.3,82.9c-6.8-0.2-12.2-1.9-13.8-4.3c-0.3-0.4-0.1-1,0.3-1.3s1-0.1,1.3,0.3
			c1,1.6,5.6,3.3,12.2,3.5c0.5,0,0.9,0.4,0.9,0.9C71.2,82.5,70.8,82.9,70.3,82.9L70.3,82.9z"/>
	</g>
	<g>
		<path class="st3" d="M72,88.6c-7.9,0-16-2.2-16-5.9c0-0.5,0.4-0.9,0.9-0.9s0.9,0.4,0.9,0.9c0,1.6,5.7,4.1,14.2,4.1
			c0.5,0,0.9,0.4,0.9,0.9S72.5,88.6,72,88.6L72,88.6z"/>
	</g>
	<g>
		<path class="st3" d="M67.1,74c-7.4,0-15.3-2.1-15.3-5.9c0-1.2,0.8-3,4.8-4.4c0.5-0.2,1,0.1,1.2,0.6c0.2,0.5-0.1,1-0.6,1.2
			c-2.2,0.8-3.5,1.8-3.5,2.7c0,1.7,5.1,4.1,13.5,4.1c1.7,0,3.3-0.1,4.8-0.3c0.5-0.1,1,0.3,1,0.8c0.1,0.5-0.3,1-0.8,1
			C70.5,73.9,68.8,74,67.1,74L67.1,74z"/>
	</g>
	<g>
		<path class="st3" d="M67.1,79.7c-7.4,0-15.3-2.1-15.3-5.9c0-0.5,0.4-0.9,0.9-0.9s0.9,0.4,0.9,0.9c0,1.7,5.1,4.1,13.5,4.1
			c1.1,0,2.2,0,3.3-0.1c0.5,0,0.9,0.3,1,0.8c0,0.5-0.3,0.9-0.8,1C69.4,79.7,68.3,79.7,67.1,79.7L67.1,79.7z"/>
	</g>
	<g>
		<path class="st3" d="M52.7,74.7c-0.5,0-0.9-0.4-0.9-0.9v-5.6c0-0.5,0.4-0.9,0.9-0.9s0.9,0.4,0.9,0.9v5.6
			C53.6,74.3,53.2,74.7,52.7,74.7L52.7,74.7z"/>
	</g>
	<g>
		<path class="st3" d="M56.9,84.1c-0.5,0-0.9-0.4-0.9-0.9v-4.9c0-0.5,0.4-0.9,0.9-0.9s0.9,0.4,0.9,0.9v4.9
			C57.8,83.6,57.4,84.1,56.9,84.1L56.9,84.1z"/>
	</g>
	<g>
		<path class="st3" d="M84.9,95.5c-8.4,0-15.3-6.9-15.3-15.3s6.9-15.3,15.3-15.3s15.3,6.9,15.3,15.3C100.2,88.7,93.3,95.5,84.9,95.5
			L84.9,95.5z M84.9,66.8c-7.4,0-13.5,6-13.5,13.5c0,7.4,6,13.5,13.5,13.5c7.4,0,13.5-6,13.5-13.5S92.3,66.8,84.9,66.8L84.9,66.8z"
			/>
	</g>
	<g>
		<path class="st3" d="M84.1,86.9c-0.8-0.1-1.4-0.3-2.1-0.6c-0.6-0.3-1.2-0.7-1.6-1.2l0.5-0.8c0-0.1,0.1-0.1,0.2-0.2
			c0.1,0,0.2-0.1,0.3-0.1c0.1,0,0.3,0.1,0.4,0.2s0.3,0.3,0.6,0.4c0.2,0.2,0.5,0.3,0.8,0.4s0.7,0.2,1.1,0.3l0.3-5
			c-0.4-0.1-0.9-0.3-1.3-0.4c-0.4-0.2-0.8-0.4-1.1-0.6c-0.3-0.3-0.6-0.6-0.8-1C81.1,78,81,77.5,81,76.9c0-0.5,0.1-0.9,0.3-1.3
			c0.2-0.4,0.4-0.8,0.8-1.2c0.3-0.3,0.8-0.6,1.3-0.8c0.5-0.2,1.1-0.3,1.7-0.3l0.1-1.4c0-0.1,0.1-0.2,0.1-0.3
			c0.1-0.1,0.2-0.1,0.3-0.1h0.6l-0.1,1.8c0.7,0.1,1.2,0.2,1.7,0.5s0.9,0.6,1.3,0.9l-0.4,0.6c-0.1,0.2-0.3,0.3-0.4,0.3
			s-0.2,0-0.3-0.1c-0.1-0.1-0.3-0.2-0.5-0.3c-0.2-0.1-0.4-0.2-0.6-0.3c-0.2-0.1-0.5-0.2-0.8-0.2l-0.3,4.5c0.4,0.1,0.9,0.3,1.3,0.4
			c0.4,0.2,0.8,0.4,1.2,0.6c0.3,0.3,0.6,0.6,0.8,1c0.2,0.4,0.3,0.9,0.3,1.4c0,0.6-0.1,1.1-0.3,1.6c-0.2,0.5-0.5,0.9-0.8,1.3
			c-0.4,0.4-0.8,0.7-1.3,0.9c-0.5,0.2-1.1,0.4-1.8,0.4L85,88.6c0,0.1-0.1,0.2-0.1,0.3C84.8,89,84.7,89,84.6,89H84L84.1,86.9z
			 M82.6,76.8c0,0.3,0.1,0.6,0.2,0.8c0.1,0.2,0.3,0.4,0.4,0.6c0.2,0.2,0.4,0.3,0.7,0.4c0.2,0.1,0.5,0.2,0.8,0.3l0.3-4.2
			c-0.4,0-0.8,0.1-1.1,0.2c-0.3,0.1-0.5,0.3-0.7,0.5s-0.3,0.4-0.4,0.6C82.6,76.3,82.6,76.5,82.6,76.8z M87.8,83
			c0-0.3-0.1-0.6-0.2-0.8c-0.1-0.2-0.3-0.4-0.5-0.6s-0.4-0.3-0.7-0.4c-0.3-0.1-0.6-0.2-0.9-0.3l-0.3,4.7c0.4,0,0.8-0.1,1.1-0.3
			c0.3-0.1,0.6-0.3,0.8-0.5c0.2-0.2,0.4-0.5,0.5-0.8C87.7,83.6,87.8,83.3,87.8,83z"/>
	</g>
</g>
<line class="st4" x1="125" y1="120.5" x2="133" y2="120.5"/>
<line class="st4" x1="93.4" y1="48" x2="101.4" y2="48"/>
<line class="st4" x1="105" y1="43" x2="113" y2="43"/>
<line class="st4" x1="34.7" y1="123" x2="42.7" y2="123"/>
<line class="st4" x1="26.6" y1="114" x2="34.6" y2="114"/>
<path class="st2" d="M70.3,56.3L70.3,56.3"/>
</svg>
