<?xml version="1.0" encoding="utf-8"?>
<!-- Generator: Adobe Illustrator 19.2.1, SVG Export Plug-In . SVG Version: 6.00 Build 0)  -->
<svg version="1.1" id="Layer_1" xmlns="http://www.w3.org/2000/svg" xmlns:xlink="http://www.w3.org/1999/xlink" x="0px" y="0px"
	 viewBox="0 0 150 150" style="enable-background:new 0 0 150 150;" xml:space="preserve">
<style type="text/css">
	.st0{fill:none;stroke:#1C1A81;stroke-width:4;stroke-miterlimit:10;}
	.st1{fill:#35424B;}
	.st2{fill:#FFFFFF;}
	.st3{fill:none;stroke:#3F3F3F;stroke-width:2;stroke-miterlimit:10;}
</style>
<g>
	<line class="st0" x1="73.8" y1="63.5" x2="114.5" y2="63.5"/>
	<line class="st0" x1="73.8" y1="70.7" x2="114.5" y2="70.7"/>
	<line class="st0" x1="73.8" y1="77.8" x2="114.5" y2="77.8"/>
	<line class="st0" x1="41.5" y1="77.8" x2="82.2" y2="77.8"/>
	<line class="st0" x1="41.5" y1="84.9" x2="82.2" y2="84.9"/>
	<line class="st0" x1="41.5" y1="92" x2="82.2" y2="92"/>
</g>
<title>Untitled-6</title>
<g>
	<g>
		<path class="st1" d="M68.4,53.5l1.2,2l-0.7,1.9l1.2,0.7l3.2-1.1l3,0.3l1.9-2.9l1.8,4.3l-0.7,0.8l2.1,0.5L81,60.7l1.2-0.5l3.3,1.6
			l-0.4,1c0.3-0.1,0.7-0.2,1-0.3c0.8,0.1,1.5,0.4,2.2,0.7h2.1l2.8,2.5l1.8-0.4l1,2.8l-1.2,3.1l-1.4,1l-1.2,1.7l-1.5,0.9v2.3l-1,4
			l-2.4,4l-2.5,0.1l-4.3,2.3v2.1l-0.1,1.2l-0.5,0.5l-0.7,1.3l-1.4,1.6l-1.6,2.4l-3.4-3.8l-1.4-0.4l1.7-2.2l2.2-1.4L74.5,86l-3.7-2.5
			v-4.4l-2.3-1.5l-0.4-2.5L63.5,73l-0.6-2l-2.8,1.9h-2.8l0.3-1.7l-0.9,0.4L54,69.3l0.7-3.6l1.8-0.8l1.2-0.3l0.8-2.3L57.8,61
			l-0.3-1.1l0.7-0.5l-0.7-0.1l0.6-1.1l2.7-0.5l1.8,1.2l1.8-0.6l0.1-0.2l-0.2,0.1l-1-3.1l2.1,0.8L68.4,53.5 M78.5,50.5l-1.9,2.8
			l-1.3,2l-1.9-0.2H73l-0.4,0.1l-1.2,0.4l0.1-0.4l-0.4-0.7l-1.2-2l-1-1.8L67.3,52l-2.2,1.7l-1.2-0.5L60.4,52l1.1,3.6l0.2,0.6
			l-0.6-0.4L60.4,56l-2.7,0.5l-0.8,0.2l-0.4,0.8l-0.6,1.1L55.6,59l-0.3,0.2l0.1,0.2l-0.8,1.5l1.2,0.1l0.2,0.6l0.1,0.2l0.1,0.2
			l0.4,0.7l-0.2,0.6h-0.2H56l-0.2,0.1L54,64.1l-0.9,0.4L53,65.3l-0.7,3.6l-0.2,1l0.8,0.7l2.6,2.3l-0.3,1.8h2.2h2.8h0.6l0.5-0.3
			l0.7-0.5l0.1,0.4l0.7,0.3l3.7,1.7l0.2,1.5l0.1,0.8l0.7,0.4l1.5,0.9v3.4v1l0.8,0.5l3.1,2.1l0.2,0.9L72,88.7l-0.3,0.2l-0.2,0.3
			l-1.7,2.2l-1.6,2.1l2.6,0.7l0.8,0.2l3,3.4l1.5,1.7l1.3-1.9l1.6-2.3l1.4-1.5l0.2-0.2l0.1-0.2l0.6-1.1l0.3-0.4l0.4-0.4l0.1-0.5
			l0.2-1.2v-0.1v-0.1v-1l3-1.6l2.1-0.1h1l0.5-0.8l2.4-4l0.1-0.2l0.1-0.3l1-4l0.1-0.2v-0.2v-1.3l0.6-0.4l0.3-0.2l0.2-0.3l1.1-1.5
			l1.1-0.8l0.4-0.3l0.2-0.5l1.2-3.1l0.2-0.6l-0.2-0.6l-1-2.8l-0.6-1.5l-1.6,0.4l-0.9,0.2L91.5,62L91,61.5h-0.7h-1.8
			c-0.3-0.1-0.6-0.2-0.9-0.3l0.1-0.2l-1.5-0.8L83.8,59l0.1-0.2l-1.1-0.3l-0.6-0.3L82,58.3h-0.2h-0.1L81.6,58l-1.8-4.3L78.5,50.5
			L78.5,50.5z"/>
	</g>
</g>
<g>
	<g>
		<path class="st2" d="M68.4,53.5l1.2,2l-0.7,1.9l1.2,0.7l3.2-1.1l3,0.3l1.9-2.9l1.8,4.3l-0.7,0.8l2.1,0.5L81,60.7l1.2-0.5l3.3,1.6
			l-0.4,1c0.3-0.1,0.7-0.2,1-0.3c0.8,0.1,1.5,0.4,2.2,0.7h2.1l2.8,2.5l1.8-0.4l1,2.8l-1.2,3.1l-1.4,1l-1.2,1.7l-1.5,0.9v2.3l-1,4
			l-2.4,4l-2.5,0.1l-4.3,2.3v2.1l-0.1,1.2l-0.5,0.5l-0.7,1.3l-1.4,1.6l-1.6,2.4l-3.4-3.8l-1.4-0.4l1.7-2.2l2.2-1.4L74.5,86l-3.7-2.5
			v-4.4l-2.3-1.5l-0.4-2.5L63.5,73l-0.6-2l-2.8,1.9h-2.8l0.3-1.7l-0.9,0.4L54,69.3l0.7-3.6l1.8-0.8l1.2-0.3l0.8-2.3L57.8,61
			l-0.3-1.1l0.7-0.5l-0.7-0.1l0.6-1.1l2.7-0.5l1.8,1.2l1.8-0.6l0.1-0.2l-0.2,0.1l-1-3.1l2.1,0.8L68.4,53.5"/>
	</g>
</g>
<line class="st3" x1="97.4" y1="114" x2="105.4" y2="114"/>
<line class="st3" x1="71" y1="23" x2="79" y2="23"/>
<line class="st3" x1="25.5" y1="114" x2="33.5" y2="114"/>
<line class="st3" x1="109" y1="123" x2="117" y2="123"/>
<line class="st3" x1="37.5" y1="38" x2="45.5" y2="38"/>
</svg>
