<?xml version="1.0" encoding="utf-8"?>
<!-- Generator: Adobe Illustrator 19.2.1, SVG Export Plug-In . SVG Version: 6.00 Build 0)  -->
<svg version="1.1" id="Layer_1" xmlns="http://www.w3.org/2000/svg" xmlns:xlink="http://www.w3.org/1999/xlink" x="0px" y="0px"
	 viewBox="0 0 150 150" style="enable-background:new 0 0 150 150;" xml:space="preserve">
<style type="text/css">
	.st0{fill:none;}
	.st1{clip-path:url(#SVGID_2_);}
	.st2{fill:none;stroke:#65B79E;stroke-width:4;stroke-miterlimit:10;}
	.st3{fill:#FFFFFF;}
	.st4{fill:#35424B;}
	.st5{fill:none;stroke:#3F3F3F;stroke-width:2;stroke-miterlimit:10;}
</style>
<title>Untitled-6</title>
<rect class="st0" width="150" height="150"/>
<g>
	<defs>
		<rect id="SVGID_1_" x="64" y="57.5" width="42.4" height="33.7"/>
	</defs>
	<clipPath id="SVGID_2_">
		<use xlink:href="#SVGID_1_"  style="overflow:visible;"/>
	</clipPath>
	<g class="st1">
		<line class="st2" x1="88.2" y1="-156.6" x2="-291.9" y2="223.6"/>
		<line class="st2" x1="100.8" y1="-156.6" x2="-279.4" y2="223.6"/>
		<line class="st2" x1="113.3" y1="-156.6" x2="-266.9" y2="223.6"/>
		<line class="st2" x1="125.8" y1="-156.6" x2="-254.4" y2="223.6"/>
		<line class="st2" x1="138.3" y1="-156.6" x2="-241.9" y2="223.6"/>
		<line class="st2" x1="150.8" y1="-156.6" x2="-229.4" y2="223.6"/>
		<line class="st2" x1="163.3" y1="-156.6" x2="-216.9" y2="223.6"/>
		<line class="st2" x1="175.8" y1="-156.6" x2="-204.4" y2="223.6"/>
		<line class="st2" x1="188.3" y1="-156.6" x2="-191.9" y2="223.6"/>
		<line class="st2" x1="200.8" y1="-156.6" x2="-179.3" y2="223.6"/>
		<line class="st2" x1="213.3" y1="-156.6" x2="-166.8" y2="223.6"/>
		<line class="st2" x1="225.9" y1="-156.6" x2="-154.3" y2="223.6"/>
		<line class="st2" x1="238.4" y1="-156.6" x2="-141.8" y2="223.6"/>
		<line class="st2" x1="250.9" y1="-156.6" x2="-129.3" y2="223.6"/>
		<line class="st2" x1="263.4" y1="-156.6" x2="-116.8" y2="223.6"/>
		<line class="st2" x1="275.9" y1="-156.6" x2="-104.3" y2="223.6"/>
		<line class="st2" x1="288.4" y1="-156.6" x2="-91.8" y2="223.6"/>
		<line class="st2" x1="300.9" y1="-156.6" x2="-79.3" y2="223.6"/>
		<line class="st2" x1="313.4" y1="-156.6" x2="-66.8" y2="223.6"/>
		<line class="st2" x1="325.9" y1="-156.6" x2="-54.2" y2="223.6"/>
		<line class="st2" x1="338.4" y1="-156.6" x2="-41.7" y2="223.6"/>
		<line class="st2" x1="351" y1="-156.6" x2="-29.2" y2="223.6"/>
		<line class="st2" x1="363.5" y1="-156.6" x2="-16.7" y2="223.6"/>
		<line class="st2" x1="376" y1="-156.6" x2="-4.2" y2="223.6"/>
		<line class="st2" x1="388.5" y1="-156.6" x2="8.3" y2="223.6"/>
		<line class="st2" x1="401" y1="-156.6" x2="20.8" y2="223.6"/>
		<line class="st2" x1="413.5" y1="-156.6" x2="33.3" y2="223.6"/>
		<line class="st2" x1="426" y1="-156.6" x2="45.8" y2="223.6"/>
		<line class="st2" x1="438.5" y1="-156.6" x2="58.3" y2="223.6"/>
		<line class="st2" x1="451" y1="-156.6" x2="70.9" y2="223.6"/>
		<line class="st2" x1="463.5" y1="-156.6" x2="83.4" y2="223.6"/>
		<line class="st2" x1="476.1" y1="-156.6" x2="95.9" y2="223.6"/>
		<line class="st2" x1="488.6" y1="-156.6" x2="108.4" y2="223.6"/>
		<line class="st2" x1="501.1" y1="-156.6" x2="120.9" y2="223.6"/>
		<line class="st2" x1="513.6" y1="-156.6" x2="133.4" y2="223.6"/>
		<line class="st2" x1="526.1" y1="-156.6" x2="145.9" y2="223.6"/>
		<line class="st2" x1="538.6" y1="-156.6" x2="158.4" y2="223.6"/>
		<line class="st2" x1="551.1" y1="-156.6" x2="170.9" y2="223.6"/>
		<line class="st2" x1="563.6" y1="-156.6" x2="183.4" y2="223.6"/>
		<line class="st2" x1="576.1" y1="-156.6" x2="195.9" y2="223.6"/>
		<line class="st2" x1="588.6" y1="-156.6" x2="208.5" y2="223.6"/>
		<line class="st2" x1="601.2" y1="-156.6" x2="221" y2="223.6"/>
		<line class="st2" x1="613.7" y1="-156.6" x2="233.5" y2="223.6"/>
		<line class="st2" x1="626.2" y1="-156.6" x2="246" y2="223.6"/>
		<line class="st2" x1="638.7" y1="-156.6" x2="258.5" y2="223.6"/>
		<line class="st2" x1="651.2" y1="-156.6" x2="271" y2="223.6"/>
		<line class="st2" x1="663.7" y1="-156.6" x2="283.5" y2="223.6"/>
		<line class="st2" x1="676.2" y1="-156.6" x2="296" y2="223.6"/>
		<line class="st2" x1="688.7" y1="-156.6" x2="308.5" y2="223.6"/>
		<line class="st2" x1="701.2" y1="-156.6" x2="321" y2="223.6"/>
		<line class="st2" x1="713.7" y1="-156.6" x2="333.6" y2="223.6"/>
		<line class="st2" x1="726.2" y1="-156.6" x2="346.1" y2="223.6"/>
		<line class="st2" x1="738.8" y1="-156.6" x2="358.6" y2="223.6"/>
	</g>
</g>
<rect x="55.3" y="55.5" class="st3" width="39.5" height="28.4"/>
<g>
	<g>
		<path class="st4" d="M94.9,84.7H55.1c-0.5,0-0.9-0.4-0.9-0.9V55.4c0-0.5,0.4-0.9,0.9-0.9h39.8c0.5,0,0.9,0.4,0.9,0.9v28.4
			C95.9,84.3,95.4,84.7,94.9,84.7L94.9,84.7z M56,82.9h38V56.4H56V82.9L56,82.9z"/>
	</g>
	<g>
		<path class="st4" d="M75,92.7c-0.5,0-0.9-0.4-0.9-0.9v-7c0-0.5,0.4-0.9,0.9-0.9s0.9,0.4,0.9,0.9v7C75.9,92.3,75.5,92.7,75,92.7
			L75,92.7z"/>
	</g>
	<g>
		<path class="st4" d="M83.9,95.5c-0.2,0-0.5-0.1-0.7-0.3L75,86.9l-8.3,8.3c-0.4,0.4-1,0.4-1.3,0c-0.4-0.4-0.4-1,0-1.3l8.9-9
			c0.4-0.4,1-0.4,1.3,0l8.9,9c0.4,0.4,0.4,1,0,1.3C84.4,95.4,84.2,95.5,83.9,95.5L83.9,95.5z"/>
	</g>
	<g>
		<path class="st4" d="M94.7,62.1H55.3c-0.5,0-0.9-0.4-0.9-0.9s0.4-0.9,0.9-0.9h39.4c0.5,0,0.9,0.4,0.9,0.9
			C95.6,61.7,95.2,62.1,94.7,62.1L94.7,62.1z"/>
	</g>
	<g>
		<g>
			<path class="st4" d="M64.8,79c-0.5,0-0.9-0.4-0.9-0.9v-5.6c0-0.5,0.4-0.9,0.9-0.9s0.9,0.4,0.9,0.9v5.6C65.7,78.6,65.3,79,64.8,79
				L64.8,79z"/>
		</g>
		<g>
			<path class="st4" d="M71.6,79c-0.5,0-0.9-0.4-0.9-0.9V66.4c0-0.5,0.4-0.9,0.9-0.9s0.9,0.4,0.9,0.9v11.7
				C72.5,78.6,72.1,79,71.6,79L71.6,79z"/>
		</g>
		<g>
			<path class="st4" d="M78.4,79c-0.5,0-0.9-0.4-0.9-0.9v-3.7c0-0.5,0.4-0.9,0.9-0.9s0.9,0.4,0.9,0.9v3.7C79.4,78.6,78.9,79,78.4,79
				L78.4,79z"/>
		</g>
		<g>
			<path class="st4" d="M85.2,79c-0.5,0-0.9-0.4-0.9-0.9v-9.4c0-0.5,0.4-0.9,0.9-0.9s0.9,0.4,0.9,0.9v9.4C86.2,78.6,85.8,79,85.2,79
				L85.2,79z"/>
		</g>
	</g>
</g>
<line class="st5" x1="38.7" y1="34" x2="46.7" y2="34"/>
<line class="st5" x1="119.5" y1="108.3" x2="127.5" y2="108.3"/>
<line class="st5" x1="20.2" y1="86.2" x2="28.2" y2="86.2"/>
<line class="st5" x1="125.4" y1="56.4" x2="133.4" y2="56.4"/>
<line class="st5" x1="53.1" y1="127.8" x2="61.1" y2="127.8"/>
</svg>
