<?xml version="1.0" encoding="utf-8"?>
<!-- Generator: Adobe Illustrator 19.2.1, SVG Export Plug-In . SVG Version: 6.00 Build 0)  -->
<svg version="1.1" id="Layer_1" xmlns="http://www.w3.org/2000/svg" xmlns:xlink="http://www.w3.org/1999/xlink" x="0px" y="0px"
	 viewBox="0 0 150 150" style="enable-background:new 0 0 150 150;" xml:space="preserve">
<style type="text/css">
	.st0{fill:none;}
	.st1{fill:none;stroke:#EEAE19;stroke-width:4;stroke-miterlimit:10;}
	.st2{fill:#FFFFFF;}
	.st3{fill:#35424B;}
	.st4{fill:none;stroke:#3F3F3F;stroke-width:2;stroke-miterlimit:10;}
</style>
<title>Untitled-6</title>
<rect class="st0" width="150" height="150"/>
<g>
	<g>
		<polyline class="st1" points="25.5,72 31.3,78 37,72 42.7,78 48.4,72 54.1,78 59.9,72 65.6,78 71.3,72 77,78 82.8,72 88.5,78 
			94.2,72 99.9,78 105.7,72 111.4,78 117.1,72 122.8,78 128.6,72 134.3,78 140,72 145.8,78 		"/>
	</g>
	<g>
		<polyline class="st1" points="4.2,58.7 10,64.7 15.7,58.7 21.4,64.7 27.1,58.7 32.8,64.7 38.6,58.7 44.3,64.7 50,58.7 55.7,64.7 
			61.5,58.7 67.2,64.7 72.9,58.7 78.6,64.7 84.4,58.7 90.1,64.7 95.8,58.7 101.5,64.7 107.3,58.7 113,64.7 118.7,58.7 124.5,64.7 		
			"/>
	</g>
</g>
<path class="st2" d="M69.3,86h11.5c0-1.4,0.2-3.8,1.3-5.4c4.9-6.3,5-12.2,5-12.2c0-6.7-5.4-12.1-12.1-12.1s-12.1,5.4-12.1,12.1
	c0,0.1,0.1,5.9,5,12.2C69.1,82.1,69.3,84.6,69.3,86L69.3,86z"/>
<g>
	<g>
		<path class="st3" d="M81.7,87.7H68.4c-0.2,0-0.5-0.1-0.6-0.3c-0.2-0.2-0.3-0.4-0.2-0.7c0.1-1,0-3.8-1-5.2
			c-5.2-6.8-5.4-13.2-5.4-13.3c0-7.7,6.2-13.9,13.9-13.9S89,60.5,89,68.2c0,0.1-0.1,6.5-5.4,13.3c-1,1.3-1,4.2-1,5.1
			c0,0.2-0.1,0.5-0.2,0.7C82.1,87.6,81.9,87.7,81.7,87.7L81.7,87.7z M69.3,86h11.5c0-1.4,0.2-3.8,1.3-5.4c4.9-6.3,5-12.2,5-12.2
			c0-6.7-5.4-12.1-12.1-12.1s-12.1,5.4-12.1,12.1c0,0.1,0.1,5.9,5,12.2C69.1,82.1,69.3,84.6,69.3,86L69.3,86z"/>
	</g>
	<g>
		<path class="st3" d="M81.9,91.7H68.1c-0.5,0-0.9-0.4-0.9-0.9s0.4-0.9,0.9-0.9h13.8c0.5,0,0.9,0.4,0.9,0.9
			C82.8,91.3,82.4,91.7,81.9,91.7L81.9,91.7z"/>
	</g>
	<g>
		<path class="st3" d="M80.2,95.5H69.8c-0.5,0-0.9-0.4-0.9-0.9s0.4-0.9,0.9-0.9h10.5c0.5,0,0.9,0.4,0.9,0.9
			C81.1,95.1,80.7,95.5,80.2,95.5L80.2,95.5z"/>
	</g>
	<g>
		<g>
			<polygon class="st3" points="71.8,86.6 69.6,68.2 71.4,68 73.6,86.4 			"/>
		</g>
		<g>
			<polygon class="st3" points="78.2,86.6 76.4,86.4 78.6,68 80.4,68.2 			"/>
		</g>
	</g>
	<g>
		<path class="st3" d="M78.1,72.7c-0.5,0-0.9-0.3-1.1-0.6c-0.2,0.3-0.5,0.6-1.1,0.6c-0.5,0-0.9-0.3-1.1-0.6
			c-0.2,0.3-0.5,0.6-1.1,0.6c-0.5,0-0.9-0.3-1.1-0.6c-0.2,0.3-0.5,0.6-1.1,0.6c-0.8,0-1.2-0.8-1.3-1.1c0-0.1-0.1-0.2-0.1-0.3
			c0,0.1,0.2,0.2,0.4,0.2v-1.8c0.5,0,0.9,0.3,1.1,0.6c0.2-0.3,0.5-0.6,1.1-0.6c0.5,0,0.9,0.3,1.1,0.6c0.2-0.3,0.5-0.6,1.1-0.6
			c0.5,0,0.9,0.3,1.1,0.6c0.2-0.3,0.5-0.6,1.1-0.6c0.5,0,0.9,0.3,1.1,0.6c0.2-0.3,0.5-0.6,1.1-0.6v1.8c0.2,0,0.3-0.1,0.4-0.2
			c0,0-0.1,0.2-0.1,0.3C79.3,71.9,79,72.7,78.1,72.7L78.1,72.7z"/>
	</g>
</g>
<line class="st4" x1="38.7" y1="34" x2="46.7" y2="34"/>
<line class="st4" x1="87.7" y1="17.9" x2="95.7" y2="17.9"/>
<line class="st4" x1="117.4" y1="98.9" x2="125.4" y2="98.9"/>
<line class="st4" x1="121.4" y1="106.5" x2="129.4" y2="106.5"/>
<line class="st4" x1="35.9" y1="114.5" x2="43.9" y2="114.5"/>
</svg>
