<?xml version="1.0" encoding="utf-8"?>
<!-- Generator: Adobe Illustrator 19.2.1, SVG Export Plug-In . SVG Version: 6.00 Build 0)  -->
<svg version="1.1" id="Layer_1" xmlns="http://www.w3.org/2000/svg" xmlns:xlink="http://www.w3.org/1999/xlink" x="0px" y="0px"
	 viewBox="0 0 300 149.2" style="enable-background:new 0 0 300 149.2;" xml:space="preserve">
<style type="text/css">
	.st0{fill:#FFFFFF;}
</style>
<title>Untitled-3</title>
<g>
	<path class="st0" d="M63.9,45.7H48.1v40.8h-7.5V45.7H24.7v-6.6h39.1L63.9,45.7L63.9,45.7z"/>
	<path class="st0" d="M70.3,86.5V39.1H91c8.6,0,14.7,7.8,14.7,15.4c0,6.3-3.7,12.2-9.3,14l11.3,18.1h-8.5L88.8,70H77.9v16.5H70.3
		L70.3,86.5z M77.8,63.4h13.1c4.2,0,7.2-4.1,7.2-8.9s-3.6-8.8-7.5-8.8H77.8V63.4L77.8,63.4z"/>
	<path class="st0" d="M147.6,79.9v6.6h-32.5V39.1h32v6.6h-24.5v13.5h21.2v6.2h-21.2v14.5H147.6z"/>
	<path class="st0" d="M163.1,53.1v33.4h-7.5V39.1h5.9l27.2,34.2V39.1h7.5v47.4H190L163.1,53.1z"/>
	<path class="st0" d="M206.9,86.5V39.1h16.9c15.3,0,23.1,10.6,23.1,23.7c0,14.4-9.1,23.8-23.1,23.8L206.9,86.5L206.9,86.5z
		 M223.8,45.7h-9.4v34.2h9.4c10,0,15.5-7.4,15.5-17.2C239.3,52.8,233.6,45.7,223.8,45.7L223.8,45.7z"/>
	<path class="st0" d="M282.8,50.2c-1.8-2-6.9-4.8-13.1-4.8c-5.8,0-8.9,2.5-8.9,6.6c0,4.5,3.9,5.5,11.8,7.5
		c9.4,2.4,15.6,4.9,15.6,13.6c0,9.9-7.9,13.8-17.4,13.8c-7.1,0.1-14-2.2-19.6-6.4l3.5-6.4c2.3,2.3,8.9,6.1,16.4,6.1
		c5.7,0,9-2.1,9-6.2c0-4.7-4.7-6.1-13-8.2c-9.4-2.5-14.1-5.3-14.1-12.7c0-9.4,7.5-14.4,17.1-14.4c5.8,0,11.5,1.9,16.1,5.3
		L282.8,50.2z"/>
	<polygon class="st0" points="198.6,32 204.5,32 204.5,19.4 172.8,19.4 172.8,25.3 198.6,25.3 	"/>
	<polygon class="st0" points="198.6,93.5 198.6,99.4 182.7,99.4 182.7,114.1 150.9,99.4 15.1,99.4 15.1,32 8.1,32 8.1,99.8 
		8.1,106.4 15.3,106.4 149.4,106.4 180.1,120.2 189.7,124.5 189.7,114.2 189.7,106.4 198.2,106.4 204.5,106.4 204.5,99.8 
		204.5,93.5 	"/>
	<path class="st0" d="M1.2,12.8c0-1.5,0.3-3,0.8-4.4c0.5-1.5,1.4-2.8,2.4-4c1.1-1.2,2.4-2.1,3.9-2.8c1.6-0.7,3.4-1.1,5.2-1.1
		c2.1-0.1,4.2,0.5,6,1.5c1.6,0.9,2.9,2.2,3.8,3.9l-4.4,3c-0.2-0.6-0.6-1.1-1.1-1.6c-0.8-0.8-1.8-1.4-3-1.6c-0.5-0.1-1-0.2-1.6-0.2
		c-1,0-2,0.2-2.8,0.7c-0.8,0.4-1.4,1-2,1.7C8,8.7,7.6,9.5,7.4,10.3C7.1,11.2,7,12.1,7,13c0,1,0.1,1.9,0.4,2.8
		c0.3,0.9,0.7,1.7,1.3,2.4c0.6,0.7,1.3,1.2,2,1.6c0.8,0.4,1.8,0.6,2.7,0.6c0.5,0,1.1-0.1,1.6-0.2c0.5-0.1,1.1-0.3,1.6-0.6
		c0.5-0.3,1-0.6,1.4-1c0.4-0.5,0.8-1,1-1.6l4.6,2.7c-0.4,0.9-0.9,1.7-1.6,2.4c-0.7,0.7-1.6,1.3-2.5,1.8c-1.9,1-4,1.5-6.1,1.5
		c-1.7,0-3.4-0.4-4.9-1.1c-1.5-0.7-2.8-1.7-3.8-2.9c-1.1-1.2-1.9-2.6-2.5-4.1C1.5,16,1.2,14.4,1.2,12.8z"/>
	<path class="st0" d="M37,25.6c-1.7,0-3.4-0.3-5-1.1c-1.5-0.7-2.8-1.6-3.8-2.8c-1.1-1.2-1.9-2.5-2.5-4c-0.6-1.5-0.9-3.1-0.9-4.6
		c0-1.6,0.3-3.2,0.9-4.7c1.2-3,3.5-5.4,6.5-6.7c1.6-0.7,3.3-1,5-1c1.7,0,3.4,0.3,5,1.1c1.5,0.7,2.8,1.6,3.8,2.8
		c1.1,1.2,1.9,2.5,2.5,4c0.6,1.5,0.9,3,0.9,4.6c0,1.6-0.3,3.2-0.9,4.7c-1.2,3-3.5,5.4-6.5,6.7C40.3,25.2,38.6,25.6,37,25.6z
		 M30.6,13.1c0,0.9,0.1,1.9,0.4,2.8c0.3,0.9,0.7,1.7,1.2,2.4c0.5,0.7,1.2,1.3,2,1.7c0.9,0.4,1.8,0.6,2.8,0.6c1,0,2-0.2,2.8-0.7
		c0.8-0.4,1.5-1.1,2.1-1.8c0.5-0.7,0.9-1.5,1.2-2.4c0.3-0.9,0.4-1.8,0.4-2.7c0-0.9-0.1-1.9-0.4-2.8c-0.3-0.9-0.7-1.7-1.2-2.4
		c-0.5-0.7-1.2-1.2-2-1.6C38.9,5.8,38,5.6,37,5.6c-1,0-2,0.2-2.8,0.6c-0.8,0.4-1.4,1-2,1.7c-0.6,0.7-1,1.5-1.3,2.4
		C30.7,11.3,30.5,12.2,30.6,13.1z"/>
	<path class="st0" d="M58.2,11.3v14.1h-5.7V0.7H57l11.5,14.4V0.7h5.7v24.6h-4.6L58.2,11.3z"/>
	<path class="st0" d="M97.5,5.7h-7.5v19.6h-5.7V5.7h-7.5v-5h20.7L97.5,5.7L97.5,5.7z"/>
	<path class="st0" d="M117.6,20.4v5h-17.3V0.7h16.9v5H106v4.8h9.7v4.6H106v5.2L117.6,20.4L117.6,20.4z"/>
	<path class="st0" d="M126.7,11.3v14.1h-5.7V0.7h4.4L137,15.2V0.7h5.7v24.6h-4.6L126.7,11.3z"/>
	<path class="st0" d="M166.1,5.7h-7.5v19.6H153V5.7h-7.5v-5h20.7V5.7z"/>
	<path class="st0" d="M265.3,148.5c0-1.7,0.4-2.9,2.6-4.1c1.2-0.7,2.8-1.2,2.8-2.4c-0.1-0.9-0.9-1.6-1.8-1.5c0,0-0.1,0-0.1,0
		c-1,0-1.9,0.5-2.4,1.3l-0.9-1c0.9-1,2.2-1.5,3.6-1.5c2,0,3.1,1.1,3.1,2.5c0,1.6-1.6,2.4-2.5,2.9c-0.9,0.5-2.5,1.3-2.7,2.5h5.4v1.3
		L265.3,148.5L265.3,148.5z"/>
	<path class="st0" d="M278,148.7c-2.3,0-4-2-4-4.8c0-2.8,1.7-4.8,4-4.8c2.3,0,4,2,4,4.8C282,146.7,280.3,148.7,278,148.7z
		 M278,140.4c-1.5,0-2.6,1.4-2.6,3.5s1.1,3.5,2.6,3.5c1.5,0,2.6-1.4,2.6-3.5S279.5,140.4,278,140.4L278,140.4z"/>
	<path class="st0" d="M289.6,147.2v1.3h-5.7v-1.3h2.2v-6.1c-0.7,0.7-1.6,1.1-2.6,1.2V141c1-0.2,1.9-0.7,2.6-1.5h1.4v7.7L289.6,147.2
		L289.6,147.2z"/>
	<path class="st0" d="M294.8,148.7c-2.4,0-4-1.8-4-4.8c0-4.4,1.7-6.6,4.2-6.6c1.4,0,2.7,0.7,3.4,2l-0.9,0.8c-0.5-1-1.5-1.6-2.5-1.6
		c-1.7,0-2.8,1.6-2.9,4.4c0.5-1.1,1.6-1.8,2.9-1.8c2.1,0,3.8,1.6,3.9,3.7c0,0,0,0,0,0.1C298.8,146.9,297,148.7,294.8,148.7
		C294.9,148.7,294.8,148.7,294.8,148.7z M297.5,144.8c0-1.5-1.2-2.7-2.7-2.7s-2.7,1.2-2.7,2.7c0,1.5,1.2,2.7,2.7,2.7
		C296.3,147.4,297.5,146.2,297.5,144.8L297.5,144.8z"/>
	<path class="st0" d="M199.4,123.2c-0.6,0-1.2-0.2-1.6-0.6c-0.4-0.4-0.7-1-0.6-1.6v-4.4h-1.4v-1.3h1.4v-2.4h1.5v2.4h1.9v1.3h-1.9
		v3.9c0,0.4,0.1,0.8,0.3,1.1c0.2,0.2,0.4,0.3,0.7,0.3c0.1,0,0.2,0,0.3,0c0.1,0,0.2-0.1,0.3-0.1l0.5,1.3
		C200.3,123.2,199.9,123.3,199.4,123.2z"/>
	<path class="st0" d="M205.4,123.4c-1.1,0-2.1-0.4-2.8-1.1c-0.8-0.8-1.2-1.9-1.1-3c0-1.1,0.4-2.2,1.1-3c1.5-1.5,4-1.6,5.5-0.1
		c0,0,0,0,0,0c0.7,0.9,1.1,2,1,3.2v0.2h-6.1c0,0.7,0.3,1.4,0.8,1.9c1,1,2.5,0.9,3.5,0c0.2-0.2,0.4-0.4,0.5-0.7l1.3,0.6
		c-0.3,0.6-0.8,1.2-1.5,1.5C206.9,123.2,206.1,123.4,205.4,123.4z M203,118.3h4.5c0-0.5-0.3-1-0.7-1.3c-0.4-0.4-1-0.6-1.6-0.5
		c-0.5,0-1,0.2-1.4,0.5C203.4,117.3,203.1,117.7,203,118.3z"/>
	<path class="st0" d="M210.4,115.3h1.4v1.1h0.1c0.2-0.4,0.6-0.8,1-1c0.4-0.3,0.9-0.4,1.4-0.4c0.8-0.1,1.6,0.2,2.2,0.8
		c0.6,0.7,0.8,1.5,0.8,2.3v5h-1.5v-4.9c0.1-0.9-0.6-1.8-1.5-1.9c-0.1,0-0.3,0-0.4,0c-0.6,0-1.1,0.3-1.5,0.7
		c-0.4,0.5-0.6,1.1-0.6,1.7v4.3h-1.5L210.4,115.3L210.4,115.3z"/>
	<path class="st0" d="M222.3,123.4c-1,0-2-0.4-2.6-1.2c-1.4-1.7-1.4-4.2,0-5.9c0.7-0.8,1.6-1.2,2.6-1.2c0.5,0,1.1,0.1,1.6,0.4
		c0.4,0.2,0.8,0.6,1.1,1h0.1l0-1.1v-3.6h1.5v11.4h-1.4V122H225c-0.3,0.4-0.6,0.8-1.1,1C223.4,123.3,222.9,123.4,222.3,123.4z
		 M222.6,122c0.7,0,1.4-0.3,1.8-0.8c1-1.2,1-2.9,0-4.1c-0.4-0.5-1.1-0.8-1.8-0.8c-0.7,0-1.3,0.3-1.8,0.8c-0.5,0.5-0.7,1.3-0.7,2
		c0,0.7,0.2,1.4,0.7,2C221.3,121.7,221.9,122,222.6,122z"/>
	<path class="st0" d="M231.7,123.4c-1.1,0-2.1-0.4-2.8-1.1c-0.8-0.8-1.2-1.9-1.1-3c0-1.1,0.4-2.2,1.1-3c1.5-1.5,4-1.6,5.5-0.1
		c0,0,0,0,0,0c0.7,0.9,1.1,2,1,3.2v0.2h-6.1c0,0.7,0.3,1.4,0.8,1.9c1,1,2.5,0.9,3.5,0c0.2-0.2,0.4-0.4,0.5-0.7l1.4,0.6
		c-0.3,0.6-0.8,1.2-1.5,1.5C233.2,123.2,232.4,123.4,231.7,123.4z M230.7,113.8h-1.4v-0.1l1.6-1.9h1.3l1.6,1.9v0.1h-1.4l-0.8-1h-0.1
		L230.7,113.8z M229.3,118.3h4.5c0-0.5-0.3-1-0.7-1.3c-0.4-0.4-1-0.6-1.6-0.5c-0.5,0-1,0.2-1.4,0.5
		C229.7,117.3,229.4,117.7,229.3,118.3z"/>
	<path class="st0" d="M236.7,115.3h1.4v1.1h0.1c0.2-0.4,0.6-0.8,1-1c0.4-0.3,0.9-0.4,1.4-0.4c0.8-0.1,1.6,0.2,2.2,0.8
		c0.6,0.7,0.8,1.5,0.8,2.3v5h-1.5v-4.9c0.1-0.9-0.6-1.8-1.6-1.9c-0.1,0-0.2,0-0.3,0c-0.6,0-1.1,0.3-1.5,0.7
		c-0.4,0.5-0.6,1.1-0.6,1.7v4.3h-1.5L236.7,115.3L236.7,115.3z"/>
	<path class="st0" d="M248.9,123.4c-1.1,0-2.1-0.4-2.9-1.2c-0.8-0.8-1.2-1.9-1.1-3c0-1.1,0.4-2.2,1.1-3c0.8-0.8,1.8-1.2,2.9-1.2
		c1.5,0,2.9,0.9,3.4,2.3l-1.3,0.6c-0.3-0.9-1.2-1.5-2.2-1.5c-0.7,0-1.3,0.3-1.7,0.8c-1,1.2-1,2.8,0,4c0.4,0.5,1.1,0.8,1.7,0.8
		c1,0,1.9-0.5,2.3-1.5l1.3,0.6c-0.3,0.7-0.7,1.3-1.3,1.6C250.4,123.2,249.7,123.4,248.9,123.4z"/>
	<path class="st0" d="M255.6,112.6c0,0.5-0.5,1-1,1c-0.5,0-1-0.5-1-1c0-0.5,0.5-1,1-1c0.2,0,0.5,0.1,0.7,0.3
		C255.5,112.1,255.6,112.3,255.6,112.6z M255.3,115.3v7.8h-1.5v-7.8H255.3z"/>
	<path class="st0" d="M260.1,115.1c0.9-0.1,1.9,0.3,2.6,0.9c0.6,0.6,1,1.5,0.9,2.4v4.8h-1.4V122h-0.1c-0.5,0.8-1.4,1.4-2.4,1.3
		c-0.8,0-1.6-0.2-2.2-0.8c-0.6-0.5-0.9-1.2-0.9-1.9c0-0.8,0.3-1.5,0.9-1.9c0.7-0.5,1.6-0.8,2.5-0.7c0.7,0,1.5,0.1,2.2,0.5v-0.3
		c0-0.5-0.2-1-0.6-1.3c-0.4-0.4-0.9-0.5-1.4-0.5c-0.8,0-1.5,0.3-2,1l-1.3-0.8C257.6,115.5,258.8,115,260.1,115.1z M258.2,120.7
		c0,0.4,0.2,0.8,0.5,1c0.3,0.3,0.7,0.4,1.1,0.4c0.6,0,1.2-0.2,1.6-0.7c0.5-0.4,0.7-1,0.7-1.6c-0.6-0.4-1.2-0.6-1.9-0.5
		c-0.5,0-1,0.1-1.5,0.4C258.4,119.9,258.2,120.3,258.2,120.7z"/>
	<path class="st0" d="M271.2,121c0,0.7-0.3,1.3-0.9,1.7c-0.6,0.5-1.4,0.7-2.3,0.7c-0.7,0-1.5-0.2-2.1-0.6c-0.6-0.4-1-1-1.3-1.6
		l1.3-0.6c0.2,0.4,0.5,0.8,0.8,1.1c0.3,0.3,0.8,0.4,1.2,0.4c0.4,0,0.8-0.1,1.2-0.3c0.3-0.1,0.4-0.4,0.5-0.7c-0.1-0.6-0.6-1-1.2-1.1
		l-1.3-0.3c-1.5-0.4-2.3-1.1-2.3-2.2c0-0.7,0.3-1.3,0.9-1.7c1.2-0.8,2.8-0.9,4.1-0.1c0.5,0.3,0.9,0.8,1.2,1.3l-1.3,0.5
		c-0.1-0.3-0.4-0.6-0.7-0.8c-0.3-0.2-0.7-0.3-1.1-0.3c-0.4,0-0.7,0.1-1,0.3c-0.3,0.1-0.4,0.4-0.5,0.7c0,0.4,0.4,0.8,1.3,1l1.2,0.3
		C270.4,119,271.2,119.8,271.2,121z"/>
	<path class="st0" d="M279.2,123.4c-1,0-2-0.4-2.6-1.2c-1.4-1.7-1.4-4.2,0-5.9c0.7-0.8,1.6-1.2,2.6-1.2c0.5,0,1.1,0.1,1.6,0.4
		c0.4,0.2,0.8,0.6,1.1,1h0v-1.1v-3.6h1.5v11.4h-1.5V122l0,0c-0.3,0.4-0.6,0.8-1.1,1C280.3,123.3,279.8,123.4,279.2,123.4z
		 M279.5,122c0.7,0,1.3-0.3,1.8-0.8c1-1.2,1-2.9,0-4.1c-0.4-0.5-1.1-0.8-1.8-0.8c-0.7,0-1.3,0.3-1.8,0.8c-0.5,0.5-0.7,1.3-0.7,2
		c0,0.7,0.2,1.4,0.7,2C278.1,121.7,278.8,122,279.5,122z"/>
	<path class="st0" d="M284.6,119.2c0-1.1,0.4-2.2,1.1-3c0.8-0.8,1.8-1.2,2.9-1.2c1.1,0,2.1,0.4,2.9,1.2c1.5,1.7,1.5,4.3,0,6
		c-0.7,0.8-1.8,1.2-2.9,1.2c-1.1,0-2.1-0.4-2.9-1.2C285,121.4,284.6,120.3,284.6,119.2z M286.1,119.2c0,0.8,0.2,1.5,0.7,2
		c1,1,2.5,1,3.5,0.1c0,0,0.1-0.1,0.1-0.1c1-1.2,1-2.9,0-4.1c-0.9-1-2.5-1.1-3.5-0.2c-0.1,0-0.1,0.1-0.2,0.2
		C286.3,117.7,286,118.5,286.1,119.2z"/>
	<path class="st0" d="M197.3,135.7h-1.5v-7.8h1.4v1.1h0.1c0.2-0.4,0.6-0.8,1-1c0.9-0.5,2-0.5,2.9,0c0.4,0.3,0.8,0.6,1,1.1
		c0.6-1,1.6-1.5,2.7-1.5c0.8,0,1.6,0.3,2.1,0.8c0.5,0.7,0.8,1.5,0.7,2.4v4.9h-1.5V131c0-0.6-0.1-1.1-0.4-1.6
		c-0.3-0.4-0.8-0.5-1.3-0.5c-0.6,0-1.1,0.3-1.4,0.7c-0.4,0.5-0.6,1.1-0.6,1.7v4.3H201V131c0-0.6-0.1-1.1-0.4-1.6
		c-0.3-0.4-0.8-0.5-1.3-0.5c-0.6,0-1.1,0.3-1.4,0.7c-0.4,0.5-0.6,1.1-0.6,1.7V135.7L197.3,135.7z"/>
	<path class="st0" d="M212.3,127.6c0.9-0.1,1.9,0.3,2.6,0.9c0.6,0.6,1,1.5,0.9,2.4v4.8h-1.4v-1.1h-0.1c-0.5,0.8-1.4,1.4-2.4,1.3
		c-0.8,0-1.6-0.2-2.2-0.8c-0.6-0.5-0.9-1.2-0.9-1.9c0-0.8,0.3-1.5,0.9-1.9c0.7-0.5,1.6-0.8,2.5-0.7c0.7,0,1.5,0.1,2.2,0.5v-0.3
		c0-0.5-0.2-1-0.6-1.3c-0.4-0.4-0.9-0.5-1.4-0.5c-0.8,0-1.5,0.3-2,1l-1.3-0.8C209.8,128.1,211,127.5,212.3,127.6z M210.4,133.3
		c0,0.4,0.2,0.8,0.5,1c0.3,0.3,0.7,0.4,1.1,0.4c0.6,0,1.2-0.2,1.6-0.7c0.5-0.4,0.7-1,0.7-1.6c-0.6-0.4-1.2-0.6-1.9-0.5
		c-0.5,0-1,0.1-1.5,0.4C210.6,132.5,210.4,132.9,210.4,133.3L210.4,133.3z"/>
	<path class="st0" d="M218.9,135.7h-1.5v-7.8h1.4v1.3h0.1c0.2-0.4,0.5-0.8,0.9-1.1c0.4-0.3,0.9-0.4,1.4-0.4c0.4,0,0.7,0.1,1.1,0.2
		l-0.4,1.4c-0.3-0.1-0.6-0.1-0.9-0.1c-0.6,0-1.1,0.2-1.4,0.7c-0.4,0.4-0.6,1-0.6,1.6L218.9,135.7L218.9,135.7z"/>
	<path class="st0" d="M230.2,135.7h-1.8L226,132l-1.2,1.2v2.5h-1.5v-11.4h1.5v7l3.4-3.4h1.9v0.1l-3,3l3.2,4.7L230.2,135.7
		L230.2,135.7z"/>
	<path class="st0" d="M234.3,135.9c-1.1,0-2.1-0.4-2.8-1.2c-0.8-0.8-1.2-1.9-1.1-3c0-1.1,0.4-2.2,1.1-3c1.5-1.5,4-1.6,5.5-0.1
		c0,0,0,0,0,0c0.7,0.9,1.1,2,1,3.2v0.2h-6.1c0,0.7,0.3,1.4,0.8,1.9c1,1,2.5,0.9,3.5,0c0.2-0.2,0.4-0.4,0.5-0.7l1.3,0.6
		c-0.3,0.6-0.8,1.2-1.5,1.5C235.8,135.8,235,136,234.3,135.9z M232,130.8h4.5c0-0.5-0.3-1-0.7-1.3c-0.4-0.4-1-0.6-1.6-0.5
		c-0.5,0-1,0.2-1.4,0.5C232.3,129.8,232,130.3,232,130.8L232,130.8z"/>
	<path class="st0" d="M242.2,135.8c-0.6,0-1.2-0.2-1.6-0.6c-0.4-0.4-0.7-1-0.6-1.6v-4.4h-1.4v-1.3h1.4v-2.4h1.5v2.4h1.9v1.3h-1.9
		v3.9c0,0.4,0.1,0.8,0.3,1.1c0.2,0.2,0.4,0.3,0.7,0.3c0.1,0,0.2,0,0.3,0c0.1,0,0.2-0.1,0.3-0.1l0.5,1.3
		C243.1,135.8,242.6,135.8,242.2,135.8z"/>
	<path class="st0" d="M246.7,125.2c0,0.5-0.5,1-1,1c-0.5,0-1-0.5-1-1c0-0.5,0.5-1,1-1c0.2,0,0.5,0.1,0.7,0.3
		C246.6,124.7,246.7,124.9,246.7,125.2z M246.4,127.9v7.8h-1.5v-7.8H246.4z"/>
	<path class="st0" d="M248.3,127.9h1.4v1.1h0.1c0.2-0.4,0.6-0.8,1-1c0.4-0.3,0.9-0.4,1.4-0.4c0.8-0.1,1.6,0.2,2.2,0.8
		c0.6,0.7,0.8,1.5,0.8,2.3v5h-1.5v-4.8c0.1-0.9-0.6-1.8-1.5-1.9c-0.1,0-0.3,0-0.4,0c-0.6,0-1.1,0.3-1.5,0.7
		c-0.4,0.5-0.6,1.1-0.6,1.7v4.3h-1.5L248.3,127.9L248.3,127.9z"/>
	<path class="st0" d="M260.3,139.4c-0.4,0-0.8-0.1-1.2-0.2c-0.4-0.1-0.7-0.3-1-0.5c-0.3-0.2-0.6-0.4-0.8-0.7
		c-0.2-0.3-0.4-0.6-0.5-0.9l1.4-0.6c0.2,0.4,0.4,0.8,0.8,1.1c0.4,0.3,0.9,0.4,1.4,0.4c0.7,0,1.4-0.2,1.9-0.7c0.5-0.5,0.7-1.3,0.7-2
		v-0.8h-0.1c-0.3,0.4-0.7,0.8-1.1,1c-0.5,0.2-1,0.4-1.5,0.4c-1,0-2-0.4-2.6-1.2c-0.7-0.8-1.1-1.9-1.1-3c0-1.1,0.4-2.2,1.1-3
		c0.7-0.8,1.6-1.2,2.6-1.2c0.5,0,1.1,0.1,1.5,0.4c0.5,0.2,0.8,0.6,1.1,1h0.1v-1.1h1.4v7.5c0.1,1.1-0.3,2.2-1.1,3
		C262.5,139.1,261.4,139.4,260.3,139.4z M260.3,134.6c0.7,0,1.3-0.3,1.8-0.8c1-1.2,1-2.9,0-4.1c-0.4-0.5-1.1-0.8-1.8-0.8
		c-0.7,0-1.3,0.3-1.8,0.8c-0.5,0.5-0.7,1.3-0.7,2c0,0.7,0.2,1.4,0.7,2C259,134.3,259.7,134.6,260.3,134.6L260.3,134.6z"/>
	<path class="st0" d="M272.8,135.9c-1,0-2-0.4-2.6-1.2c-1.4-1.7-1.4-4.2,0-5.9c0.7-0.8,1.6-1.2,2.6-1.2c0.5,0,1.1,0.1,1.6,0.4
		c0.4,0.2,0.8,0.6,1.1,1h0.1l-0.1-1.1v-3.7h1.4v11.4h-1.4v-1.1h-0.1c-0.3,0.4-0.6,0.8-1.1,1C273.9,135.8,273.4,135.9,272.8,135.9z
		 M273.1,134.6c0.7,0,1.3-0.3,1.8-0.8c1-1.2,1-2.9,0-4.1c-0.4-0.5-1.1-0.8-1.8-0.8c-0.7,0-1.3,0.3-1.8,0.8c-0.5,0.5-0.7,1.3-0.7,2
		c0,0.7,0.2,1.4,0.7,2C271.7,134.3,272.4,134.6,273.1,134.6L273.1,134.6z"/>
	<path class="st0" d="M282.2,135.9c-1.1,0-2.1-0.4-2.8-1.2c-0.8-0.8-1.2-1.9-1.1-3c0-1.1,0.4-2.2,1.1-3c1.5-1.5,4-1.6,5.5-0.1
		c0,0,0,0,0,0c0.7,0.9,1.1,2,1,3.2v0.2h-6.1c0,0.7,0.3,1.4,0.8,1.9c1,1,2.5,0.9,3.5,0c0.2-0.2,0.4-0.4,0.5-0.7l1.3,0.6
		c-0.3,0.6-0.8,1.2-1.5,1.5C283.7,135.8,282.9,136,282.2,135.9z M279.9,130.8h4.5c0-0.5-0.3-1-0.7-1.3c-0.4-0.4-1-0.6-1.6-0.5
		c-0.5,0-1,0.2-1.4,0.5C280.2,129.8,280,130.3,279.9,130.8z"/>
	<path class="st0" d="M199.8,148.5c-1.1,0-2.1-0.4-2.9-1.2c-0.8-0.8-1.2-1.9-1.1-3c0-1.1,0.4-2.2,1.1-3c0.8-0.8,1.8-1.2,2.9-1.2
		c1.5,0,2.9,0.9,3.4,2.3l-1.3,0.6c-0.3-0.9-1.2-1.5-2.2-1.5c-0.7,0-1.3,0.3-1.7,0.8c-1,1.2-1,2.8,0,4c0.4,0.5,1.1,0.8,1.7,0.8
		c1,0,1.9-0.5,2.3-1.5l1.3,0.6c-0.3,0.7-0.7,1.3-1.3,1.6C201.3,148.3,200.6,148.5,199.8,148.5z"/>
	<path class="st0" d="M204,144.3c0-1.1,0.4-2.2,1.1-3c0.8-0.8,1.8-1.2,2.9-1.2c1.1,0,2.1,0.4,2.9,1.2c1.5,1.7,1.5,4.3,0,6
		c-0.7,0.8-1.8,1.2-2.9,1.2c-1.1,0-2.1-0.4-2.9-1.2C204.4,146.5,204,145.4,204,144.3z M205.5,144.3c0,0.8,0.2,1.5,0.7,2
		c1,1,2.5,1,3.5,0.1c0,0,0.1-0.1,0.1-0.1c1-1.2,1-2.9,0-4.1c-0.9-1-2.5-1.1-3.5-0.2c-0.1,0-0.1,0.1-0.2,0.2
		C205.8,142.9,205.5,143.6,205.5,144.3L205.5,144.3z"/>
	<path class="st0" d="M213.3,140.4h1.4v1.1h0.1c0.2-0.4,0.6-0.8,1-1c0.4-0.3,0.9-0.4,1.4-0.4c0.8-0.1,1.6,0.2,2.2,0.8
		c0.6,0.7,0.8,1.5,0.8,2.3v5h-1.5v-4.8c0.1-0.9-0.6-1.8-1.5-1.9c-0.1,0-0.3,0-0.4,0c-0.6,0-1.1,0.3-1.5,0.7
		c-0.4,0.5-0.6,1.1-0.6,1.7v4.3h-1.5L213.3,140.4L213.3,140.4z"/>
	<path class="st0" d="M224.6,148.4c-0.6,0-1.2-0.2-1.6-0.6c-0.4-0.4-0.7-1-0.6-1.6v-4.4H221v-1.3h1.4V138h1.5v2.4h1.9v1.3h-1.9v3.9
		c0,0.4,0.1,0.8,0.3,1.1c0.2,0.2,0.4,0.3,0.7,0.3c0.1,0,0.2,0,0.3,0c0.1,0,0.2-0.1,0.3-0.1l0.5,1.3
		C225.5,148.3,225.1,148.4,224.6,148.4z"/>
	<path class="st0" d="M230.6,148.5c-1.1,0-2.1-0.4-2.8-1.2c-0.8-0.8-1.2-1.9-1.1-3c0-1.1,0.4-2.2,1.1-3c1.5-1.5,4-1.6,5.5-0.1
		c0,0,0,0,0,0c0.7,0.9,1.1,2,1,3.2v0.2h-6.1c0,0.7,0.3,1.4,0.8,1.9c1,1,2.5,0.9,3.5,0c0.2-0.2,0.4-0.4,0.5-0.7l1.3,0.6
		c-0.3,0.6-0.8,1.2-1.5,1.5C232.1,148.3,231.3,148.5,230.6,148.5z M228.2,143.4h4.5c0-0.5-0.3-1-0.7-1.3c-0.4-0.4-1-0.6-1.6-0.5
		c-0.5,0-1,0.2-1.4,0.5C228.6,142.4,228.3,142.9,228.2,143.4L228.2,143.4z"/>
	<path class="st0" d="M242.5,148.2h-1.4v-1.1H241c-0.2,0.4-0.6,0.8-1,1c-0.4,0.3-0.9,0.4-1.4,0.4c-0.8,0.1-1.6-0.2-2.2-0.8
		c-0.6-0.6-0.8-1.5-0.8-2.3v-5h1.5v4.8c-0.1,0.9,0.6,1.8,1.5,1.9c0.1,0,0.3,0,0.4,0c0.6,0,1.1-0.3,1.5-0.7c0.4-0.5,0.6-1.1,0.6-1.7
		v-4.3h1.5L242.5,148.2L242.5,148.2z M240.7,136.8l-1.2,2h-1.3l0.8-2H240.7L240.7,136.8z"/>
	<path class="st0" d="M247.5,148.5c-1,0-2-0.4-2.6-1.2c-1.4-1.7-1.4-4.2,0-5.9c0.7-0.8,1.6-1.2,2.6-1.2c0.5,0,1.1,0.1,1.6,0.4
		c0.4,0.2,0.8,0.6,1.1,1h0v-1.1v-3.6h1.5v11.4h-1.5v-1.1l0,0c-0.3,0.4-0.6,0.8-1.1,1C248.6,148.4,248,148.5,247.5,148.5z
		 M247.7,147.2c0.7,0,1.3-0.3,1.8-0.8c1-1.2,1-2.9,0-4.1c-0.4-0.5-1.1-0.8-1.8-0.8c-0.7,0-1.3,0.3-1.8,0.8c-0.5,0.5-0.7,1.3-0.7,2
		c0,0.7,0.2,1.4,0.7,2C246.4,146.8,247,147.1,247.7,147.2L247.7,147.2z"/>
	<path class="st0" d="M252.8,144.3c0-1.1,0.4-2.2,1.1-3c0.8-0.8,1.8-1.2,2.9-1.2c1.1,0,2.1,0.4,2.9,1.2c1.5,1.7,1.5,4.3,0,6
		c-0.7,0.8-1.8,1.2-2.9,1.2c-1.1,0-2.1-0.4-2.9-1.2C253.2,146.5,252.8,145.4,252.8,144.3z M254.3,144.3c0,0.8,0.2,1.5,0.7,2
		c1,1,2.5,1,3.5,0.1c0,0,0.1-0.1,0.1-0.1c1-1.2,1-2.9,0-4.1c-0.9-1-2.5-1.1-3.5-0.2c-0.1,0-0.1,0.1-0.2,0.2
		C254.6,142.9,254.3,143.6,254.3,144.3L254.3,144.3z"/>
</g>
</svg>
