<?xml version="1.0" encoding="utf-8"?>
<!-- Generator: Adobe Illustrator 19.2.1, SVG Export Plug-In . SVG Version: 6.00 Build 0)  -->
<svg version="1.1" xmlns="http://www.w3.org/2000/svg" xmlns:xlink="http://www.w3.org/1999/xlink" x="0px" y="0px"
	 viewBox="0 0 660 616.8" style="enable-background:new 0 0 660 616.8;" xml:space="preserve">
<style type="text/css">
	.st0{clip-path:url(#SVGID_2_);}
	.st1{fill:none;stroke:#83B79F;stroke-width:4;stroke-miterlimit:10;}
	.st2{fill:#BED9CD;}
	.st3{fill:#83B79F;}
	.st4{fill:#3E5B9F;}
	.st5{fill:#C64D2E;}
	.st6{fill:#DEAD31;}
	.st7{fill:#81AD38;}
	.st8{fill:#E5E9EC;}
	.st9{fill:#B3CDE1;}
	.st10{fill:#A3BACD;}
	.st11{fill:#FFFFFF;}
	.st12{fill:#303B8B;}
	.st13{fill:#DEAD31;stroke:#211915;stroke-width:5;stroke-miterlimit:10;}
	.st14{fill:none;stroke:#211915;stroke-width:5;stroke-miterlimit:10;}
	.st15{fill:#D5B2D1;}
	.st16{fill:none;stroke:#211915;stroke-width:4;stroke-miterlimit:10;}
	.st17{fill:#AD448E;}
	.st18{clip-path:url(#SVGID_4_);}
	.st19{fill:none;stroke:#B3CDE1;stroke-width:4;stroke-miterlimit:10;}
	.st20{fill:none;stroke:#FFFFFF;stroke-width:4;stroke-miterlimit:10;}
	.st21{fill:none;stroke:#AC7F23;stroke-width:4;stroke-miterlimit:10;}
	.st22{fill:#AA2520;}
	.st23{fill:#A3659F;}
	.st24{fill:#A187B6;}
	.st25{fill:#857FB3;}
	.st26{fill:#6EB5E5;}
	.st27{fill:#AC7F23;}
	.st28{fill:#D07728;}
	.st29{fill:#21207F;}
	.st30{fill:#211915;}
	.st31{fill:#AD448E;stroke:#211915;stroke-width:4;stroke-miterlimit:10;}
	.st32{fill:none;stroke:#211915;stroke-width:2;stroke-miterlimit:10;}
	.st33{fill:none;stroke:#211915;stroke-width:2;stroke-miterlimit:10;stroke-dasharray:3.9078,3.3495;}
	.st34{fill:none;stroke:#211915;stroke-width:2;stroke-miterlimit:10;stroke-dasharray:6.9734,5.9772;}
	.st35{fill:none;stroke:#211915;stroke-width:2;stroke-miterlimit:10;stroke-dasharray:7.0688,6.0589;}
	.st36{fill:none;stroke:#211915;stroke-width:2;stroke-miterlimit:10;stroke-dasharray:7.1392,6.1194;}
	.st37{fill:none;stroke:#211915;stroke-width:2;stroke-miterlimit:10;stroke-dasharray:7.1972,6.169;}
	.st38{fill:none;stroke:#211915;stroke-width:2;stroke-miterlimit:10;stroke-dasharray:6.727,5.766;}
	.st39{fill:none;stroke:#211915;stroke-width:2;stroke-miterlimit:10;stroke-dasharray:4.3608,3.7379;}
	.st40{clip-path:url(#SVGID_6_);}
	.st41{fill:none;stroke:#211915;stroke-width:2;stroke-miterlimit:10;stroke-dasharray:7.0948,6.0813;}
	.st42{fill:none;stroke:#211915;stroke-width:2;stroke-miterlimit:10;stroke-dasharray:7.1535,6.1316;}
	.st43{fill:none;stroke:#211915;stroke-width:2;stroke-miterlimit:10;stroke-dasharray:7.4446,6.3811;}
	.st44{fill:none;}
	.st45{font-family:'Roboto-Light';}
	.st46{font-size:21px;}
	.st47{font-family:'Roboto-Bold';}
	.st48{font-family:'Roboto-Regular';}
	.st49{fill:#010002;}
	.st50{fill:#FFFFFF;stroke:#211915;stroke-width:5;stroke-miterlimit:10;}
	.st51{font-family:'Roboto-BoldCondensed';}
	.st52{font-size:36.5425px;}
	.st53{fill:#B3CDE1;stroke:#000000;stroke-width:2;stroke-miterlimit:10;}
	.st54{fill:#793668;}
	.st55{fill:#B3CDE1;stroke:#000000;stroke-width:2;stroke-linecap:round;stroke-linejoin:round;stroke-miterlimit:10;}
	.st56{fill:none;stroke:#000000;stroke-width:2;stroke-miterlimit:10;}
	.st57{fill:#ADC6BB;}
	.st58{fill:#618A77;}
	.st59{fill:#5B5B5F;}
	.st60{fill:#CBCA94;}
</style>
<g id="Layer_2">
	<g>
		<defs>
			<rect id="SVGID_1_" x="748.2" y="486.1" width="552.5" height="75.5"/>
		</defs>
		<clipPath id="SVGID_2_">
			<use xlink:href="#SVGID_1_"  style="overflow:visible;"/>
		</clipPath>
		<g class="st0">
			<line class="st1" x1="785.6" y1="134.3" x2="197.5" y2="722.5"/>
			<line class="st1" x1="805" y1="134.3" x2="216.8" y2="722.5"/>
			<line class="st1" x1="824.3" y1="134.3" x2="236.2" y2="722.5"/>
			<line class="st1" x1="843.7" y1="134.3" x2="255.5" y2="722.5"/>
			<line class="st1" x1="863" y1="134.3" x2="274.9" y2="722.5"/>
			<line class="st1" x1="882.4" y1="134.3" x2="294.2" y2="722.5"/>
			<line class="st1" x1="901.7" y1="134.3" x2="313.6" y2="722.5"/>
			<line class="st1" x1="921.1" y1="134.3" x2="332.9" y2="722.5"/>
			<line class="st1" x1="940.4" y1="134.3" x2="352.3" y2="722.5"/>
			<line class="st1" x1="959.8" y1="134.3" x2="371.6" y2="722.5"/>
			<line class="st1" x1="979.2" y1="134.3" x2="391" y2="722.5"/>
			<line class="st1" x1="998.5" y1="134.3" x2="410.4" y2="722.5"/>
			<line class="st1" x1="1017.9" y1="134.3" x2="429.7" y2="722.5"/>
			<line class="st1" x1="1037.2" y1="134.3" x2="449.1" y2="722.5"/>
			<line class="st1" x1="1056.6" y1="134.3" x2="468.4" y2="722.5"/>
			<line class="st1" x1="1075.9" y1="134.3" x2="487.8" y2="722.5"/>
			<line class="st1" x1="1095.3" y1="134.3" x2="507.1" y2="722.5"/>
			<line class="st1" x1="1114.6" y1="134.3" x2="526.5" y2="722.5"/>
			<line class="st1" x1="1134" y1="134.3" x2="545.8" y2="722.5"/>
			<line class="st1" x1="1153.3" y1="134.3" x2="565.2" y2="722.5"/>
			<line class="st1" x1="1172.7" y1="134.3" x2="584.5" y2="722.5"/>
			<line class="st1" x1="1192" y1="134.3" x2="603.9" y2="722.5"/>
			<line class="st1" x1="1211.4" y1="134.3" x2="623.2" y2="722.5"/>
			<line class="st1" x1="1230.7" y1="134.3" x2="642.6" y2="722.5"/>
		</g>
	</g>
</g>
<g id="Layer_1">
	<rect x="584.3" y="79.5" class="st15" width="56.3" height="56.3"/>
	<rect x="43.4" y="280.8" class="st15" width="573.2" height="90.3"/>
	<polyline class="st16" points="259.6,49.1 73.7,49.1 73.7,135.8 	"/>
	<rect x="53.5" y="116" class="st17" width="553" height="420.1"/>
	<g>
		<defs>
			<rect id="SVGID_3_" x="53.3" y="116" width="553.6" height="461.6"/>
		</defs>
		<clipPath id="SVGID_4_">
			<use xlink:href="#SVGID_3_"  style="overflow:visible;"/>
		</clipPath>
		<g class="st18">
			<line class="st19" x1="81.8" y1="103.7" x2="-506.4" y2="691.8"/>
			<line class="st19" x1="101.1" y1="103.7" x2="-487" y2="691.8"/>
			<line class="st19" x1="120.5" y1="103.7" x2="-467.7" y2="691.8"/>
			<line class="st19" x1="139.9" y1="103.7" x2="-448.3" y2="691.8"/>
			<line class="st19" x1="159.2" y1="103.7" x2="-428.9" y2="691.8"/>
			<line class="st19" x1="178.6" y1="103.7" x2="-409.6" y2="691.8"/>
			<line class="st19" x1="197.9" y1="103.7" x2="-390.2" y2="691.8"/>
			<line class="st19" x1="217.3" y1="103.7" x2="-370.9" y2="691.8"/>
			<line class="st19" x1="236.6" y1="103.7" x2="-351.5" y2="691.8"/>
			<line class="st19" x1="256" y1="103.7" x2="-332.2" y2="691.8"/>
			<line class="st19" x1="275.3" y1="103.7" x2="-312.8" y2="691.8"/>
			<line class="st19" x1="294.7" y1="103.7" x2="-293.5" y2="691.8"/>
			<line class="st19" x1="314" y1="103.7" x2="-274.1" y2="691.8"/>
			<line class="st19" x1="333.4" y1="103.7" x2="-254.8" y2="691.8"/>
			<line class="st19" x1="352.7" y1="103.7" x2="-235.4" y2="691.8"/>
			<line class="st19" x1="372.1" y1="103.7" x2="-216.1" y2="691.8"/>
			<line class="st19" x1="391.4" y1="103.7" x2="-196.7" y2="691.8"/>
			<line class="st19" x1="410.8" y1="103.7" x2="-177.4" y2="691.8"/>
			<line class="st19" x1="430.2" y1="103.7" x2="-158" y2="691.8"/>
			<line class="st19" x1="449.5" y1="103.7" x2="-138.7" y2="691.8"/>
			<line class="st19" x1="468.9" y1="103.7" x2="-119.3" y2="691.8"/>
			<line class="st19" x1="488.2" y1="103.7" x2="-99.9" y2="691.8"/>
			<line class="st19" x1="507.6" y1="103.7" x2="-80.6" y2="691.8"/>
			<line class="st19" x1="526.9" y1="103.7" x2="-61.2" y2="691.8"/>
			<line class="st19" x1="546.3" y1="103.7" x2="-41.9" y2="691.8"/>
			<line class="st19" x1="565.6" y1="103.7" x2="-22.5" y2="691.8"/>
			<line class="st19" x1="585" y1="103.7" x2="-3.2" y2="691.8"/>
			<line class="st19" x1="604.3" y1="103.7" x2="16.2" y2="691.8"/>
			<line class="st19" x1="623.7" y1="103.7" x2="35.5" y2="691.8"/>
			<line class="st19" x1="643" y1="103.7" x2="54.9" y2="691.8"/>
			<line class="st19" x1="662.4" y1="103.7" x2="74.2" y2="691.8"/>
			<line class="st19" x1="681.7" y1="103.7" x2="93.6" y2="691.8"/>
			<line class="st19" x1="701.1" y1="103.7" x2="112.9" y2="691.8"/>
			<line class="st19" x1="720.4" y1="103.7" x2="132.3" y2="691.8"/>
			<line class="st19" x1="739.8" y1="103.7" x2="151.6" y2="691.8"/>
			<line class="st19" x1="759.2" y1="103.7" x2="171" y2="691.8"/>
			<line class="st19" x1="778.5" y1="103.7" x2="190.4" y2="691.8"/>
			<line class="st19" x1="797.9" y1="103.7" x2="209.7" y2="691.8"/>
			<line class="st19" x1="817.2" y1="103.7" x2="229.1" y2="691.8"/>
			<line class="st19" x1="836.6" y1="103.7" x2="248.4" y2="691.8"/>
			<line class="st19" x1="855.9" y1="103.7" x2="267.8" y2="691.8"/>
			<line class="st19" x1="875.3" y1="103.7" x2="287.1" y2="691.8"/>
			<line class="st19" x1="894.6" y1="103.7" x2="306.5" y2="691.8"/>
			<line class="st19" x1="914" y1="103.7" x2="325.8" y2="691.8"/>
			<line class="st19" x1="933.3" y1="103.7" x2="345.2" y2="691.8"/>
			<line class="st19" x1="952.7" y1="103.7" x2="364.5" y2="691.8"/>
			<line class="st19" x1="972" y1="103.7" x2="383.9" y2="691.8"/>
			<line class="st19" x1="991.4" y1="103.7" x2="403.2" y2="691.8"/>
			<line class="st19" x1="1010.7" y1="103.7" x2="422.6" y2="691.8"/>
			<line class="st19" x1="1030.1" y1="103.7" x2="441.9" y2="691.8"/>
			<line class="st19" x1="1049.5" y1="103.7" x2="461.3" y2="691.8"/>
			<line class="st19" x1="1068.8" y1="103.7" x2="480.6" y2="691.8"/>
			<line class="st19" x1="1088.2" y1="103.7" x2="500" y2="691.8"/>
		</g>
	</g>
	<rect x="53.3" y="228.1" class="st17" width="553.6" height="314.7"/>
	<polygon class="st17" points="557.8,254.3 559.3,252.9 556.3,252.9 	"/>
	<polygon class="st9" points="567.1,254.3 568.6,252.9 565.7,252.9 	"/>
	<rect x="53.3" y="176" class="st17" width="276.7" height="361"/>
	<g>
		<polyline class="st14" points="358.5,435.3 368.5,425.7 358.5,416.1 368.5,406.5 358.5,396.8 368.5,387.2 358.5,377.6 368.5,368 
			358.5,358.4 368.5,348.8 358.5,339.1 368.5,329.5 358.5,319.9 368.5,310.3 358.5,300.7 368.5,291.1 358.5,281.4 368.5,271.8 
			358.5,262.2 368.5,252.6 358.5,243 368.5,233.3 		"/>
	</g>
	<g>
		<polygon class="st15" points="420.9,61.9 389.2,30.2 239.3,30.2 239.3,239.1 420.9,239.1 		"/>
	</g>
	<g>
		<path class="st30" d="M387.6,34.2l29.3,29.3v171.5H243.3V34.2H387.6 M389.2,30.2H239.3v208.8h181.5V61.9L389.2,30.2L389.2,30.2z"
			/>
	</g>
	<polyline class="st31" points="418.5,64.8 387.6,64.8 387.6,33.3 	"/>
	<polyline class="st16" points="367.6,252.9 625.7,252.9 625.7,500.3 597.4,500.3 	"/>
	<g>
		<g>
			<line class="st32" x1="53.3" y1="194.4" x2="49.8" y2="194.4"/>
			<line class="st33" x1="46.5" y1="194.4" x2="40.9" y2="194.4"/>
			<polyline class="st32" points="39.2,194.4 35.7,194.4 35.7,197.9 			"/>
			<line class="st34" x1="35.7" y1="203.8" x2="35.7" y2="550.5"/>
			<polyline class="st32" points="35.7,553.5 35.7,557 39.2,557 			"/>
			<line class="st35" x1="45.3" y1="557" x2="331.1" y2="557"/>
			<line class="st32" x1="334.1" y1="557" x2="337.6" y2="557"/>
		</g>
	</g>
	<g>
		<g>
			<line class="st32" x1="545.7" y1="425.5" x2="545.7" y2="422"/>
			<line class="st36" x1="545.7" y1="415.8" x2="545.7" y2="100.7"/>
			<polyline class="st32" points="545.7,97.6 545.7,94.1 549.2,94.1 			"/>
			<line class="st37" x1="555.4" y1="94.1" x2="619.1" y2="94.1"/>
			<polyline class="st32" points="622.2,94.1 625.7,94.1 625.7,97.6 			"/>
			<line class="st38" x1="625.7" y1="103.4" x2="625.7" y2="188"/>
			<polyline class="st32" points="625.7,190.9 625.7,194.4 622.2,194.4 			"/>
			<line class="st39" x1="618.5" y1="194.4" x2="612.2" y2="194.4"/>
			<line class="st32" x1="610.4" y1="194.4" x2="606.9" y2="194.4"/>
		</g>
	</g>
	<g>
		<defs>
			<rect id="SVGID_5_" x="1059.6" y="226.6" width="241" height="75.5"/>
		</defs>
		<clipPath id="SVGID_6_">
			<use xlink:href="#SVGID_5_"  style="overflow:visible;"/>
		</clipPath>
		<g class="st40">
			<line class="st1" x1="1097.1" y1="-125.2" x2="508.9" y2="463"/>
			<line class="st1" x1="1116.4" y1="-125.2" x2="528.3" y2="463"/>
			<line class="st1" x1="1135.8" y1="-125.2" x2="547.6" y2="463"/>
			<line class="st1" x1="1155.1" y1="-125.2" x2="567" y2="463"/>
			<line class="st1" x1="1174.5" y1="-125.2" x2="586.3" y2="463"/>
			<line class="st1" x1="1193.8" y1="-125.2" x2="605.7" y2="463"/>
			<line class="st1" x1="1213.2" y1="-125.2" x2="625" y2="463"/>
			<line class="st1" x1="1232.5" y1="-125.2" x2="644.4" y2="463"/>
		</g>
	</g>
</g>
<g id="Layer_3">
	<rect x="66.8" y="253.3" class="st44" width="252.3" height="283.6"/>
	<text transform="matrix(1 0 0 1 79.8172 269.2834)"><tspan x="0" y="0" class="st11 st45 st46">O </tspan><tspan x="19.2" y="0" class="st11 st47 st46">Marketing de Conteúdo</tspan><tspan x="239.3" y="0" class="st11 st45 st46"> </tspan><tspan x="3.2" y="25.2" class="st11 st45 st46">é uma estratégia que visa </tspan><tspan x="16.7" y="50.4" class="st11 st45 st46">o engajamento com seu </tspan><tspan x="10.6" y="75.6" class="st11 st45 st46">público-alvo por meio da </tspan><tspan x="50" y="100.8" class="st11 st45 st46">criação de </tspan><tspan x="150.5" y="100.8" class="st11 st48 st46">conteúdo </tspan><tspan x="-8.1" y="126" class="st11 st48 st46">relevante e valioso</tspan><tspan x="167.6" y="126" class="st11 st45 st46">, que irá </tspan><tspan x="1.5" y="151.2" class="st11 st45 st46">atrair, fidelizar e converter </tspan><tspan x="-7.3" y="176.4" class="st11 st45 st46">prospects, leads e clientes, </tspan><tspan x="21.6" y="201.6" class="st11 st45 st46">criando uma percepção </tspan><tspan x="59.1" y="226.8" class="st11 st45 st46">positiva da marca e </tspan><tspan x="18.8" y="252" class="st11 st45 st46">gerando mais negócios.</tspan></text>
	<g>
		<line class="st50" x1="381.9" y1="301.1" x2="381.9" y2="237.3"/>
		<line class="st50" x1="392" y1="301.1" x2="392" y2="237.3"/>
		<line class="st50" x1="402.1" y1="270.7" x2="402.1" y2="237.3"/>
	</g>
	<line class="st50" x1="228.8" y1="39.1" x2="228.8" y2="87.6"/>
	<line class="st50" x1="218.8" y1="39.1" x2="218.8" y2="72.4"/>
	<line class="st50" x1="208.7" y1="39.1" x2="208.7" y2="72.4"/>
	<g>
		<rect x="339.6" y="425.7" class="st15" width="255.3" height="141.2"/>
		<path class="st30" d="M592.4,428.2v136.2H342.1V428.2H592.4 M597.4,423.2H337.1v146.2h260.3V423.2L597.4,423.2z"/>
	</g>
	<text transform="matrix(1 0 0 1 354.531 469.9551)"><tspan x="0" y="0" class="st29 st51 st52">o que é</tspan><tspan x="0" y="39.2" class="st29 st51 st52">marketing</tspan><tspan x="0" y="78.3" class="st29 st51 st52">de conteúdo?</tspan></text>
</g>
<g id="Layer_4">
	<g>
		<g>
			<path class="st9" d="M506.7,122.5c0,0-20.7-8-32.6-9.9s-52.2-11.4-67.2-8.8c-15,2.6-18.6,14.3-18.6,14.3l-8.3,26.3l4.8,1.6
				l3.5,1.1l3.8-1.1l-0.1-0.7c2.1,1.3,9.7,5.8,11.6,4.4c1.1-0.9,0.4-3-0.8-5.2c4,2.3,9.5,5,11.2,3.5c1.4-1.3-0.9-5.3-3-8.5
				c5.9,1.2,14.5,2.2,9.8-4c0,0,13.9,3.2,15.2,1.8c1.3-1.4-0.2-5.4-1.9-7.2c-1.6-1.7-5.7-5.4-5.7-5.4l6.3,0.8l30.4,9.9l5.8-0.2
				l-13.6-11.2l-6.4-5.3l35.7,3.9L506.7,122.5z"/>
		</g>
		<g>
			<path class="st9" d="M153.2,122.5c0,0,20.7-8,32.6-9.9s52.2-11.4,67.2-8.8c15,2.6,18.6,14.3,18.6,14.3l8.2,25.9l-4.7,2l-3.5,1.1
				l-3.8-1.1l0.1-0.7c-2.1,1.3-9.7,5.8-11.6,4.4c-1.1-0.9-0.4-3,0.8-5.2c-4,2.3-9.5,5-11.2,3.5c-1.4-1.3,0.9-5.3,3-8.5
				c-5.9,1.2-14.5,2.2-9.8-4c0,0-13.9,3.2-15.2,1.8c-1.3-1.4,0.2-5.4,1.9-7.2c1.6-1.7,5.7-5.4,5.7-5.4l-6.3,0.8l-30.4,9.9l-5.8-0.2
				l13.6-11.2l6.4-5.3l-35.7,3.9L153.2,122.5z"/>
		</g>
	</g>
	<g>
		<path class="st9" d="M348.2,188.2c2.1-1.7,2.3-4.8,2.6-7.5c0.9-9.5,7.4-18.1,7.4-18.1c5-5.3,9.1-11.5,12.1-18.2
			c0.8-1.9,2.9-8.2,3.3-16.7c0.7-13.3-4.1-26.7-14.3-35.2c-13.5-11.2-40.4-16.1-58.5,0c-9.9,8.8-14.9,21.9-14.3,35.2
			c0.4,8.5,2.4,14.8,3.3,16.7c3,6.7,7.1,12.9,12.1,18.2c0,0,6.5,8.7,7.4,18.1c0.2,2.7,0.4,5.9,2.6,7.5
			C320.1,194.4,340.4,194.7,348.2,188.2z"/>
	</g>
	<path class="st54" d="M313.7,190.4l4.2,17.1l5,3.2l11.8,1.1c0,0,7.3-3.5,7.4-3.5c0.1,0,1.5-6.5,1.5-6.5l1.5-4.7l1.4-7.6l-8,2.9
		l-9.1,0.7L313.7,190.4z"/>
	<g>
		<g>
			<path d="M313.4,196.4c0.3,4.1,1,6.8,4.8,8.9c3.6,2,7.9,2.7,12,2.7c3.8,0,7.9-0.6,11.3-2.4c3.9-2,4.8-5,5.1-9.2
				c0.2-1.9-2.8-1.9-3,0c-0.4,4.2-2,6.2-5.9,7.5c-2.4,0.8-5,1.1-7.6,1.1c-6.1,0-13.2-1.2-13.8-8.6
				C316.2,194.5,313.2,194.4,313.4,196.4L313.4,196.4z"/>
		</g>
	</g>
	<g>
		<g>
			<path d="M315.1,202.7c0.3,3.3,0.7,5.8,3.7,7.7c3.1,2,7.1,2.7,10.7,2.8c3.5,0.1,7.2-0.4,10.4-2c3.7-1.8,4.6-4.6,5-8.6
				c0.2-1.9-2.8-1.9-3,0c-0.6,6.4-6.9,7.7-12.4,7.5c-5.2-0.2-10.9-1.4-11.4-7.5C317.9,200.8,314.9,200.8,315.1,202.7L315.1,202.7z"
				/>
		</g>
	</g>
	<g>
		<path class="st55" d="M392,145.5c2.1,1.3,9.7,5.8,11.6,4.4c1.1-0.9,0.4-3-0.8-5.2c4,2.3,9.5,5,11.2,3.5c1.4-1.3-0.9-5.3-3-8.5
			c5.9,1.2,14.5,2.2,9.8-4"/>
		<path class="st55" d="M267.1,145.5c-2.1,1.3-9.7,5.8-11.6,4.4c-1.1-0.9-0.4-3,0.8-5.2c-4,2.3-9.5,5-11.2,3.5
			c-1.4-1.3,0.9-5.3,3-8.5c-5.9,1.2-14.5,2.2-9.8-4"/>
	</g>
	<g>
		<g>
			<g>
				<path d="M285.2,154.7c-3.3-8.6-6-17.5-9-26.3c-2.2-6.5-4.1-14.9-9.1-20c-9.4-9.7-26.6-5.9-38.4-4.4
					c-25.4,3.2-51.9,8.1-75.9,17.1c-1.6,0.6-1.3,2.7,0.4,2.9c15.2,1.9,30.6-0.4,45.7-2.4c16-2.1,32-3.9,48.1-4.1
					c-0.4-0.9-0.7-1.7-1.1-2.6c-4.6,4.1-8.2,11.2-0.8,14.7c5.4,2.6,13,2.1,18.3-0.4c1.7-0.8,0.2-3.4-1.5-2.6
					c-3.4,1.6-11.4,7.8-9.1,12.3c3,5.7,14.8-0.4,18.7-1.5c-0.6-0.7-1.1-1.5-1.7-2.2c-2,2.9-5.2,7.4-2.5,10.9c2.5,3.2,6.9,2,9.9,0.5
					c1.7-0.9,0.2-3.4-1.5-2.6c-2.7,1.3-6.9,0.1-5.7-3.4c0.5-1.4,1.5-2.7,2.3-3.9c0.8-1.1-0.5-2.5-1.7-2.2c-3.7,1-9.5,4.4-13.4,3.6
					c-3.5-0.8-0.4-3.7,1.1-5.2c1.4-1.5,3.1-2.9,4.9-3.7c-0.5-0.9-1-1.7-1.5-2.6c-3.5,1.7-7.7,1.9-11.5,1.3c-1.6-0.2-4-0.6-5.2-1.8
					c-3.1-3.2,0.3-6.8,2.9-9.1c1-0.9,0.2-2.6-1.1-2.6c-16.1,0.1-32.1,2-48.1,4.1c-15.1,2-30.5,4.3-45.7,2.4c0.1,1,0.3,2,0.4,2.9
					c21.6-8.1,45.2-12.6,68-16c6.7-1,13.5-1.8,20.3-2.4c7.2-0.6,15.1-1.2,21.3,3.3c6.3,4.5,8.4,15.1,10.7,22.1
					c2.7,8.2,5.3,16.5,8.4,24.5C283,157.3,285.9,156.5,285.2,154.7L285.2,154.7z"/>
			</g>
		</g>
		<g>
			<g>
				<path d="M377.7,155.5c3.1-8.1,5.7-16.3,8.4-24.5c2.3-7,4.4-17.5,10.7-22.1c6-4.3,13.6-3.9,20.6-3.4c7,0.5,14,1.4,21,2.4
					c22.8,3.4,46.3,7.9,68,16c0.1-1,0.3-2,0.4-2.9c-15.2,1.9-30.6-0.4-45.7-2.4c-16-2.1-32-3.9-48.1-4.1c-1.3,0-2,1.7-1.1,2.6
					c2.2,2,6,5.6,3.4,8.7c-1.2,1.5-4,1.9-5.7,2.2c-3.8,0.6-8,0.3-11.5-1.3c-0.5,0.9-1,1.7-1.5,2.6c1.7,0.8,3.2,2,4.5,3.3
					c1.5,1.4,5.3,4.7,1.5,5.6c-3.8,0.9-9.7-2.6-13.4-3.6c-1.2-0.3-2.4,1.1-1.7,2.2c1,1.5,5.6,8.1,0.3,8.8c-1.1,0.2-2.7-1.1-3.6-1.6
					c-1.7-0.9-3.2,1.7-1.5,2.6c2.6,1.4,6.4,3.3,9,0.9c3.6-3.4,0.5-9.1-1.6-12.2c-0.6,0.7-1.1,1.5-1.7,2.2c4,1.1,15.7,7.2,18.7,1.5
					c2.4-4.5-5.7-10.8-9.1-12.3c-1.7-0.8-3.3,1.8-1.5,2.6c5.3,2.5,12.9,3,18.3,0.4c7.3-3.5,3.8-10.5-0.8-14.7
					c-0.4,0.9-0.7,1.7-1.1,2.6c16.1,0.1,32.1,2,48.1,4.1c15.1,2,30.5,4.3,45.7,2.4c1.7-0.2,2-2.3,0.4-2.9
					c-24.1-9-50.5-13.8-75.9-17.1c-11.7-1.5-29.1-5.4-38.4,4.4c-4.9,5.1-6.8,13.5-9.1,20c-3,8.8-5.7,17.6-9,26.3
					C374.1,156.5,377,157.3,377.7,155.5L377.7,155.5z"/>
			</g>
		</g>
	</g>
	<g>
		<g>
			<g>
				<path d="M212,116.9c-8,4.8-17.5,10.2-23.3,17.6c-0.5,0.6-0.7,1.5,0,2.1c4,3.5,13.6-1.2,17.7-2.5c9.3-2.9,18.5-6.2,27.7-9.7
					c-0.4-0.9-0.8-1.8-1.2-2.7c-0.1,0-0.1,0.1-0.2,0.1c-0.7,0.4-0.9,1.3-0.5,2.1c0.1,0.2,0.2,0.3,0.3,0.5c0.4,0.8,1.3,0.9,2.1,0.5
					c0.1,0,0.1-0.1,0.2-0.1c-0.6-0.8-1.2-1.6-1.8-2.4c-2.7,2.3-15.7,12.2-9.8,16.7c1.6,1.2,3.9,0.8,5.7,0.5
					c6.6-0.9,13.1-2.8,19.4-5.1c1.8-0.7,1-3.6-0.8-2.9c-3.4,1.3-6.9,2.4-10.4,3.3c-2.9,0.7-6.7,2.2-9.7,1.9c-4.3-0.4-0.9-4.1,1-6.2
					c2-2.2,4.4-4.1,6.7-6c1.4-1.2-0.4-3-1.8-2.4c-0.1,0-0.1,0.1-0.2,0.1c0.7,0.2,1.4,0.4,2.1,0.5c-0.1-0.2-0.2-0.3-0.3-0.5
					c-0.2,0.7-0.4,1.4-0.5,2.1c0.1,0,0.1-0.1,0.2-0.1c1.4-0.9,0.5-3.4-1.2-2.7c-7.3,2.8-14.6,5.4-22,7.8c-3.6,1.2-7.2,2.3-10.8,3.4
					c-1.7,0.5-8,3.1-9.7,1.7c0,0.7,0,1.4,0,2.1c5.7-7.2,14.9-12.5,22.7-17.1C215.2,118.5,213.7,115.9,212,116.9L212,116.9z"/>
			</g>
		</g>
		<g>
			<g>
				<path d="M447,119.5c7.8,4.7,17,9.9,22.7,17.1c0-0.7,0-1.4,0-2.1c-1.6,1.4-7.9-1.2-9.7-1.7c-3.6-1.1-7.2-2.2-10.8-3.4
					c-7.4-2.4-14.7-5.1-22-7.8c-1.6-0.6-2.6,1.9-1.2,2.7c0.1,0,0.1,0.1,0.2,0.1c-0.2-0.7-0.4-1.4-0.5-2.1c-0.1,0.2-0.2,0.3-0.3,0.5
					c0.7-0.2,1.4-0.4,2.1-0.5c-0.1,0-0.1-0.1-0.2-0.1c-1.4-0.6-3.2,1.1-1.8,2.4c2.3,2,4.7,3.8,6.7,6c1.9,2,5.3,5.8,1,6.2
					c-2.9,0.3-6.9-1.2-9.7-1.9c-3.5-0.9-7-2-10.4-3.3c-1.8-0.7-2.6,2.2-0.8,2.9c6.2,2.4,12.7,4.2,19.4,5.1c1.8,0.2,4.1,0.7,5.7-0.5
					c6-4.4-7.1-14.4-9.8-16.7c-0.6,0.8-1.2,1.6-1.8,2.4c0.1,0,0.1,0.1,0.2,0.1c0.7,0.3,1.6,0.2,2.1-0.5c0.1-0.2,0.2-0.3,0.3-0.5
					c0.4-0.7,0.2-1.6-0.5-2.1c-0.1,0-0.1-0.1-0.2-0.1c-0.4,0.9-0.8,1.8-1.2,2.7c9.1,3.5,18.4,6.7,27.7,9.7
					c4.1,1.3,13.6,6.1,17.7,2.5c0.7-0.6,0.5-1.5,0-2.1c-5.9-7.4-15.4-12.8-23.3-17.6C446.8,115.9,445.3,118.5,447,119.5L447,119.5z"
					/>
			</g>
		</g>
	</g>
	<g>
		<g>
			<path d="M349.2,189.3c3.6-3.9,2.7-9.5,4.2-14.3c1.4-4.6,3.7-9,6.8-12.6c7.3-8.6,12.7-17.9,14.2-29.2c3.1-22.7-8.4-43.7-30.8-50.4
				c-21.9-6.5-45.9,2.5-55.1,24.1c-4.6,10.7-4.7,23-1.6,34.2c1.3,4.6,3.6,8.9,6.2,12.9c2.7,4.2,6.4,7.6,9,11.9
				c1.7,2.8,3.2,5.9,4.2,9.1c1.1,3.4,0.9,6.9,1.9,10.3c1.4,4.5,5.7,6.4,10,7.6c9.4,2.7,22.5,2.8,30.6-3.3c1.5-1.2,0-3.8-1.5-2.6
				c-7.2,5.5-18.6,5.5-27.1,3.4c-2-0.5-4.3-1.1-6.1-2.3c-3.1-2.1-3.2-4.8-3.6-8.1c-0.6-4.4-2.1-8.6-4.1-12.6
				c-4.1-8-10.9-13.9-14.8-22.2c-4.1-8.9-4.9-20.1-2.8-29.6c5.2-23,27.6-35.6,50.2-30.8c22.2,4.8,34.9,24,32.6,46.4
				c-1.3,12.5-7.4,21-14.9,30.6c-1.9,2.4-3.3,5.2-4.5,7.9c-1.1,2.4-2,4.9-2.5,7.5c-0.7,3.3-0.2,7.2-2.7,9.9
				C345.8,188.6,347.9,190.7,349.2,189.3z"/>
		</g>
	</g>
	<g>
		<g>
			<path d="M311.9,190.3c0.4,4.4,1.4,7.1,5.5,9c3.9,1.9,8.5,2.5,12.8,2.5c4.2,0,8.8-0.6,12.6-2.5c3.9-2,4.9-4.9,5.3-9.1
				c0.2-1.9-2.8-1.9-3,0c-0.5,4.6-2.5,6.3-6.6,7.5c-2.7,0.8-5.5,1.1-8.3,1.1c-6.3,0-14.5-1-15.2-8.6
				C314.7,188.4,311.7,188.4,311.9,190.3L311.9,190.3z"/>
		</g>
	</g>
	<g>
		<g>
			<g>
				<path d="M308.1,138.7c0.2,4.9,0,10,0.8,14.8c0.5,3.2,2.2,4.8,4.5,6.9c3.9,3.5,4.2,7.1,4.8,12.1c0.7,5.1,1.4,10.2,2.1,15.3
					c0.3,1.9,3.1,1.1,2.9-0.8c-0.6-4.8-1.3-9.6-1.9-14.4c-0.4-3.3-0.5-7.2-2.1-10.2c-1.4-2.7-4.2-3.8-6-6.1
					c-2.9-3.9-1.8-12.8-2.1-17.5C311,136.7,308,136.7,308.1,138.7L308.1,138.7z"/>
			</g>
		</g>
		<g>
			<g>
				<path d="M348.2,138.7c-0.2,4.7,0.9,13.6-2.1,17.5c-1.8,2.3-4.6,3.4-6,6.1c-1.6,3-1.6,6.9-2.1,10.2c-0.6,4.8-1.3,9.6-1.9,14.4
					c-0.3,1.9,2.6,2.7,2.9,0.8c0.6-4.8,1.3-9.6,1.9-14.4c0.7-5.2,0.8-9.2,4.9-12.9c2.3-2,4-3.6,4.5-6.7c0.8-4.8,0.6-10.1,0.8-15
					C351.3,136.7,348.3,136.7,348.2,138.7L348.2,138.7z"/>
			</g>
		</g>
	</g>
	<g>
		<g>
			<path d="M331.5,67.5c0-6.9,0-13.9,0-20.8c0-1.9-3-1.9-3,0c0,6.9,0,13.9,0,20.8C328.5,69.4,331.5,69.4,331.5,67.5L331.5,67.5z"/>
		</g>
	</g>
	<g>
		<g>
			<path d="M279.1,89.6c-6.2-5-12.3-10.1-18.5-15.1c-1.5-1.2-3.6,0.9-2.1,2.1c6.2,5,12.3,10.1,18.5,15.1
				C278.4,93,280.6,90.8,279.1,89.6L279.1,89.6z"/>
		</g>
	</g>
	<g>
		<g>
			<path d="M300.7,72c-2-3.4-3.9-6.8-5.9-10.2c-1-1.7-3.6-0.2-2.6,1.5c2,3.4,3.9,6.8,5.9,10.2C299.1,75.1,301.7,73.6,300.7,72
				L300.7,72z"/>
		</g>
	</g>
	<g>
		<g>
			<path d="M383,91.7c6.2-5,12.3-10.1,18.5-15.1c1.5-1.2-0.6-3.3-2.1-2.1c-6.2,5-12.3,10.1-18.5,15.1C379.4,90.8,381.5,93,383,91.7
				L383,91.7z"/>
		</g>
	</g>
	<g>
		<g>
			<path d="M361.9,73.5c2-3.4,3.9-6.8,5.9-10.2c1-1.7-1.6-3.2-2.6-1.5c-2,3.4-3.9,6.8-5.9,10.2C358.3,73.6,360.9,75.1,361.9,73.5
				L361.9,73.5z"/>
		</g>
	</g>
	<g>
		<g>
			<path d="M268.5,161.3c-3.7,1.2-7.4,2.5-11.2,3.7c-1.8,0.6-1,3.5,0.8,2.9c3.7-1.2,7.4-2.5,11.2-3.7
				C271.1,163.6,270.3,160.7,268.5,161.3L268.5,161.3z"/>
		</g>
	</g>
	<g>
		<g>
			<path d="M279.8,180.3c-6.2,6.2-12.3,12.3-18.5,18.5c-1.4,1.4,0.8,3.5,2.1,2.1c6.2-6.2,12.3-12.3,18.5-18.5
				C283.3,181.1,281.2,179,279.8,180.3L279.8,180.3z"/>
		</g>
	</g>
	<g>
		<g>
			<path d="M297,193.6c-2,3.4-3.9,6.8-5.9,10.2c-1,1.7,1.6,3.2,2.6,1.5c2-3.4,3.9-6.8,5.9-10.2C300.5,193.4,297.9,191.9,297,193.6
				L297,193.6z"/>
		</g>
	</g>
	<g>
		<g>
			<path d="M390.7,164.2c3.7,1.2,7.4,2.5,11.2,3.7c1.8,0.6,2.6-2.3,0.8-2.9c-3.7-1.2-7.4-2.5-11.2-3.7
				C389.6,160.7,388.9,163.6,390.7,164.2L390.7,164.2z"/>
		</g>
	</g>
	<g>
		<g>
			<path d="M378,182.5c6.2,6.2,12.3,12.3,18.5,18.5c1.4,1.4,3.5-0.8,2.1-2.1c-6.2-6.2-12.3-12.3-18.5-18.5
				C378.8,179,376.7,181.1,378,182.5L378,182.5z"/>
		</g>
	</g>
	<g>
		<g>
			<path d="M360.4,195.1c2,3.4,3.9,6.8,5.9,10.2c1,1.7,3.6,0.2,2.6-1.5c-2-3.4-3.9-6.8-5.9-10.2
				C362.1,191.9,359.5,193.4,360.4,195.1L360.4,195.1z"/>
		</g>
	</g>
	<g>
		<polyline class="st56" points="313.5,137.9 316.7,141.9 319.9,137.9 323.2,141.9 326.4,137.9 329.6,141.9 332.9,137.9 
			336.1,141.9 339.3,137.9 342.6,141.9 345.8,137.9 		"/>
	</g>
</g>
</svg>
