<?xml version="1.0" encoding="utf-8"?>
<!-- Generator: Adobe Illustrator 19.2.1, SVG Export Plug-In . SVG Version: 6.00 Build 0)  -->
<svg version="1.1" xmlns="http://www.w3.org/2000/svg" xmlns:xlink="http://www.w3.org/1999/xlink" x="0px" y="0px"
	 viewBox="0 0 660 616.8" style="enable-background:new 0 0 660 616.8;" xml:space="preserve">
<style type="text/css">
	.st0{clip-path:url(#SVGID_2_);}
	.st1{fill:none;stroke:#83B79F;stroke-width:4;stroke-miterlimit:10;}
	.st2{fill:#BED9CD;}
	.st3{fill:#83B79F;}
	.st4{fill:#3E5B9F;}
	.st5{fill:#C64D2E;}
	.st6{fill:#DEAD31;}
	.st7{fill:#81AD38;}
	.st8{fill:#E5E9EC;}
	.st9{fill:#B3CDE1;}
	.st10{fill:#A3BACD;}
	.st11{fill:#FFFFFF;}
	.st12{fill:#303B8B;}
	.st13{fill:#DEAD31;stroke:#211915;stroke-width:5;stroke-miterlimit:10;}
	.st14{fill:none;stroke:#211915;stroke-width:5;stroke-miterlimit:10;}
	.st15{fill:#D5B2D1;}
	.st16{fill:none;stroke:#211915;stroke-width:4;stroke-miterlimit:10;}
	.st17{fill:#AD448E;}
	.st18{clip-path:url(#SVGID_4_);}
	.st19{fill:none;stroke:#B3CDE1;stroke-width:4;stroke-miterlimit:10;}
	.st20{fill:none;stroke:#FFFFFF;stroke-width:4;stroke-miterlimit:10;}
	.st21{fill:none;stroke:#AC7F23;stroke-width:4;stroke-miterlimit:10;}
	.st22{fill:#AA2520;}
	.st23{fill:#A3659F;}
	.st24{fill:#A187B6;}
	.st25{fill:#857FB3;}
	.st26{fill:#6EB5E5;}
	.st27{fill:#AC7F23;}
	.st28{fill:#D07728;}
	.st29{fill:#21207F;}
	.st30{fill:#211915;}
	.st31{fill:#AD448E;stroke:#211915;stroke-width:4;stroke-miterlimit:10;}
	.st32{fill:none;stroke:#211915;stroke-width:2;stroke-miterlimit:10;}
	.st33{fill:none;stroke:#211915;stroke-width:2;stroke-miterlimit:10;stroke-dasharray:3.9078,3.3495;}
	.st34{fill:none;stroke:#211915;stroke-width:2;stroke-miterlimit:10;stroke-dasharray:6.9734,5.9772;}
	.st35{fill:none;stroke:#211915;stroke-width:2;stroke-miterlimit:10;stroke-dasharray:7.0688,6.0589;}
	.st36{fill:none;stroke:#211915;stroke-width:2;stroke-miterlimit:10;stroke-dasharray:7.1392,6.1194;}
	.st37{fill:none;stroke:#211915;stroke-width:2;stroke-miterlimit:10;stroke-dasharray:7.1972,6.169;}
	.st38{fill:none;stroke:#211915;stroke-width:2;stroke-miterlimit:10;stroke-dasharray:6.727,5.766;}
	.st39{fill:none;stroke:#211915;stroke-width:2;stroke-miterlimit:10;stroke-dasharray:4.3608,3.7379;}
	.st40{clip-path:url(#SVGID_6_);}
	.st41{fill:none;stroke:#211915;stroke-width:2;stroke-miterlimit:10;stroke-dasharray:7.0948,6.0813;}
	.st42{fill:none;stroke:#211915;stroke-width:2;stroke-miterlimit:10;stroke-dasharray:7.1535,6.1316;}
	.st43{fill:none;stroke:#211915;stroke-width:2;stroke-miterlimit:10;stroke-dasharray:7.4446,6.3811;}
	.st44{fill:#010002;}
	.st45{fill:#FFFFFF;stroke:#211915;stroke-width:5;stroke-miterlimit:10;}
	.st46{font-family:'Roboto-BoldCondensed';}
	.st47{font-size:36.5425px;}
	.st48{fill:#B3CDE1;stroke:#000000;stroke-width:2;stroke-miterlimit:10;}
	.st49{fill:#793668;}
	.st50{fill:#B3CDE1;stroke:#000000;stroke-width:2;stroke-linecap:round;stroke-linejoin:round;stroke-miterlimit:10;}
	.st51{fill:none;stroke:#000000;stroke-width:2;stroke-miterlimit:10;}
	.st52{font-family:'Roboto-MediumItalic';}
	.st53{font-size:14px;}
	.st54{font-family:'Roboto-BlackItalic';}
	.st55{font-size:51.6146px;}
	.st56{letter-spacing:-3;}
	.st57{letter-spacing:-2;}
	.st58{font-family:'Roboto-Light';}
	.st59{font-size:12px;}
	.st60{fill:#ADC6BB;}
	.st61{fill:#618A77;}
	.st62{fill:#5B5B5F;}
	.st63{fill:#CBCA94;}
</style>
<g id="Layer_2">
	<g>
		<defs>
			<rect id="SVGID_1_" x="54" y="486.1" width="552.5" height="75.5"/>
		</defs>
		<clipPath id="SVGID_2_">
			<use xlink:href="#SVGID_1_"  style="overflow:visible;"/>
		</clipPath>
		<g class="st0">
			<line class="st1" x1="91.5" y1="134.3" x2="-496.7" y2="722.5"/>
			<line class="st1" x1="110.8" y1="134.3" x2="-477.3" y2="722.5"/>
			<line class="st1" x1="130.2" y1="134.3" x2="-458" y2="722.5"/>
			<line class="st1" x1="149.5" y1="134.3" x2="-438.6" y2="722.5"/>
			<line class="st1" x1="168.9" y1="134.3" x2="-419.3" y2="722.5"/>
			<line class="st1" x1="188.2" y1="134.3" x2="-399.9" y2="722.5"/>
			<line class="st1" x1="207.6" y1="134.3" x2="-380.6" y2="722.5"/>
			<line class="st1" x1="226.9" y1="134.3" x2="-361.2" y2="722.5"/>
			<line class="st1" x1="246.3" y1="134.3" x2="-341.9" y2="722.5"/>
			<line class="st1" x1="265.7" y1="134.3" x2="-322.5" y2="722.5"/>
			<line class="st1" x1="285" y1="134.3" x2="-303.2" y2="722.5"/>
			<line class="st1" x1="304.4" y1="134.3" x2="-283.8" y2="722.5"/>
			<line class="st1" x1="323.7" y1="134.3" x2="-264.4" y2="722.5"/>
			<line class="st1" x1="343.1" y1="134.3" x2="-245.1" y2="722.5"/>
			<line class="st1" x1="362.4" y1="134.3" x2="-225.7" y2="722.5"/>
			<line class="st1" x1="381.8" y1="134.3" x2="-206.4" y2="722.5"/>
			<line class="st1" x1="401.1" y1="134.3" x2="-187" y2="722.5"/>
			<line class="st1" x1="420.5" y1="134.3" x2="-167.7" y2="722.5"/>
			<line class="st1" x1="439.8" y1="134.3" x2="-148.3" y2="722.5"/>
			<line class="st1" x1="459.2" y1="134.3" x2="-129" y2="722.5"/>
			<line class="st1" x1="478.5" y1="134.3" x2="-109.6" y2="722.5"/>
			<line class="st1" x1="497.9" y1="134.3" x2="-90.3" y2="722.5"/>
			<line class="st1" x1="517.2" y1="134.3" x2="-70.9" y2="722.5"/>
			<line class="st1" x1="536.6" y1="134.3" x2="-51.6" y2="722.5"/>
			<line class="st1" x1="555.9" y1="134.3" x2="-32.2" y2="722.5"/>
			<line class="st1" x1="575.3" y1="134.3" x2="-12.9" y2="722.5"/>
			<line class="st1" x1="594.7" y1="134.3" x2="6.5" y2="722.5"/>
			<line class="st1" x1="614" y1="134.3" x2="25.9" y2="722.5"/>
			<line class="st1" x1="633.4" y1="134.3" x2="45.2" y2="722.5"/>
			<line class="st1" x1="652.7" y1="134.3" x2="64.6" y2="722.5"/>
			<line class="st1" x1="672.1" y1="134.3" x2="83.9" y2="722.5"/>
			<line class="st1" x1="691.4" y1="134.3" x2="103.3" y2="722.5"/>
			<line class="st1" x1="710.8" y1="134.3" x2="122.6" y2="722.5"/>
			<line class="st1" x1="730.1" y1="134.3" x2="142" y2="722.5"/>
			<line class="st1" x1="749.5" y1="134.3" x2="161.3" y2="722.5"/>
			<line class="st1" x1="768.8" y1="134.3" x2="180.7" y2="722.5"/>
			<line class="st1" x1="788.2" y1="134.3" x2="200" y2="722.5"/>
			<line class="st1" x1="807.5" y1="134.3" x2="219.4" y2="722.5"/>
			<line class="st1" x1="826.9" y1="134.3" x2="238.7" y2="722.5"/>
			<line class="st1" x1="846.2" y1="134.3" x2="258.1" y2="722.5"/>
			<line class="st1" x1="865.6" y1="134.3" x2="277.4" y2="722.5"/>
			<line class="st1" x1="885" y1="134.3" x2="296.8" y2="722.5"/>
			<line class="st1" x1="904.3" y1="134.3" x2="316.1" y2="722.5"/>
			<line class="st1" x1="923.7" y1="134.3" x2="335.5" y2="722.5"/>
			<line class="st1" x1="943" y1="134.3" x2="354.9" y2="722.5"/>
			<line class="st1" x1="962.4" y1="134.3" x2="374.2" y2="722.5"/>
			<line class="st1" x1="981.7" y1="134.3" x2="393.6" y2="722.5"/>
			<line class="st1" x1="1001.1" y1="134.3" x2="412.9" y2="722.5"/>
			<line class="st1" x1="1020.4" y1="134.3" x2="432.3" y2="722.5"/>
			<line class="st1" x1="1039.8" y1="134.3" x2="451.6" y2="722.5"/>
			<line class="st1" x1="1059.1" y1="134.3" x2="471" y2="722.5"/>
			<line class="st1" x1="1078.5" y1="134.3" x2="490.3" y2="722.5"/>
			<line class="st1" x1="1097.8" y1="134.3" x2="509.7" y2="722.5"/>
		</g>
	</g>
	<rect x="305.4" y="113.1" class="st2" width="301.1" height="430.1"/>
	<rect x="53.4" y="113.1" class="st3" width="301.1" height="430.1"/>
	<line class="st13" x1="354.5" y1="65.4" x2="354.5" y2="584"/>
	<rect x="53.5" y="334.3" class="st2" width="553" height="234.3"/>
	<polyline class="st14" points="305.4,296.5 30.1,296.5 30.1,542.8 68.6,542.8 	"/>
</g>
<g id="Layer_1">
	<g>
		<defs>
			<rect id="SVGID_3_" x="-640.8" y="116" width="553.6" height="461.6"/>
		</defs>
		<clipPath id="SVGID_4_">
			<use xlink:href="#SVGID_3_"  style="overflow:visible;"/>
		</clipPath>
		<g class="st18">
			<line class="st19" x1="6.9" y1="103.7" x2="-581.2" y2="691.8"/>
			<line class="st19" x1="26.3" y1="103.7" x2="-561.9" y2="691.8"/>
			<line class="st19" x1="45.7" y1="103.7" x2="-542.5" y2="691.8"/>
			<line class="st19" x1="65" y1="103.7" x2="-523.2" y2="691.8"/>
			<line class="st19" x1="84.4" y1="103.7" x2="-503.8" y2="691.8"/>
			<line class="st19" x1="103.7" y1="103.7" x2="-484.4" y2="691.8"/>
			<line class="st19" x1="123.1" y1="103.7" x2="-465.1" y2="691.8"/>
			<line class="st19" x1="142.4" y1="103.7" x2="-445.7" y2="691.8"/>
			<line class="st19" x1="161.8" y1="103.7" x2="-426.4" y2="691.8"/>
			<line class="st19" x1="181.1" y1="103.7" x2="-407" y2="691.8"/>
			<line class="st19" x1="200.5" y1="103.7" x2="-387.7" y2="691.8"/>
			<line class="st19" x1="219.8" y1="103.7" x2="-368.3" y2="691.8"/>
			<line class="st19" x1="239.2" y1="103.7" x2="-349" y2="691.8"/>
			<line class="st19" x1="258.5" y1="103.7" x2="-329.6" y2="691.8"/>
			<line class="st19" x1="277.9" y1="103.7" x2="-310.3" y2="691.8"/>
			<line class="st19" x1="297.2" y1="103.7" x2="-290.9" y2="691.8"/>
			<line class="st19" x1="316.6" y1="103.7" x2="-271.6" y2="691.8"/>
			<line class="st19" x1="335.9" y1="103.7" x2="-252.2" y2="691.8"/>
			<line class="st19" x1="355.3" y1="103.7" x2="-232.9" y2="691.8"/>
			<line class="st19" x1="374.7" y1="103.7" x2="-213.5" y2="691.8"/>
			<line class="st19" x1="394" y1="103.7" x2="-194.1" y2="691.8"/>
		</g>
	</g>
	<g>
		<polyline class="st14" points="251.6,63.5 261.9,73.5 272.1,63.5 282.4,73.5 292.7,63.5 302.9,73.5 313.2,63.5 323.5,73.5 
			333.7,63.5 344,73.5 354.3,63.5 364.5,73.5 374.8,63.5 385.1,73.5 395.4,63.5 405.6,73.5 415.9,63.5 426.2,73.5 436.5,63.5 
			446.7,73.5 457,63.5 467.3,73.5 		"/>
	</g>
	<g>
		<defs>
			<rect id="SVGID_5_" x="365.5" y="226.6" width="241" height="75.5"/>
		</defs>
		<clipPath id="SVGID_6_">
			<use xlink:href="#SVGID_5_"  style="overflow:visible;"/>
		</clipPath>
		<g class="st40">
			<line class="st1" x1="402.9" y1="-125.2" x2="-185.2" y2="463"/>
			<line class="st1" x1="422.3" y1="-125.2" x2="-165.9" y2="463"/>
			<line class="st1" x1="441.6" y1="-125.2" x2="-146.5" y2="463"/>
			<line class="st1" x1="461" y1="-125.2" x2="-127.2" y2="463"/>
			<line class="st1" x1="480.3" y1="-125.2" x2="-107.8" y2="463"/>
			<line class="st1" x1="499.7" y1="-125.2" x2="-88.5" y2="463"/>
			<line class="st1" x1="519" y1="-125.2" x2="-69.1" y2="463"/>
			<line class="st1" x1="538.4" y1="-125.2" x2="-49.8" y2="463"/>
			<line class="st1" x1="557.7" y1="-125.2" x2="-30.4" y2="463"/>
			<line class="st1" x1="577.1" y1="-125.2" x2="-11.1" y2="463"/>
			<line class="st1" x1="596.5" y1="-125.2" x2="8.3" y2="463"/>
			<line class="st1" x1="615.8" y1="-125.2" x2="27.7" y2="463"/>
			<line class="st1" x1="635.2" y1="-125.2" x2="47" y2="463"/>
			<line class="st1" x1="654.5" y1="-125.2" x2="66.4" y2="463"/>
			<line class="st1" x1="673.9" y1="-125.2" x2="85.7" y2="463"/>
			<line class="st1" x1="693.2" y1="-125.2" x2="105.1" y2="463"/>
			<line class="st1" x1="712.6" y1="-125.2" x2="124.4" y2="463"/>
			<line class="st1" x1="731.9" y1="-125.2" x2="143.8" y2="463"/>
			<line class="st1" x1="751.3" y1="-125.2" x2="163.1" y2="463"/>
			<line class="st1" x1="770.6" y1="-125.2" x2="182.5" y2="463"/>
			<line class="st1" x1="790" y1="-125.2" x2="201.8" y2="463"/>
			<line class="st1" x1="809.3" y1="-125.2" x2="221.2" y2="463"/>
			<line class="st1" x1="828.7" y1="-125.2" x2="240.5" y2="463"/>
			<line class="st1" x1="848" y1="-125.2" x2="259.9" y2="463"/>
			<line class="st1" x1="867.4" y1="-125.2" x2="279.2" y2="463"/>
			<line class="st1" x1="886.8" y1="-125.2" x2="298.6" y2="463"/>
			<line class="st1" x1="906.1" y1="-125.2" x2="317.9" y2="463"/>
			<line class="st1" x1="925.5" y1="-125.2" x2="337.3" y2="463"/>
			<line class="st1" x1="944.8" y1="-125.2" x2="356.7" y2="463"/>
			<line class="st1" x1="964.2" y1="-125.2" x2="376" y2="463"/>
			<line class="st1" x1="983.5" y1="-125.2" x2="395.4" y2="463"/>
			<line class="st1" x1="1002.9" y1="-125.2" x2="414.7" y2="463"/>
			<line class="st1" x1="1022.2" y1="-125.2" x2="434.1" y2="463"/>
			<line class="st1" x1="1041.6" y1="-125.2" x2="453.4" y2="463"/>
			<line class="st1" x1="1060.9" y1="-125.2" x2="472.8" y2="463"/>
			<line class="st1" x1="1080.3" y1="-125.2" x2="492.1" y2="463"/>
			<line class="st1" x1="1099.6" y1="-125.2" x2="511.5" y2="463"/>
			<line class="st1" x1="1119" y1="-125.2" x2="530.8" y2="463"/>
			<line class="st1" x1="1138.3" y1="-125.2" x2="550.2" y2="463"/>
			<line class="st1" x1="1157.7" y1="-125.2" x2="569.5" y2="463"/>
			<line class="st1" x1="1177" y1="-125.2" x2="588.9" y2="463"/>
			<line class="st1" x1="1196.4" y1="-125.2" x2="608.2" y2="463"/>
			<line class="st1" x1="1215.8" y1="-125.2" x2="627.6" y2="463"/>
			<line class="st1" x1="1235.1" y1="-125.2" x2="647" y2="463"/>
		</g>
	</g>
</g>
<g id="Layer_3">
	<g>
		<g>
			<line class="st32" x1="354.5" y1="171.7" x2="351" y2="171.7"/>
			<line class="st41" x1="344.9" y1="171.7" x2="44.9" y2="171.7"/>
			<polyline class="st32" points="41.9,171.7 38.4,171.7 38.4,175.2 			"/>
			<line class="st42" x1="38.4" y1="181.3" x2="38.4" y2="470.5"/>
			<polyline class="st32" points="38.4,473.6 38.4,477.1 41.9,477.1 			"/>
			<line class="st43" x1="48.3" y1="477.1" x2="58.9" y2="477.1"/>
			<line class="st32" x1="62.1" y1="477.1" x2="65.6" y2="477.1"/>
			<g>
				<polygon class="st30" points="72.7,477.1 62.7,481.1 65.1,477.1 62.7,473 				"/>
			</g>
		</g>
	</g>
	<g>
		<line class="st45" x1="123.1" y1="230.8" x2="123.1" y2="294.5"/>
		<line class="st45" x1="113.1" y1="230.8" x2="113.1" y2="294.5"/>
		<line class="st45" x1="103" y1="261.2" x2="103" y2="294.5"/>
	</g>
	<line class="st45" x1="466.6" y1="87.7" x2="466.6" y2="39.1"/>
	<line class="st45" x1="476.7" y1="87.7" x2="476.7" y2="54.3"/>
	<line class="st45" x1="486.7" y1="87.7" x2="486.7" y2="54.3"/>
	<g>
		<rect x="399.2" y="102" class="st6" width="195.8" height="105.5"/>
		<path class="st30" d="M592.4,104.5V205H401.7V104.5H592.4 M597.4,99.5H396.7V210h200.8V99.5L597.4,99.5z"/>
	</g>
	<text transform="matrix(1 0 0 1 416.8377 147.151)"><tspan x="0" y="0" class="st29 st46 st47">A ADoção</tspan><tspan x="0" y="39.2" class="st29 st46 st47">no brasil</tspan></text>
	<g>
		<path class="st2" d="M180.8,265.9l-7.9-2.1l9.8-12.6l12.5-7.9l-4.1-16.7l-21.5-14.4v-25.2l-13.6-8.5l-2.1-14.2l-26.6-12.5
			l-3.5-11.3L107.9,151H91.7l1.8-9.7l-5.4,2.1L72.6,130l4.3-20.6l10.7-4.6l6.7-1.5L98.9,90l-4.6-7.9l-2-6.4l4.1-2.9l-4-0.4l3.2-6.4
			l15.8-3.2l10.2,7l10.3-3.7l0.8-1.6l-0.9,0.5l-5.7-17.9l12.4,4.7L156,38.4l6.7,11.8l-4,10.8l6.4,4.1l18.6-6.6l17.1,1.6l11.1-16.8
			l10.1,25l-3.9,4.9l12.7,2.8l-2,4.5l6.7-3.1l19.3,9.4l-2.5,5.6c2.4-0.7,5.1-1.5,6-1.5c1.3,0,8.4,2,12.7,4h12.1l16.2,14.6l10.5-2.5
			l5.7,16l-6.9,17.7l-7.9,5.9l-7.2,9.7l-8.8,5.2V175l-5.6,23.4l-14.1,23.3l-14.3,0.7l-25,13.1v11.9l-1,6.3l-2.7,3.1l-3.8,7.7
			l-8.4,9.4l-9.5,13.7L180.8,265.9z"/>
		<path class="st3" d="M155.6,40.6l5.5,9.7l-4.2,11.3l8,5.1l19-6.8l17.7,1.6l10-15.1l8.7,21.6l-4.8,6.1l13.2,2.9l-2.9,6.5l9.7-4.4
			l17.4,8.5l-3.2,7.3c0,0,7.4-2.2,8.7-2.2s12.4,4.3,12.4,4.3h11.7l16.4,14.4l9.9-2.5l5.1,14.1l-6.6,16.7l-7.7,5.8l-6.9,9.6l-9.1,5.5
			v14.2l-5.7,23l-13.7,22.4l-13.7,0.6l-25.9,13.7v12.7l-1.2,5.8l-2.7,2.9l-3.9,7.7l-8.4,9.3l-8.5,12.2l-18.2-20.6l-6.2-1.6l8.3-10.6
			l13.2-8.4l-4.2-18.3l-21.1-14.3v-25.3l-14-8.5l-2.3-14.3l-26.8-12.6l-3.9-12.4L107.5,150h-14l2-10.8l-7.1,2.6l-14.1-12.3l3.9-19
			l9.8-4.3l7.4-1.6l5.1-14.8l-4.8-8.4l-1.6-5.1l3.2-2.3l3.2-2.3l-5.8-0.6l1.9-3.9l14.5-2.9l10.3,7.1l11.6-4.2l3.2-6.4l-3.5,1.9
			l-4.2-13.2l10.3,3.9L155.6,40.6 M156.5,36.1l-2.7,2.1l-15.4,11.9l-8.7-3.3l-5.8-2.2l1.9,5.9l4.2,13.2l0.4,1.4l-8.4,3l-9-6.2
			l-1-0.7l-1.2,0.2l-14.5,2.9l-1.4,0.3L94,66l-1.9,3.9l-1.9,3.8l2.2,0.2l-1.7,1.2l0.7,2.1l1.6,5.1l0.1,0.3l0.2,0.3l4.1,7.2
			l-4.1,11.9l-5.8,1.3l-0.3,0.1l-0.3,0.1l-9.8,4.3l-1.4,0.6l-0.3,1.5l-3.9,18.9l-0.4,1.7l1.3,1.2L86.4,144l1.4,1.2l1.7-0.6l2.1-0.8
			l-1,5.5l-0.7,3.8h3.6h14h0.9l0.8-0.7l13.9-9.4l2.7,8.7l0.4,1.2l1.2,0.6l25.3,11.9l2,12.7l0.2,1.4l1.4,0.7l12.5,7.7v23.6v1.6
			l1.2,0.9l20.2,13.7l3.6,15.1l-11.4,7.2l-0.4,0.3l-0.3,0.4l-8.3,10.6l-2.8,3.6l4.4,1.2l5.3,1.4l17.6,19.9l2.5,2.9l2.2-3.1l8.4-12.1
			l8.2-9.2l0.3-0.3l0.2-0.4l3.7-7.4l2.4-2.6l0.6-0.6l0.2-0.9l1.2-5.8l0.2-0.3v-0.3v-10.9l23.6-12.5l13.1-0.6l1.6-0.1l0.8-1.4
			l13.6-22.4l0.2-0.4l0.1-0.5l5.7-23l0.3-0.3v-0.4v-12.5l7.6-4.6l0.4-0.3l0.3-0.5l6.7-9.3l7.3-5.5l0.7-0.5l0.3-0.8l6.6-16.7l0.4-1
			l-0.4-1.1l-5.1-14.2l-0.9-2.5l-2.6,0.6l-8.4,2l-15.2-13.4l-0.9-0.5h-1.1h-11.2c-11.1-5-12.4-4.3-12.9-4.3c-0.6,0-1.7,0.1-3.3,0.5
			l0.6-1.4l1.2-2.7l-2.6-1.3l-17.4-8.5l-1.3-0.6l-1.3,0.6l-2.4,1.1l1.1-2.5l-3.6-0.8l-8.5-1.9l1.9-2.4l1.1-1.4l-0.6-1.6l-8.7-21.6
			l-2.1-5.3l-3.1,4.8l-9,13.6l-15.9-1.4l-0.7-0.1l-0.6,0.2l-17.6,6.3l-4.8-3.1l3.3-9l0.5-1.3l-0.7-1.2l-5.5-9.7L156.5,36.1
			L156.5,36.1z"/>
	</g>
</g>
<g id="Layer_4">
	<g>
		<path class="st13" d="M229,150.6c2.3-1.9,2.6-5.3,2.9-8.3c1-10.5,8.2-20.1,8.2-20.1c5.6-5.9,10.1-12.8,13.4-20.2
			c0.9-2.1,3.2-9.1,3.6-18.5c0.7-14.7-4.5-29.6-15.8-39c-14.9-12.4-44.8-17.9-64.8,0c-11,9.8-16.6,24.3-15.8,39
			c0.5,9.4,2.7,16.3,3.6,18.5c3.3,7.4,7.9,14.3,13.4,20.2c0,0,7.2,9.6,8.2,20.1c0.3,2.9,0.5,6.5,2.9,8.3
			C198,157.4,220.4,157.7,229,150.6z"/>
	</g>
	<g>
		<g>
			<path class="st29" d="M190.8,153l4.7,18.9l5.6,3.5l13.1,1.2c0,0,8.1-3.9,8.2-3.9c0.2-0.1,1.7-7.2,1.7-7.2l1.6-5.2l1.6-8.5
				l-8.9,3.2l-10.1,0.8L190.8,153z"/>
		</g>
	</g>
	<g>
		<g>
			<path d="M190.4,159.6c0.4,4.5,1.2,7.6,5.3,9.9c4,2.2,8.8,2.9,13.3,3c4.2,0,8.8-0.6,12.6-2.6c4.3-2.3,5.3-5.6,5.7-10.2
				c0.2-2.1-3.1-2.1-3.3,0c-0.4,4.6-2.2,6.9-6.5,8.3c-2.7,0.9-5.6,1.2-8.4,1.2c-6.8,0-14.6-1.4-15.3-9.5
				C193.6,157.5,190.2,157.4,190.4,159.6L190.4,159.6z"/>
		</g>
	</g>
	<g>
		<g>
			<path d="M192.4,166.6c0.3,3.7,0.8,6.5,4.1,8.6c3.4,2.2,7.8,3,11.8,3.1c3.9,0.1,8-0.4,11.5-2.2c4.1-2,5.1-5.1,5.5-9.5
				c0.2-2.1-3.1-2.1-3.3,0c-0.7,7.1-7.7,8.5-13.7,8.3c-5.7-0.2-12-1.5-12.6-8.3C195.5,164.5,192.2,164.5,192.4,166.6L192.4,166.6z"
				/>
		</g>
	</g>
	<g>
		<g>
			<path d="M230.2,151.7c4-4.3,3-10.5,4.7-15.8c1.6-5.1,4.1-9.9,7.6-14c8.1-9.6,14-19.8,15.7-32.3c3.4-25.1-9.3-48.5-34.1-55.8
				c-24.3-7.2-50.8,2.7-61,26.7c-5.1,11.9-5.2,25.5-1.7,37.9c1.4,5.1,4,9.8,6.9,14.3c3,4.7,7.1,8.5,10,13.2
				c1.9,3.2,3.6,6.5,4.7,10.1c1.2,3.7,1,7.7,2.1,11.4c1.5,5,6.3,7,11.1,8.4c10.4,3,24.9,3.1,33.9-3.7c1.7-1.3,0-4.2-1.7-2.9
				c-8,6.1-20.7,6.1-30,3.7c-2.2-0.6-4.8-1.2-6.7-2.5c-3.4-2.3-3.6-5.3-4-8.9c-0.6-4.9-2.3-9.6-4.6-14c-4.6-8.8-12.1-15.4-16.4-24.6
				c-4.6-9.9-5.5-22.3-3.1-32.8c5.8-25.5,30.6-39.5,55.6-34.1c24.6,5.3,38.7,26.6,36.1,51.4c-1.5,13.8-8.2,23.2-16.5,33.9
				c-2.1,2.6-3.6,5.7-5,8.8c-1.2,2.7-2.2,5.4-2.8,8.3c-0.8,3.7-0.2,8-3,11C226.4,151,228.7,153.3,230.2,151.7z"/>
		</g>
	</g>
	<g>
		<g>
			<path d="M188.8,152.9c0.4,4.8,1.5,7.9,6,10c4.3,2.1,9.4,2.8,14.2,2.8c4.7,0,9.7-0.6,13.9-2.8c4.4-2.2,5.4-5.4,5.9-10.1
				c0.2-2.1-3.1-2.1-3.3,0c-0.5,5.1-2.8,7-7.3,8.3c-3,0.9-6.1,1.2-9.2,1.2c-7,0-16.1-1.1-16.9-9.5
				C192,150.7,188.6,150.7,188.8,152.9L188.8,152.9z"/>
		</g>
	</g>
	<g>
		<g>
			<g>
				<path d="M184.6,95.6c0.3,5.4,0,11.1,0.9,16.4c0.5,3.6,2.4,5.3,5,7.6c4.3,3.9,4.6,7.9,5.4,13.4c0.8,5.7,1.5,11.3,2.3,17
					c0.3,2.1,3.5,1.2,3.2-0.9c-0.7-5.3-1.4-10.7-2.2-16c-0.5-3.7-0.5-8-2.3-11.3c-1.6-3-4.7-4.2-6.7-6.8c-3.2-4.3-2-14.1-2.3-19.3
					C187.8,93.5,184.5,93.5,184.6,95.6L184.6,95.6z"/>
			</g>
		</g>
		<g>
			<g>
				<path d="M229.1,95.6c-0.3,5.2,1,15-2.3,19.3c-2,2.6-5.1,3.8-6.7,6.8c-1.8,3.4-1.8,7.6-2.3,11.3c-0.7,5.3-1.4,10.7-2.2,16
					c-0.3,2.1,2.9,3,3.2,0.9c0.7-5.3,1.4-10.7,2.2-16c0.8-5.8,0.9-10.2,5.5-14.3c2.5-2.2,4.4-4,5-7.4c0.9-5.4,0.6-11.2,0.9-16.6
					C232.5,93.5,229.2,93.5,229.1,95.6L229.1,95.6z"/>
			</g>
		</g>
	</g>
	<g>
		<polygon points="194.1,101 189.7,95.5 191.4,94.1 194.1,97.5 197.7,93 201.3,97.5 204.9,93 208.5,97.5 212.1,93 215.6,97.5 
			219.2,93 222.8,97.5 225.5,94.1 227.3,95.5 222.8,101 219.2,96.6 215.6,101 212.1,96.6 208.5,101 204.9,96.6 201.3,101 
			197.7,96.6 		"/>
	</g>
	<polygon class="st6" points="222.7,199.8 222.7,315 369.1,315 369.1,199.8 276.5,199.8 238.5,182.3 238.5,198.5 	"/>
	<path class="st30" d="M372.7,317.7v-123h-97.2l-40.3-18.1v18.1h-14.8v123H372.7z M226.3,201.7h15.9V187l31.8,14.7h91.7v110.1H226.3
		V201.7z"/>
	<text transform="matrix(1 0 0 1 231.7575 218.8504)" class="st11 st52 st53">entrevistamos</text>
	<text transform="matrix(1 0 0 1 240.8005 255.1118)"><tspan x="0" y="0" class="st5 st54 st55 st56">2</tspan><tspan x="26.8" y="0" class="st5 st54 st55 st57">7</tspan><tspan x="54.6" y="0" class="st5 st54 st55 st56">2</tspan><tspan x="81.4" y="0" class="st5 st54 st55 st57">5</tspan></text>
	<text transform="matrix(1 0 0 1 277.9393 260.6863)"><tspan x="0" y="0" class="st11 st52 st53">profissionais</tspan><tspan x="-20.9" y="14.4" class="st11 st58 st59">de </tspan><tspan x="-5.1" y="14.4" class="st11 st52 st59">todo o país</tspan><tspan x="54.9" y="14.4" class="st11 st58 st59"> para</tspan><tspan x="-32.7" y="28.8" class="st11 st58 st59">entender a adoção do</tspan><tspan x="-47" y="43.2" class="st11 st52 st59">Marketing de Conteúdo</tspan><tspan x="78.6" y="43.2" class="st11 st58 st59">.</tspan></text>
	<g>
		<g>
			<polygon class="st60" points="69.1,541.4 69.1,512.7 65.6,512.7 62.2,499.5 90.4,499.5 111.3,512 104.6,512 104.6,541.4 			"/>
			<path class="st61" d="M90.2,500l19.2,11.5h-4.3h-1v1v28.3H69.6v-27.6v-1l-1,0l-2.6,0L62.8,500H90.2 M90.5,499h-29l3.7,14.2l3.4,0
				v28.6h36.5v-29.3h7.9L90.5,499L90.5,499z"/>
		</g>
		<g>
			<polygon class="st60" points="125.6,541.4 125.6,512.7 122.1,512.7 118.7,499.5 146.9,499.5 167.8,512 161.1,512 161.1,541.4 			
				"/>
			<path class="st61" d="M146.7,500l19.2,11.5h-4.3h-1v1v28.3h-34.5v-27.6v-1l-1,0l-2.6,0l-3.2-12.2H146.7 M147,499h-29l3.7,14.2
				l3.4,0v28.6h36.5v-29.3h7.9L147,499L147,499z"/>
		</g>
		<g>
			<polygon class="st60" points="182.1,541.4 182.1,512.7 178.6,512.7 175.2,499.5 203.4,499.5 224.3,512 217.6,512 217.6,541.4 			
				"/>
			<path class="st61" d="M203.2,500l19.2,11.5h-4.3h-1v1v28.3h-34.5v-27.6v-1l-1,0l-2.6,0l-3.2-12.2H203.2 M203.5,499h-29l3.7,14.2
				l3.4,0v28.6h36.5v-29.3h7.9L203.5,499L203.5,499z"/>
		</g>
		<g>
			<polygon class="st60" points="238.6,541.4 238.6,512.7 235.1,512.7 231.7,499.5 259.9,499.5 280.8,512 274.1,512 274.1,541.4 			
				"/>
			<path class="st61" d="M259.7,500l19.2,11.5h-4.3h-1v1v28.3h-34.5v-27.6v-1l-1,0l-2.6,0l-3.2-12.2H259.7 M260,499h-29l3.7,14.2
				l3.4,0v28.6h36.5v-29.3h7.9L260,499L260,499z"/>
		</g>
		<g>
			<polygon class="st60" points="295.1,541.4 295.1,512.7 291.6,512.7 288.2,499.5 316.4,499.5 337.3,512 330.6,512 330.6,541.4 			
				"/>
			<path class="st61" d="M316.2,500l19.2,11.5h-4.3h-1v1v28.3h-34.5v-27.6v-1l-1,0l-2.6,0l-3.2-12.2H316.2 M316.5,499h-29l3.7,14.2
				l3.4,0v28.6h36.5v-29.3h7.9L316.5,499L316.5,499z"/>
		</g>
		<g>
			<polygon class="st60" points="351.6,541.4 351.6,512.7 348.1,512.7 344.7,499.5 372.9,499.5 393.8,512 387.1,512 387.1,541.4 			
				"/>
			<path class="st61" d="M372.7,500l19.2,11.5h-4.3h-1v1v28.3h-34.5v-27.6v-1l-1,0l-2.6,0l-3.2-12.2H372.7 M373,499h-29l3.7,14.2
				l3.4,0v28.6h36.5v-29.3h7.9L373,499L373,499z"/>
		</g>
		<g>
			<polygon class="st60" points="408.1,541.4 408.1,512.7 404.6,512.7 401.2,499.5 429.4,499.5 450.3,512 443.6,512 443.6,541.4 			
				"/>
			<path class="st61" d="M429.2,500l19.2,11.5h-4.3h-1v1v28.3h-34.5v-27.6v-1l-1,0l-2.6,0l-3.2-12.2H429.2 M429.5,499h-29l3.7,14.2
				l3.4,0v28.6h36.5v-29.3h7.9L429.5,499L429.5,499z"/>
		</g>
	</g>
	<polygon class="st61" points="84,512.5 61.5,499 38.4,512.5 43.3,512.5 43.3,541.9 79.8,541.9 79.8,512.5 	"/>
	<polygon class="st61" points="140.5,512.5 118,499 94.9,512.5 99.8,512.5 99.8,541.9 136.3,541.9 136.3,512.5 	"/>
	<polygon class="st61" points="197,512.5 174.5,499 151.4,512.5 156.3,512.5 156.3,541.9 192.8,541.9 192.8,512.5 	"/>
	<polygon class="st61" points="253.5,512.5 231,499 207.9,512.5 212.8,512.5 212.8,541.9 249.3,541.9 249.3,512.5 	"/>
	<polygon class="st61" points="310,512.5 287.5,499 264.4,512.5 269.3,512.5 269.3,541.9 305.8,541.9 305.8,512.5 	"/>
	<polygon class="st61" points="366.5,512.5 344,499 320.9,512.5 325.8,512.5 325.8,541.9 362.3,541.9 362.3,512.5 	"/>
	<polygon class="st61" points="423,512.5 400.5,499 377.4,512.5 382.3,512.5 382.3,541.9 418.8,541.9 418.8,512.5 	"/>
	<polygon class="st62" points="508.6,512.5 486,499 457,499 460.7,513.2 464.1,513.2 464.1,541.9 500.6,541.9 500.6,512.5 	"/>
	<polygon points="479.5,512.5 457,499 433.9,512.5 438.8,512.5 438.8,541.9 475.3,541.9 475.3,512.5 	"/>
	<polygon class="st62" points="565.1,512.5 542.5,499 513.5,499 517.2,513.2 520.6,513.2 520.6,541.9 557.1,541.9 557.1,512.5 	"/>
	<polygon points="536,512.5 513.5,499 490.4,512.5 495.3,512.5 495.3,541.9 531.8,541.9 531.8,512.5 	"/>
	<polygon class="st62" points="621.6,512.5 599,499 570,499 573.7,513.2 577.1,513.2 577.1,541.9 613.6,541.9 613.6,512.5 	"/>
	<polygon points="592.5,512.5 570,499 546.9,512.5 551.8,512.5 551.8,541.9 588.3,541.9 588.3,512.5 	"/>
	<line class="st45" x1="43.3" y1="542.8" x2="613.7" y2="542.8"/>
</g>
</svg>
