<svg id="Layer_1" data-name="Layer 1" xmlns="http://www.w3.org/2000/svg" viewBox="0 0 500 248.72"><defs><style>.cls-1{fill:#fff;}</style></defs><title>Untitled-3</title><path class="cls-1" d="M155.31,101.39h-26.5V170H116.23V101.39H89.62V90.27h65.69v11.12Z" transform="translate(-50 -25.64)"/><path class="cls-1" d="M166.2,170V90.27h34.7c14.37,0,24.7,13.14,24.7,25.94,0,10.67-6.17,20.44-15.61,23.47L229,170H214.71l-17.52-27.73H178.78V170H166.2Zm12.58-38.85h22c7.07,0,12-6.85,12-14.93s-6.06-14.82-12.69-14.82H178.78v29.76Z" transform="translate(-50 -25.64)"/><path class="cls-1" d="M296,158.88V170H241.32V90.27H295v11.12H253.9v22.68h35.59v10.44H253.9v24.36H296Z" transform="translate(-50 -25.64)"/><path class="cls-1" d="M322.06,113.85V170H309.49V90.27h9.88L365,147.76V90.39h12.69V170H367.2Z" transform="translate(-50 -25.64)"/><path class="cls-1" d="M395.61,170V90.27h28.29c25.71,0,38.85,17.74,38.85,39.75,0,24.14-15.27,40-38.85,40H395.61Zm28.29-68.61H408.19v57.49h15.72c16.84,0,26.05-12.46,26.05-28.86C450,113.29,440.41,101.39,423.91,101.39Z" transform="translate(-50 -25.64)"/><path class="cls-1" d="M523.17,109c-3-3.26-11.57-8.08-22-8.08-9.77,0-15,4.15-15,11.12,0,7.64,6.51,9.32,19.76,12.69,15.72,4,26.27,8.2,26.27,22.9,0,16.62-13.36,23.13-29.19,23.13a54.58,54.58,0,0,1-33-10.78l5.84-10.78c3.82,3.93,15,10.22,27.62,10.22,9.54,0,15.16-3.59,15.16-10.33,0-8-8-10.22-21.78-13.81-15.72-4.15-23.69-8.87-23.69-21.33,0-15.72,12.58-24.25,28.74-24.25a45.37,45.37,0,0,1,27.06,9Z" transform="translate(-50 -25.64)"/><polygon class="cls-1" points="331 53.36 342 53.36 342 26.49 342 15.36 331.08 15.36 288 15.36 288 26.36 331 26.36 331 53.36"/><polygon class="cls-1" points="331 155.36 331 166.36 304.83 166.36 304.83 190.64 251.48 166.36 24 166.36 24 53.36 12 53.36 12 166.62 12 177.36 23.7 177.36 249.07 177.36 300.28 200.81 316 208.08 316 190.81 316 177.36 331.08 177.36 342 177.36 342 166.62 342 155.36 331 155.36"/><path class="cls-1" d="M50,46.19a20.87,20.87,0,0,1,1.4-7.42,20.24,20.24,0,0,1,4.07-6.61A20.69,20.69,0,0,1,62,27.45a20.31,20.31,0,0,1,8.73-1.8,19.65,19.65,0,0,1,10.1,2.5,16.19,16.19,0,0,1,6.37,6.52l-7.33,5.12a8.55,8.55,0,0,0-1.77-2.71,9.7,9.7,0,0,0-5-2.68,13.63,13.63,0,0,0-2.62-.26,9.86,9.86,0,0,0-4.77,1.11,10.5,10.5,0,0,0-3.38,2.85,11.84,11.84,0,0,0-2,4,16,16,0,0,0-.64,4.48,14.78,14.78,0,0,0,.76,4.71,12.52,12.52,0,0,0,2.18,4A10.54,10.54,0,0,0,66.09,58a9.82,9.82,0,0,0,4.51,1,11.61,11.61,0,0,0,2.65-.32,10.67,10.67,0,0,0,2.62-1A9.34,9.34,0,0,0,78.17,56a8.16,8.16,0,0,0,1.69-2.65l7.8,4.6A12.14,12.14,0,0,1,84.89,62a17,17,0,0,1-4.22,3,23.17,23.17,0,0,1-10.3,2.5,18.51,18.51,0,0,1-8.24-1.83,20.83,20.83,0,0,1-6.46-4.86A22.25,22.25,0,0,1,51.48,54,21.48,21.48,0,0,1,50,46.19Z" transform="translate(-50 -25.64)"/><path class="cls-1" d="M110.12,67.54a19.22,19.22,0,0,1-8.38-1.8A20.64,20.64,0,0,1,95.28,61a21.6,21.6,0,0,1-4.16-6.72,21.18,21.18,0,0,1-1.48-7.8,20.63,20.63,0,0,1,1.54-7.86A20.83,20.83,0,0,1,102,27.36a19.77,19.77,0,0,1,8.26-1.72,19.22,19.22,0,0,1,8.38,1.8,20.45,20.45,0,0,1,6.46,4.77A21.55,21.55,0,0,1,129.27,39a21.25,21.25,0,0,1,1.45,7.68,20.64,20.64,0,0,1-1.54,7.86,20.92,20.92,0,0,1-10.8,11.29A19.49,19.49,0,0,1,110.12,67.54Zm-10.77-21a15.44,15.44,0,0,0,.7,4.63,12.34,12.34,0,0,0,2.07,4,10.15,10.15,0,0,0,3.4,2.79,10,10,0,0,0,4.66,1,9.85,9.85,0,0,0,4.77-1.11,10.33,10.33,0,0,0,3.38-2.88,12.6,12.6,0,0,0,2-4,15.9,15.9,0,0,0,.67-4.57,15.45,15.45,0,0,0-.7-4.63,11.73,11.73,0,0,0-2.09-4,10.41,10.41,0,0,0-3.4-2.74,10.1,10.1,0,0,0-4.63-1,9.9,9.9,0,0,0-4.74,1.08A10.58,10.58,0,0,0,102.06,38a11.92,11.92,0,0,0-2,4A15.87,15.87,0,0,0,99.35,46.59Z" transform="translate(-50 -25.64)"/><path class="cls-1" d="M145.79,43.57V67.2h-9.54V25.87h7.45L163,50.14V25.87h9.55V67.2h-7.68Z" transform="translate(-50 -25.64)"/><path class="cls-1" d="M211.91,34.25H199.34V67.2h-9.54V34.25H177.16V25.87h34.74v8.38Z" transform="translate(-50 -25.64)"/><path class="cls-1" d="M245.6,58.81V67.2h-29V25.87h28.52v8.38h-19v8h16.3V50h-16.3v8.79h19.5Z" transform="translate(-50 -25.64)"/><path class="cls-1" d="M261,43.57V67.2h-9.54V25.87h7.45l19.26,24.27V25.87h9.55V67.2H280Z" transform="translate(-50 -25.64)"/><path class="cls-1" d="M327.08,34.25H314.51V67.2H305V34.25H292.34V25.87h34.74v8.38Z" transform="translate(-50 -25.64)"/><path class="cls-1" d="M493.81,274.09c0-2.83.74-4.9,4.32-6.91,2.09-1.17,4.66-2.07,4.66-3.95,0-1.22-1.11-2.46-3.18-2.46a5.23,5.23,0,0,0-4.08,2.15L494,261.22a8.57,8.57,0,0,1,6-2.52c3.26,0,5.27,1.91,5.27,4.27,0,2.73-2.7,4.08-4.26,4.85s-4.13,2.17-4.48,4.16h9v2.12H493.81Z" transform="translate(-50 -25.64)"/><path class="cls-1" d="M515.11,274.36c-3.87,0-6.7-3.36-6.7-8s2.83-8.05,6.7-8.05,6.7,3.39,6.7,8.05S519,274.36,515.11,274.36Zm0-13.91c-2.6,0-4.37,2.38-4.37,5.88s1.78,5.85,4.37,5.85,4.34-2.36,4.34-5.85S517.65,260.45,515.11,260.45Z" transform="translate(-50 -25.64)"/><path class="cls-1" d="M534.5,272v2.12H525V272h3.76V261.64a7.31,7.31,0,0,1-4.32,2.07v-2.23c1.54,0,4.11-2.12,4.32-2.52h2.38v13h3.36Z" transform="translate(-50 -25.64)"/><path class="cls-1" d="M543.27,274.36c-4.05,0-6.81-3-6.81-8.11,0-7.42,2.81-11.1,7-11.1a6.32,6.32,0,0,1,5.67,3.34l-1.43,1.4a4.69,4.69,0,0,0-4.26-2.7c-2.89,0-4.77,2.7-4.82,7.36a5.14,5.14,0,0,1,4.85-3,6.35,6.35,0,0,1,6.49,6.33A6.56,6.56,0,0,1,543.27,274.36Zm4.5-6.49a4.48,4.48,0,1,0-4.48,4.48A4.5,4.5,0,0,0,547.77,267.87Z" transform="translate(-50 -25.64)"/><path class="cls-1" d="M383,231.69a3.75,3.75,0,0,1-2.67-1,3.68,3.68,0,0,1-1.09-2.76V220.6H377v-2.25h2.3v-4h2.47v4H385v2.25h-3.22v6.54a2.4,2.4,0,0,0,.51,1.78,1.65,1.65,0,0,0,1.15.47,2.48,2.48,0,0,0,.58-0.07,2.94,2.94,0,0,0,.52-0.17l0.78,2.2A6.63,6.63,0,0,1,383,231.69Z" transform="translate(-50 -25.64)"/><path class="cls-1" d="M393.09,231.91a6.28,6.28,0,0,1-4.77-2,7,7,0,0,1-1.88-5,7.13,7.13,0,0,1,1.82-5,6.55,6.55,0,0,1,9.31-.11,7.56,7.56,0,0,1,1.73,5.29l0,0.27H389a4.28,4.28,0,0,0,1.29,3.11,4.15,4.15,0,0,0,6.65-1.18l2.2,1.07a6.55,6.55,0,0,1-2.45,2.6A6.79,6.79,0,0,1,393.09,231.91Zm-3.94-8.58h7.53a3.27,3.27,0,0,0-1.11-2.26,3.89,3.89,0,0,0-2.69-.9,3.57,3.57,0,0,0-2.4.86A4.1,4.1,0,0,0,389.15,223.33Z" transform="translate(-50 -25.64)"/><path class="cls-1" d="M401.55,218.35h2.36v1.82H404a4.38,4.38,0,0,1,1.73-1.61,5,5,0,0,1,2.43-.64,4.85,4.85,0,0,1,3.71,1.38,5.51,5.51,0,0,1,1.3,3.93v8.25h-2.47v-8.09q-0.08-3.22-3.24-3.22a3.08,3.08,0,0,0-2.47,1.19,4.32,4.32,0,0,0-1,2.85v7.26h-2.47V218.35Z" transform="translate(-50 -25.64)"/><path class="cls-1" d="M421.57,231.91a5.77,5.77,0,0,1-4.42-2,7.66,7.66,0,0,1,0-9.92,5.77,5.77,0,0,1,4.42-2,5.67,5.67,0,0,1,2.64.62,4.62,4.62,0,0,1,1.84,1.63h0.11L426,218.35v-6.06h2.47v19.19h-2.36v-1.82H426a4.62,4.62,0,0,1-1.84,1.63A5.67,5.67,0,0,1,421.57,231.91Zm0.4-2.25a3.78,3.78,0,0,0,3-1.31,5.44,5.44,0,0,0,0-6.83,3.79,3.79,0,0,0-3-1.34,3.84,3.84,0,0,0-3,1.34,4.9,4.9,0,0,0-1.21,3.4,4.83,4.83,0,0,0,1.21,3.4A3.84,3.84,0,0,0,422,229.66Z" transform="translate(-50 -25.64)"/><path class="cls-1" d="M437.28,231.91a6.28,6.28,0,0,1-4.77-2,7,7,0,0,1-1.88-5,7.13,7.13,0,0,1,1.82-5,6.55,6.55,0,0,1,9.31-.11,7.56,7.56,0,0,1,1.73,5.29l0,0.27H433.15a4.28,4.28,0,0,0,1.29,3.11,4.15,4.15,0,0,0,6.65-1.18l2.2,1.07a6.55,6.55,0,0,1-2.45,2.6A6.79,6.79,0,0,1,437.28,231.91Zm-1.58-16.08h-2.39v-0.13l2.76-3.14h2.14l2.76,3.14v0.13h-2.39l-1.34-1.61H437Zm-2.36,7.5h7.53a3.27,3.27,0,0,0-1.11-2.26,3.89,3.89,0,0,0-2.69-.9,3.57,3.57,0,0,0-2.4.86A4.1,4.1,0,0,0,433.34,223.33Z" transform="translate(-50 -25.64)"/><path class="cls-1" d="M445.74,218.35h2.36v1.82h0.11a4.38,4.38,0,0,1,1.73-1.61,5,5,0,0,1,2.43-.64,4.85,4.85,0,0,1,3.71,1.38,5.51,5.51,0,0,1,1.3,3.93v8.25h-2.47v-8.09q-0.08-3.22-3.24-3.22a3.08,3.08,0,0,0-2.47,1.19,4.32,4.32,0,0,0-1,2.85v7.26h-2.47V218.35Z" transform="translate(-50 -25.64)"/><path class="cls-1" d="M466.27,231.91a6.48,6.48,0,0,1-4.85-2,7.06,7.06,0,0,1-1.9-5,7,7,0,0,1,1.9-5,6.49,6.49,0,0,1,4.85-2A6,6,0,0,1,472,221.7l-2.25.94a3.71,3.71,0,0,0-3.67-2.47,3.81,3.81,0,0,0-2.92,1.37,5.33,5.33,0,0,0,0,6.75,3.81,3.81,0,0,0,2.92,1.37,3.86,3.86,0,0,0,3.81-2.47l2.2,0.94a5.88,5.88,0,0,1-2.26,2.77A6.4,6.4,0,0,1,466.27,231.91Z" transform="translate(-50 -25.64)"/><path class="cls-1" d="M477.44,213.82a1.74,1.74,0,1,1-.51-1.23A1.68,1.68,0,0,1,477.44,213.82Zm-0.51,4.53v13.13h-2.47V218.35h2.47Z" transform="translate(-50 -25.64)"/><path class="cls-1" d="M485,217.92a6.11,6.11,0,0,1,4.31,1.46,5.19,5.19,0,0,1,1.58,4v8.09h-2.36v-1.82h-0.11a4.7,4.7,0,0,1-4.07,2.25,5.29,5.29,0,0,1-3.63-1.29,4.11,4.11,0,0,1-1.46-3.22,3.9,3.9,0,0,1,1.54-3.24,6.49,6.49,0,0,1,4.11-1.21,7.28,7.28,0,0,1,3.62.8V223.2a2.81,2.81,0,0,0-1-2.18,3.49,3.49,0,0,0-2.38-.9,3.78,3.78,0,0,0-3.27,1.74l-2.17-1.37A6.05,6.05,0,0,1,485,217.92Zm-3.19,9.54a2,2,0,0,0,.82,1.61,3,3,0,0,0,1.92.64,3.93,3.93,0,0,0,2.77-1.15,3.61,3.61,0,0,0,1.22-2.71,5.07,5.07,0,0,0-3.22-.91,4.18,4.18,0,0,0-2.51.72A2.15,2.15,0,0,0,481.81,227.46Z" transform="translate(-50 -25.64)"/><path class="cls-1" d="M503.6,227.83a3.56,3.56,0,0,1-1.5,2.89,5.93,5.93,0,0,1-3.78,1.18,6,6,0,0,1-3.48-1,5.68,5.68,0,0,1-2.14-2.72l2.2-.94a4.07,4.07,0,0,0,1.41,1.84,3.42,3.42,0,0,0,2,.66,3.57,3.57,0,0,0,2-.51,1.45,1.45,0,0,0,.79-1.21q0-1.26-1.93-1.85l-2.25-.56q-3.83-1-3.83-3.7a3.42,3.42,0,0,1,1.46-2.88,6.7,6.7,0,0,1,6.89-.25,4.52,4.52,0,0,1,2,2.22l-2.2.91a2.77,2.77,0,0,0-1.22-1.3,3.83,3.83,0,0,0-1.89-.47,3.17,3.17,0,0,0-1.73.48,1.39,1.39,0,0,0-.76,1.18q0,1.13,2.12,1.61l2,0.51Q503.6,224.86,503.6,227.83Z" transform="translate(-50 -25.64)"/><path class="cls-1" d="M517.13,231.91a5.77,5.77,0,0,1-4.42-2,7.66,7.66,0,0,1,0-9.92,5.77,5.77,0,0,1,4.42-2,5.67,5.67,0,0,1,2.64.62,4.62,4.62,0,0,1,1.84,1.63h0.11l-0.11-1.82v-6.06h2.47v19.19h-2.36v-1.82h-0.11a4.62,4.62,0,0,1-1.84,1.63A5.67,5.67,0,0,1,517.13,231.91Zm0.4-2.25a3.78,3.78,0,0,0,3-1.31,5.44,5.44,0,0,0,0-6.83,3.79,3.79,0,0,0-3-1.34,3.84,3.84,0,0,0-3,1.34,4.9,4.9,0,0,0-1.21,3.4,4.83,4.83,0,0,0,1.21,3.4A3.84,3.84,0,0,0,517.53,229.66Z" transform="translate(-50 -25.64)"/><path class="cls-1" d="M526.19,224.91a7,7,0,0,1,1.9-5,6.49,6.49,0,0,1,4.85-2,6.4,6.4,0,0,1,4.82,2,7.47,7.47,0,0,1,0,10,6.4,6.4,0,0,1-4.82,2,6.48,6.48,0,0,1-4.85-2A6.94,6.94,0,0,1,526.19,224.91Zm2.47,0a4.81,4.81,0,0,0,1.23,3.43,4.21,4.21,0,0,0,6.11,0,5.35,5.35,0,0,0,0-6.83,4.15,4.15,0,0,0-6.11,0A4.77,4.77,0,0,0,528.65,224.91Z" transform="translate(-50 -25.64)"/><path class="cls-1" d="M379.45,252.59H377V239.46h2.36v1.82h0.11a4.38,4.38,0,0,1,1.73-1.61,4.83,4.83,0,0,1,4.86,0,4,4,0,0,1,1.61,1.85,5.12,5.12,0,0,1,4.53-2.52,4.44,4.44,0,0,1,3.51,1.39,5.8,5.8,0,0,1,1.23,4v8.2h-2.47v-7.83a4.22,4.22,0,0,0-.67-2.67,2.76,2.76,0,0,0-2.25-.82,3,3,0,0,0-2.39,1.21,4.41,4.41,0,0,0-1,2.84v7.26h-2.47v-7.83a4.22,4.22,0,0,0-.67-2.67,2.76,2.76,0,0,0-2.25-.82,2.94,2.94,0,0,0-2.38,1.21,4.41,4.41,0,0,0-1,2.84v7.26Z" transform="translate(-50 -25.64)"/><path class="cls-1" d="M404.66,239a6.11,6.11,0,0,1,4.31,1.46,5.19,5.19,0,0,1,1.58,4v8.09H408.2v-1.82h-0.11A4.7,4.7,0,0,1,404,253a5.29,5.29,0,0,1-3.63-1.29,4.11,4.11,0,0,1-1.46-3.22,3.9,3.9,0,0,1,1.54-3.24,6.49,6.49,0,0,1,4.11-1.21,7.28,7.28,0,0,1,3.62.8v-0.56a2.81,2.81,0,0,0-1-2.18,3.49,3.49,0,0,0-2.38-.9,3.78,3.78,0,0,0-3.27,1.74l-2.17-1.37A6.05,6.05,0,0,1,404.66,239Zm-3.19,9.54a2,2,0,0,0,.82,1.61,3,3,0,0,0,1.92.64,3.93,3.93,0,0,0,2.77-1.15A3.61,3.61,0,0,0,408.2,247,5.07,5.07,0,0,0,405,246a4.18,4.18,0,0,0-2.51.72A2.15,2.15,0,0,0,401.47,248.57Z" transform="translate(-50 -25.64)"/><path class="cls-1" d="M415.81,252.59h-2.47V239.46h2.36v2.14h0.11a3.56,3.56,0,0,1,1.54-1.78,4.28,4.28,0,0,1,2.29-.74,4.62,4.62,0,0,1,1.82.32l-0.75,2.39a4.09,4.09,0,0,0-1.45-.19,3.19,3.19,0,0,0-2.43,1.13,3.76,3.76,0,0,0-1,2.63v7.24Z" transform="translate(-50 -25.64)"/><path class="cls-1" d="M434.76,252.59h-3l-4.1-6.19-2,2v4.21h-2.47V233.4h2.47v11.82l5.68-5.76h3.16v0.11l-5.12,5.09,5.36,7.83v0.11Z" transform="translate(-50 -25.64)"/><path class="cls-1" d="M441.64,253a6.28,6.28,0,0,1-4.77-2,7,7,0,0,1-1.88-5,7.13,7.13,0,0,1,1.82-5,6.55,6.55,0,0,1,9.31-.11,7.56,7.56,0,0,1,1.73,5.29l0,0.27H437.52a4.28,4.28,0,0,0,1.29,3.11,4.15,4.15,0,0,0,6.65-1.18l2.2,1.07a6.55,6.55,0,0,1-2.45,2.6A6.79,6.79,0,0,1,441.64,253Zm-3.94-8.58h7.53a3.27,3.27,0,0,0-1.11-2.26,3.89,3.89,0,0,0-2.69-.9,3.57,3.57,0,0,0-2.4.86A4.1,4.1,0,0,0,437.7,244.44Z" transform="translate(-50 -25.64)"/><path class="cls-1" d="M454.91,252.8a3.75,3.75,0,0,1-2.67-1,3.68,3.68,0,0,1-1.09-2.76v-7.34h-2.3v-2.25h2.3v-4h2.47v4h3.22v2.25h-3.22v6.54a2.4,2.4,0,0,0,.51,1.78,1.65,1.65,0,0,0,1.15.47,2.48,2.48,0,0,0,.58-0.07,2.94,2.94,0,0,0,.52-0.17l0.78,2.2A6.63,6.63,0,0,1,454.91,252.8Z" transform="translate(-50 -25.64)"/><path class="cls-1" d="M462.52,234.93a1.74,1.74,0,1,1-.51-1.23A1.68,1.68,0,0,1,462.52,234.93ZM462,239.46v13.13h-2.47V239.46H462Z" transform="translate(-50 -25.64)"/><path class="cls-1" d="M465.22,239.46h2.36v1.82h0.11a4.38,4.38,0,0,1,1.73-1.61,5,5,0,0,1,2.43-.64,4.85,4.85,0,0,1,3.71,1.38,5.51,5.51,0,0,1,1.3,3.93v8.25h-2.47v-8.09q-0.08-3.22-3.24-3.22a3.08,3.08,0,0,0-2.47,1.19,4.32,4.32,0,0,0-1,2.85v7.26h-2.47V239.46Z" transform="translate(-50 -25.64)"/><path class="cls-1" d="M485.43,258.8a7.34,7.34,0,0,1-2.06-.28,6.69,6.69,0,0,1-1.76-.79,5.67,5.67,0,0,1-1.35-1.21,5.09,5.09,0,0,1-.86-1.55l2.33-1a3.69,3.69,0,0,0,1.39,1.85,3.91,3.91,0,0,0,2.3.7,4.08,4.08,0,0,0,3.14-1.21,4.68,4.68,0,0,0,1.13-3.32v-1.26h-0.11a4.85,4.85,0,0,1-1.89,1.65,5.65,5.65,0,0,1-2.59.6,5.8,5.8,0,0,1-4.42-2,7.27,7.27,0,0,1-1.82-5,7.17,7.17,0,0,1,1.82-5,5.77,5.77,0,0,1,4.42-2,5.65,5.65,0,0,1,2.59.6,4.85,4.85,0,0,1,1.89,1.65h0.11v-1.82H492V252a6.7,6.7,0,0,1-1.8,5A6.52,6.52,0,0,1,485.43,258.8Zm0.08-8a3.78,3.78,0,0,0,3-1.31,5.44,5.44,0,0,0,0-6.83,3.79,3.79,0,0,0-3-1.34,3.84,3.84,0,0,0-3,1.34,4.9,4.9,0,0,0-1.21,3.4,4.83,4.83,0,0,0,1.21,3.4A3.84,3.84,0,0,0,485.51,250.76Z" transform="translate(-50 -25.64)"/><path class="cls-1" d="M506.44,253a5.77,5.77,0,0,1-4.42-2,7.66,7.66,0,0,1,0-9.92,5.77,5.77,0,0,1,4.42-2,5.67,5.67,0,0,1,2.64.62,4.62,4.62,0,0,1,1.84,1.63H511l-0.11-1.82V233.4h2.47v19.19H511v-1.82h-0.11a4.62,4.62,0,0,1-1.84,1.63A5.67,5.67,0,0,1,506.44,253Zm0.4-2.25a3.78,3.78,0,0,0,3-1.31,5.44,5.44,0,0,0,0-6.83,3.79,3.79,0,0,0-3-1.34,3.84,3.84,0,0,0-3,1.34,4.9,4.9,0,0,0-1.21,3.4,4.83,4.83,0,0,0,1.21,3.4A3.84,3.84,0,0,0,506.84,250.76Z" transform="translate(-50 -25.64)"/><path class="cls-1" d="M522.14,253a6.28,6.28,0,0,1-4.77-2,7,7,0,0,1-1.88-5,7.13,7.13,0,0,1,1.82-5,6.55,6.55,0,0,1,9.31-.11,7.56,7.56,0,0,1,1.73,5.29l0,0.27H518a4.28,4.28,0,0,0,1.29,3.11,4.15,4.15,0,0,0,6.65-1.18l2.2,1.07a6.55,6.55,0,0,1-2.45,2.6A6.79,6.79,0,0,1,522.14,253Zm-3.94-8.58h7.53a3.27,3.27,0,0,0-1.11-2.26,3.89,3.89,0,0,0-2.69-.9,3.57,3.57,0,0,0-2.4.86A4.1,4.1,0,0,0,518.2,244.44Z" transform="translate(-50 -25.64)"/><path class="cls-1" d="M383.73,274.09a6.48,6.48,0,0,1-4.85-2,7.06,7.06,0,0,1-1.9-5,7,7,0,0,1,1.9-5,6.49,6.49,0,0,1,4.85-2,6,6,0,0,1,5.76,3.78l-2.25.94a3.71,3.71,0,0,0-3.67-2.47,3.81,3.81,0,0,0-2.92,1.37,5.33,5.33,0,0,0,0,6.75,3.81,3.81,0,0,0,2.92,1.37,3.86,3.86,0,0,0,3.81-2.47l2.2,0.94a5.88,5.88,0,0,1-2.26,2.77A6.4,6.4,0,0,1,383.73,274.09Z" transform="translate(-50 -25.64)"/><path class="cls-1" d="M390.83,267.1a7,7,0,0,1,1.9-5,6.49,6.49,0,0,1,4.85-2,6.4,6.4,0,0,1,4.82,2,7.47,7.47,0,0,1,0,10,6.4,6.4,0,0,1-4.82,2,6.48,6.48,0,0,1-4.85-2A6.94,6.94,0,0,1,390.83,267.1Zm2.47,0a4.81,4.81,0,0,0,1.23,3.43,4.21,4.21,0,0,0,6.11,0,5.35,5.35,0,0,0,0-6.83,4.15,4.15,0,0,0-6.11,0A4.77,4.77,0,0,0,393.3,267.1Z" transform="translate(-50 -25.64)"/><path class="cls-1" d="M406.32,260.53h2.36v1.82h0.11a4.38,4.38,0,0,1,1.73-1.61,5,5,0,0,1,2.43-.64,4.85,4.85,0,0,1,3.71,1.38,5.51,5.51,0,0,1,1.3,3.93v8.25h-2.47v-8.09q-0.08-3.22-3.24-3.22a3.08,3.08,0,0,0-2.47,1.19,4.32,4.32,0,0,0-1,2.85v7.26h-2.47V260.53Z" transform="translate(-50 -25.64)"/><path class="cls-1" d="M425.38,273.88a3.75,3.75,0,0,1-2.67-1,3.68,3.68,0,0,1-1.09-2.76v-7.34h-2.3v-2.25h2.3v-4h2.47v4h3.22v2.25h-3.22v6.54a2.4,2.4,0,0,0,.51,1.78,1.65,1.65,0,0,0,1.15.47,2.48,2.48,0,0,0,.58-0.07,2.94,2.94,0,0,0,.52-0.17l0.78,2.2A6.63,6.63,0,0,1,425.38,273.88Z" transform="translate(-50 -25.64)"/><path class="cls-1" d="M435.43,274.09a6.28,6.28,0,0,1-4.77-2,7,7,0,0,1-1.88-5,7.13,7.13,0,0,1,1.82-5,6.55,6.55,0,0,1,9.31-.11,7.56,7.56,0,0,1,1.73,5.29l0,0.27H431.3a4.28,4.28,0,0,0,1.29,3.11,4.15,4.15,0,0,0,6.65-1.18l2.2,1.07a6.55,6.55,0,0,1-2.45,2.6A6.79,6.79,0,0,1,435.43,274.09Zm-3.94-8.58H439a3.27,3.27,0,0,0-1.11-2.26,3.89,3.89,0,0,0-2.69-.9,3.57,3.57,0,0,0-2.4.86A4.1,4.1,0,0,0,431.49,265.52Z" transform="translate(-50 -25.64)"/><path class="cls-1" d="M455.42,273.67h-2.36v-1.82H453a4.39,4.39,0,0,1-1.73,1.61,5,5,0,0,1-2.43.64,4.85,4.85,0,0,1-3.71-1.38,5.51,5.51,0,0,1-1.3-3.93v-8.25h2.47v8.09q0.08,3.22,3.24,3.22a3.08,3.08,0,0,0,2.47-1.19,4.32,4.32,0,0,0,1-2.85v-7.26h2.47v13.13Zm-3-19.19-1.93,3.43h-2.14l1.39-3.43h2.68Z" transform="translate(-50 -25.64)"/><path class="cls-1" d="M463.78,274.09a5.77,5.77,0,0,1-4.42-2,7.66,7.66,0,0,1,0-9.92,5.77,5.77,0,0,1,4.42-2,5.67,5.67,0,0,1,2.64.62,4.62,4.62,0,0,1,1.84,1.63h0.11l-0.11-1.82v-6.06h2.47v19.19h-2.36v-1.82h-0.11a4.62,4.62,0,0,1-1.84,1.63A5.67,5.67,0,0,1,463.78,274.09Zm0.4-2.25a3.78,3.78,0,0,0,3-1.31,5.44,5.44,0,0,0,0-6.83,3.79,3.79,0,0,0-3-1.34,3.84,3.84,0,0,0-3,1.34,4.9,4.9,0,0,0-1.21,3.4,4.83,4.83,0,0,0,1.21,3.4A3.84,3.84,0,0,0,464.18,271.84Z" transform="translate(-50 -25.64)"/><path class="cls-1" d="M472.84,267.1a7,7,0,0,1,1.9-5,6.49,6.49,0,0,1,4.85-2,6.4,6.4,0,0,1,4.82,2,7.47,7.47,0,0,1,0,10,6.4,6.4,0,0,1-4.82,2,6.48,6.48,0,0,1-4.85-2A6.94,6.94,0,0,1,472.84,267.1Zm2.47,0a4.81,4.81,0,0,0,1.23,3.43,4.21,4.21,0,0,0,6.11,0,5.35,5.35,0,0,0,0-6.83,4.15,4.15,0,0,0-6.11,0A4.77,4.77,0,0,0,475.3,267.1Z" transform="translate(-50 -25.64)"/></svg>