<?xml version="1.0" encoding="utf-8"?>
<!-- Generator: Adobe Illustrator 19.0.0, SVG Export Plug-In . SVG Version: 6.00 Build 0)  -->
<svg version="1.1" id="Camada_1" xmlns="http://www.w3.org/2000/svg" xmlns:xlink="http://www.w3.org/1999/xlink" x="0px" y="0px"
	 viewBox="0 0 700 450" style="enable-background:new 0 0 700 450;" xml:space="preserve">
<style type="text/css">
	.st0{fill:#FFFFFF;}
</style>
<g id="XMLID_1_">
	<g id="XMLID_69_">
		<path id="XMLID_91_" class="st0" d="M126.3,105.6h-16.5V148h-6.1v-42.4H87.3v-5.4h39V105.6z"/>
		<path id="XMLID_89_" class="st0" d="M163.5,142.6v5.4h-32.4v-47.8h31.8v5.4h-25.8V121h22.4v5h-22.4v16.5H163.5z"/>
		<path id="XMLID_87_" class="st0" d="M176.1,111.5V148H170v-47.8h4.7l29.6,37.2v-37.2h6.1V148h-5.1L176.1,111.5z"/>
		<path id="XMLID_84_" class="st0" d="M219.7,148v-47.8h16.6c15.3,0,23.1,10.6,23.1,23.8c0,14.5-9,24-23.1,24H219.7z M236.2,105.6
			h-10.5v37h10.5c11,0,17-8,17-18.6C253.2,113.2,247.1,105.6,236.2,105.6z"/>
		<path id="XMLID_81_" class="st0" d="M298.3,142.6v5.4h-32.4v-47.8h31.8v5.4h-25.8V121h22.4v5h-22.4v16.5H298.3z M273.7,92.4
			l6.8-6.1h4.3l6.8,6.1l-3.2,1.6l-5.7-4.2l-5.7,4.2L273.7,92.4z"/>
		<path id="XMLID_79_" class="st0" d="M310.8,111.5V148h-6.1v-47.8h4.7l29.6,37.2v-37.2h6.1V148H340L310.8,111.5z"/>
		<path id="XMLID_77_" class="st0" d="M374.2,99.9c8.5,0,14.8,4.3,17.8,10.4l-4.8,3.1c-2.8-6.1-8.4-8.1-13.3-8.1
			c-10.6,0-16.4,9.6-16.4,18.6c0,10,7.1,18.9,16.6,18.9c5,0,10.9-2.5,13.7-8.4l5,2.8c-3,7.1-11.6,11.1-19,11.1
			c-13.1,0-22.4-12.5-22.4-24.6C351.4,112.2,359.8,99.9,374.2,99.9z"/>
		<path id="XMLID_75_" class="st0" d="M398.3,148v-47.7h6.1V148H398.3z"/>
		<path id="XMLID_72_" class="st0" d="M408.6,148l19.7-47.8h5l19.6,47.8h-6.5l-5.7-14h-20.1l-5.6,14H408.6z M430.8,107.2l-8.9,22.1
			h17.5L430.8,107.2z"/>
		<path id="XMLID_70_" class="st0" d="M484.6,110.2c-2.2-2.5-7.3-5-13-5c-7.4,0-10.8,3-10.8,7.8c0,5.1,4,6.5,12.6,8.4
			c10,2.2,16.2,5,16.2,13.7c0,9.2-7.5,13.3-17.4,13.3c-7.3,0-14.1-2.4-19.5-6.7l2.9-5.1c2.9,3,9.4,6.4,16.7,6.4
			c6.8,0,10.8-2.5,10.8-7.3c0-5.4-4.9-7-13.8-9.2c-9.7-2.4-14.7-5-14.7-12.6c0-9.2,7.3-14.1,17.2-14.1c6.4,0,11.6,2.2,15.7,5.5
			L484.6,110.2z"/>
	</g>
	<g id="XMLID_62_">
		<path id="XMLID_66_" class="st0" d="M501.9,148.3v-26.4h9.1c8.5,0,12.7,5.9,12.7,13.1c0,8-5,13.2-12.7,13.2H501.9z M511,124.9
			h-5.8v20.4h5.8c6.1,0,9.4-4.4,9.4-10.2C520.4,129.1,517,124.9,511,124.9z"/>
		<path id="XMLID_63_" class="st0" d="M525.7,135.1c0-7,5.3-13.4,12.5-13.4c7.4,0,12.4,6.8,12.4,13.4c0,7-5.3,13.3-12.4,13.3
			C530.7,148.4,525.7,141.8,525.7,135.1z M538.2,145.4c5.6,0,9-5.3,9-10.4c0-5.4-3.7-10.3-9-10.3c-5.6,0-9.1,5.2-9.1,10.3
			C529.1,140.5,532.7,145.4,538.2,145.4z"/>
	</g>
	<g id="XMLID_56_">
		<path id="XMLID_59_" class="st0" d="M177.7,259v-26.7h9.3c8.6,0,12.9,5.9,12.9,13.3c0,8.1-5,13.4-12.9,13.4H177.7z M186.9,235.2
			h-5.9v20.7h5.9c6.2,0,9.5-4.5,9.5-10.4C196.4,239.5,193,235.2,186.9,235.2z"/>
		<path id="XMLID_57_" class="st0" d="M221.6,255.9v3h-18.2v-26.7h17.8v3h-14.4v8.7h12.5v2.8h-12.5v9.2H221.6z"/>
	</g>
	<g id="XMLID_36_">
		<path id="XMLID_54_" class="st0" d="M260.9,232.2c8.8,0,15.4,4.5,18.5,10.9l-5,3.2c-2.9-6.3-8.8-8.4-13.8-8.4
			c-11.1,0-17,10-17,19.4c0,10.4,7.4,19.7,17.2,19.7c5.2,0,11.3-2.6,14.2-8.8l5.3,2.9c-3.2,7.4-12,11.6-19.8,11.6
			c-13.7,0-23.3-13-23.3-25.6C237.2,245,245.9,232.2,260.9,232.2z"/>
		<path id="XMLID_51_" class="st0" d="M282.3,257.4c0-13.2,10.1-25.2,23.5-25.2c13.9,0,23.3,12.8,23.3,25.3
			c0,13.2-10,25.1-23.5,25.1C291.8,282.6,282.3,270.1,282.3,257.4z M305.8,276.9c10.6,0,17-9.9,17-19.5c0-10.2-6.9-19.5-17-19.5
			c-10.6,0-17.1,9.8-17.1,19.5C288.7,267.5,295.5,276.9,305.8,276.9z"/>
		<path id="XMLID_49_" class="st0" d="M342.1,244.3v38h-6.3v-49.7h4.9l30.8,38.7v-38.7h6.3v49.7h-5.3L342.1,244.3z"/>
		<path id="XMLID_47_" class="st0" d="M423.4,238.1h-17.2v44.1h-6.3v-44.1h-17.2v-5.6h40.6V238.1z"/>
		<path id="XMLID_45_" class="st0" d="M462.1,276.6v5.6h-33.8v-49.7h33.1v5.6h-26.8v16.1H458v5.3h-23.3v17.2H462.1z"/>
		<path id="XMLID_44_" class="st0" d="M504.1,257.6v-25.1h6.3v25.1c0,13.4-5.9,24.9-21.2,24.9c-15.8,0-21.2-12.2-21.2-24.9v-25.1
			h6.3v25.1c0,9.8,3.5,19.3,14.8,19.3C500.8,276.9,504.1,267.2,504.1,257.6z"/>
		<polygon id="XMLID_43_" class="st0" points="490.3,232.5 486.3,231.1 490.3,224 496.5,224 		"/>
		<path id="XMLID_40_" class="st0" d="M519.3,282.2v-49.7h17.2c16,0,24,11.1,24,24.8c0,15.1-9.4,24.9-24,24.9H519.3z M536.6,238.1
			h-10.9v38.5h10.9c11.5,0,17.7-8.3,17.7-19.3C554.2,246.1,547.9,238.1,536.6,238.1z"/>
		<path id="XMLID_37_" class="st0" d="M564.3,257.4c0-13.2,10.1-25.2,23.5-25.2c13.9,0,23.3,12.8,23.3,25.3
			c0,13.2-10,25.1-23.5,25.1C573.8,282.6,564.3,270.1,564.3,257.4z M587.8,276.9c10.6,0,17-9.9,17-19.5c0-10.2-6.9-19.5-17-19.5
			c-10.6,0-17.1,9.8-17.1,19.5C570.7,267.5,577.5,276.9,587.8,276.9z"/>
	</g>
	<g id="XMLID_15_">
		<path id="XMLID_34_" class="st0" d="M139.5,220.9v-46.7L119.4,210h-4.3l-20.2-35.8v46.7h-7.7v-60.4h8.1l21.9,39.2l22-39.2h8v60.4
			H139.5z"/>
		<path id="XMLID_31_" class="st0" d="M152.6,220.9l24.9-60.4h6.3l24.8,60.4h-8.2l-7.1-17.7h-25.4l-7.1,17.7H152.6z M180.6,169.3
			l-11.2,27.9h22.1L180.6,169.3z"/>
		<path id="XMLID_28_" class="st0" d="M213.9,220.9v-60.4h25.9c10.6,0,18.3,9.8,18.3,19.3c0,8.4-5,16-12.7,18l14.6,23.1h-8.7
			l-13.8-21.7h-16v21.7H213.9z M221.6,192.3h18.3c6.3,0,10.5-6,10.5-12.6c0-6.8-5.1-12.5-11-12.5h-17.8V192.3z"/>
		<path id="XMLID_26_" class="st0" d="M267.7,220.9v-60.3h7.7v33.4l31.1-33.4h8.3l-24.3,26.6l25.6,33.8h-8.3l-22-29.4l-10.5,10.9
			v18.5H267.7z"/>
		<path id="XMLID_24_" class="st0" d="M361.2,214.1v6.8h-41v-60.4h40.3v6.8h-32.6v19.6h28.3v6.4h-28.3v20.9H361.2z"/>
		<path id="XMLID_22_" class="st0" d="M413,167.2h-20.9v53.6h-7.7v-53.6h-20.9v-6.8H413V167.2z"/>
		<path id="XMLID_20_" class="st0" d="M419.1,220.9v-60.3h7.7v60.3H419.1z"/>
		<path id="XMLID_18_" class="st0" d="M446.1,174.7v46.1h-7.7v-60.4h6l37.4,47.1v-47h7.7v60.3h-6.5L446.1,174.7z"/>
		<path id="XMLID_16_" class="st0" d="M544.1,212.7c-5.4,5.8-11.4,8.6-18.4,8.6c-16,0-28.2-15.2-28.2-30.8c0-16.3,12-30.5,28.2-30.5
			c11.7,0,19.1,5.4,23.1,13.2l-5.9,4.1c-3.6-7-10-10.4-17.4-10.4c-12.3,0-20.3,11.5-20.3,23.7c0,12.9,9.1,23.7,21,23.7
			c6.5,0,12.4-3.1,17.8-9.5v-8.3h-13v-5.8h19.5v30.1h-6.5V212.7z"/>
	</g>
	<g id="XMLID_5_">
		<path id="XMLID_13_" class="st0" d="M427.3,349.7c0-10,2.6-17.4,15.3-24.5c7.4-4.1,16.5-7.3,16.5-14c0-4.3-3.9-8.7-11.3-8.7
			c-7.6,0-12.1,4.8-14.4,7.6l-5.3-6c2.1-2.2,9.7-8.9,21.3-8.9c11.5,0,18.7,6.8,18.7,15.1c0,9.7-9.6,14.4-15.1,17.2
			c-5.5,2.7-14.6,7.7-15.9,14.7h32v7.5H427.3z"/>
		<path id="XMLID_10_" class="st0" d="M499.7,350.7c-13.7,0-23.7-11.9-23.7-28.4c0-16.5,10-28.5,23.7-28.5c13.6,0,23.7,12,23.7,28.5
			C523.4,338.7,513.3,350.7,499.7,350.7z M499.7,301.4c-9.2,0-15.5,8.4-15.5,20.8c0,12.4,6.3,20.7,15.5,20.7c9,0,15.4-8.3,15.4-20.7
			C515.1,309.9,508.7,301.4,499.7,301.4z"/>
		<path id="XMLID_8_" class="st0" d="M565.4,342.2v7.5h-33.7v-7.5H545v-36.6c-2.2,2.9-10.4,7.3-15.3,7.3v-7.9
			c5.4,0,14.5-7.5,15.3-8.9h8.4v46.1H565.4z"/>
		<path id="XMLID_6_" class="st0" d="M612.7,341.6c0,13.2-10.4,22.1-23.5,22.1c-9.5,0-17.6-4.9-21.5-12.4l5.2-4.5
			c3.5,5.7,9.7,9.6,16.4,9.6c8.5,0,15-6,15-14.7c0-8.3-6.3-14.2-14.4-14.2c-5.3,0-10.3,2.4-13.3,6.8h-7.4c0.6-2.7,7.5-38.2,7.5-38.2
			h32.4v7.6h-26.3l-4,21.2c2.7-2.9,7-4.7,12.2-4.7C603.2,320.3,612.7,329,612.7,341.6z"/>
	</g>
	<path id="XMLID_2_" class="st0" d="M664.3,392.2H35.7V57.8h628.5V392.2z M41.4,386.6h617.2V63.4H41.4V386.6z"/>
</g>
</svg>
